<svg xmlns="http://www.w3.org/2000/svg" width="26.53" height="21.288" viewBox="0 0 26.53 21.288">
  <g id="Group_36" data-name="Group 36" transform="translate(-1054.084 -873.5)">
    <path id="Icon_metro-chevron-thin-down" data-name="Icon metro-chevron-thin-down" d="M29.437,10.965a1.074,1.074,0,0,1,1.51,0,1.049,1.049,0,0,1,0,1.495l-12.2,12.077a1.074,1.074,0,0,1-1.51,0L5.042,12.46a1.05,1.05,0,0,1,0-1.495,1.074,1.074,0,0,1,1.51,0L17.995,21.98Z" transform="translate(1049.354 862.845)" fill="#fff"/>
    <path id="Icon_metro-chevron-thin-down-2" data-name="Icon metro-chevron-thin-down" d="M29.437,10.965a1.074,1.074,0,0,1,1.51,0,1.049,1.049,0,0,1,0,1.495l-12.2,12.077a1.074,1.074,0,0,1-1.51,0L5.042,12.46a1.05,1.05,0,0,1,0-1.495,1.074,1.074,0,0,1,1.51,0L17.995,21.98Z" transform="translate(1049.354 869.94)" fill="#fff"/>
  </g>
</svg>
