<?xml version="1.0" encoding="UTF-8"?><svg id="Layer_2" xmlns="http://www.w3.org/2000/svg" viewBox="0 0 44.5 19.66"><g id="Layer_1-2"><path d="m22.24.02c7.23,0,14.46,0,21.69,0,.18,0,.46-.11.52.1.09.33.08.69,0,1.03-.03.12-.19.08-.3.08-.4,0-.79.01-1.19,0-.25,0-.33.08-.33.33,0,2.06,0,4.12,0,6.18,0,.28.11.35.37.34.4-.01.79,0,1.19,0,.23,0,.3.08.3.31,0,1.17-.01,2.35,0,3.52,0,.34-.21.29-.41.29-1.32,0-2.63.01-3.95,0-.34,0-.48.07-.46.44.03.46,0,.92.01,1.38,0,.23-.08.32-.3.3-.05,0-.1,0-.14,0-.39.04-.91-.18-1.13.1-.19.23-.07.73-.07,1.1,0,.65.02,1.3,0,1.95-.01.34.07.47.44.46.76-.03,1.52,0,2.28-.02.3,0,.44.06.41.39-.03.33-.02.67,0,1,.01.25-.09.32-.33.32-3.2,0-6.4,0-9.61,0-.22,0-.3-.06-.31-.29-.1-1.41-.1-1.41,1.27-1.41.51,0,1.01,0,1.52,0,.23,0,.34-.05.34-.31-.01-.98-.01-1.97,0-2.95,0-.28-.11-.37-.37-.34-.02,0-.03,0-.05,0-.4-.04-.93.18-1.18-.1-.24-.27-.07-.79-.07-1.2,0-.81,0-.81-.79-.81-6.31,0-12.62,0-18.93,0-.4,0-.57.07-.53.51.04.42,0,.86.01,1.28,0,.25-.09.34-.33.33-.32-.02-.63.01-.95,0-.28-.02-.39.07-.39.37.02.97.02,1.93,0,2.9,0,.29.12.34.37.33.79-.01,1.59.01,2.38-.01.32,0,.42.1.39.4-.05.42.18.96-.1,1.23-.25.25-.78.07-1.19.07-2.82,0-5.64,0-8.47.01-.39,0-.51-.1-.5-.5.02-1.21,0-1.21,1.2-1.21.52,0,1.05-.01,1.57,0,.25,0,.37-.05.36-.34-.02-.98-.01-1.97,0-2.95,0-.25-.09-.33-.33-.32-.33.02-.67,0-1,0-.25.01-.33-.09-.32-.33.02-.41-.03-.83.01-1.24.05-.48-.14-.57-.58-.56-1.27.03-2.54,0-3.8.02-.32,0-.44-.07-.43-.42.02-1.11.02-2.22,0-3.33,0-.29.09-.39.38-.38.38.02.76,0,1.14,0,.24,0,.34-.06.34-.32,0-2.08,0-4.15,0-6.23,0-.23-.08-.31-.31-.3-.4.01-.79,0-1.19,0-.26.01-.36-.06-.37-.34C-.02.02-.03.02.83.02h21.4Zm.01,8.06c6.23,0,12.46,0,18.69.01.47,0,.58-.13.57-.58-.03-1.92-.02-3.84,0-5.76,0-.41-.09-.53-.52-.53-2.58.02-5.17.01-7.75.01-9.88,0-19.76,0-29.63-.01-.46,0-.58.12-.57.57.03,1.89.01,3.77.01,5.66q0,.62.6.62c6.2,0,12.4,0,18.6,0Z" style="fill:#005284;"/></g></svg>