<?xml version="1.0" encoding="UTF-8"?><svg id="Layer_2" xmlns="http://www.w3.org/2000/svg" viewBox="0 0 49.13 62.15"><g id="Layer_1-2"><g id="Group_57"><g id="Group_2"><path id="Path_13" d="m47.08,20.78h-3.8c-1.45-.14-2.77.81-3.12,2.22l-10.32,27.48c-.19.66-.49,1-.91,1s-.73-.33-.92-1L11.53,8.21h11.54c1.67.15,3.14-1.09,3.28-2.76.02-.18.02-.35,0-.53v-1.64c.14-1.67-1.09-3.14-2.76-3.28-.17-.02-.35-.01-.52,0H2.13C.37.01-.42.9.22,2.54l22.79,57.15c.17.77.61,1.47,1.23,1.96.62.36,1.33.53,2.05.5h5.17c.72.03,1.43-.15,2.06-.51.62-.5,1.05-1.19,1.23-1.96l14.21-36.36c.49-1.7-.12-2.54-1.88-2.54Z" style="fill:#61a60e;"/></g></g></g></svg>