<svg xmlns="http://www.w3.org/2000/svg" width="159.9" height="83.57" viewBox="0 0 159.9 83.57">
  <g id="Group_57" data-name="Group 57" transform="translate(-899 -52.333)">
    <g id="Group_1" data-name="Group 1" transform="translate(978.95 118.469)">
      <path id="Path_1" data-name="Path 1" d="M5744.972,3382.887a6.085,6.085,0,0,1-.437,2.331,5.174,5.174,0,0,1-1.223,1.8,5.625,5.625,0,0,1-1.854,1.17,6.666,6.666,0,0,1-4.681,0,5.629,5.629,0,0,1-1.855-1.17,5.189,5.189,0,0,1-1.224-1.8,6.048,6.048,0,0,1-.435-2.331v-5.978a6.036,6.036,0,0,1,.435-2.328,5.156,5.156,0,0,1,1.224-1.8,5.682,5.682,0,0,1,1.855-1.172,6.7,6.7,0,0,1,4.681,0,5.678,5.678,0,0,1,1.854,1.172,5.14,5.14,0,0,1,1.223,1.8,6.074,6.074,0,0,1,.438,2.328Zm-2.369-5.978a3.579,3.579,0,0,0-.895-2.489,3.864,3.864,0,0,0-5.183,0,3.576,3.576,0,0,0-.9,2.489v5.978a3.584,3.584,0,0,0,.9,2.492,3.869,3.869,0,0,0,5.183,0,3.588,3.588,0,0,0,.895-2.492Z" transform="translate(-5733.263 -3371.183)" fill="#fff"/>
      <path id="Path_2" data-name="Path 2" d="M5791.089,3392.664a.687.687,0,0,1,.747-.747h.746a.692.692,0,0,1,.745.747v6.228a4.712,4.712,0,0,1-.32,1.719,4.383,4.383,0,0,1-.911,1.433,4.317,4.317,0,0,1-1.42.97,5.09,5.09,0,0,1-3.76,0,4.452,4.452,0,0,1-1.432-.97,4.33,4.33,0,0,1-.924-1.433,4.656,4.656,0,0,1-.325-1.719v-6.228a.692.692,0,0,1,.751-.747h.747a.689.689,0,0,1,.745.747v6.228a2.583,2.583,0,0,0,.563,1.654,2.1,2.1,0,0,0,1.754.712,2.063,2.063,0,0,0,1.744-.712,2.619,2.619,0,0,0,.549-1.654Z" transform="translate(-5769.543 -3385.94)" fill="#fff"/>
      <path id="Path_3" data-name="Path 3" d="M5828.5,3396.363a3.451,3.451,0,0,1-2.754-1.02,4.19,4.19,0,0,1-.885-2.838v-4.983a.219.219,0,0,0-.249-.249h-.747a.73.73,0,0,1-.546-.2.743.743,0,0,1-.2-.548v-.622a.75.75,0,0,1,.2-.548.732.732,0,0,1,.546-.2h.747a.218.218,0,0,0,.249-.249v-1.743a.751.751,0,0,1,.2-.548.735.735,0,0,1,.548-.2h.746a.687.687,0,0,1,.749.746v1.743a.219.219,0,0,0,.248.249h1.869a.69.69,0,0,1,.749.748v.622a.69.69,0,0,1-.749.748h-1.869a.22.22,0,0,0-.248.249v4.857a2.432,2.432,0,0,0,.335,1.369,1.448,1.448,0,0,0,1.284.5h.5a.687.687,0,0,1,.749.747v.623a.686.686,0,0,1-.749.746Z" transform="translate(-5797.219 -3379.178)" fill="#fff"/>
      <path id="Path_4" data-name="Path 4" d="M5858.146,3388.984a4.766,4.766,0,0,1-1.78-.323,4.186,4.186,0,0,1-1.382-.885,3.793,3.793,0,0,1-.884-1.345,4.484,4.484,0,0,1-.312-1.68v-2.74a4.359,4.359,0,0,1,.324-1.683,3.986,3.986,0,0,1,2.229-2.228,4.431,4.431,0,0,1,1.706-.325h2.468a.22.22,0,0,0,.249-.25v-4.73a.688.688,0,0,1,.747-.747h.748a.734.734,0,0,1,.547.2.749.749,0,0,1,.2.548v15.441a.756.756,0,0,1-.2.55.748.748,0,0,1-.547.2Zm2.618-8.841a.222.222,0,0,0-.249-.25h-2.369a2.011,2.011,0,0,0-2.115,2.118v2.74a2,2,0,0,0,.622,1.531,2.1,2.1,0,0,0,1.493.586h2.369a.222.222,0,0,0,.249-.25Z" transform="translate(-5819.044 -3371.8)" fill="#fff"/>
      <path id="Path_5" data-name="Path 5" d="M5900.247,3402.757a5.66,5.66,0,0,1-2.279-.461,5.96,5.96,0,0,1-3.112-3.114,5.853,5.853,0,0,1,0-4.558,6.015,6.015,0,0,1,1.258-1.854,5.917,5.917,0,0,1,1.854-1.259,5.859,5.859,0,0,1,4.561,0,5.891,5.891,0,0,1,1.854,1.259,5.981,5.981,0,0,1,1.258,1.854,5.842,5.842,0,0,1,0,4.558,5.963,5.963,0,0,1-3.111,3.114A5.662,5.662,0,0,1,5900.247,3402.757Zm0-2.116a3.408,3.408,0,0,0,1.433-.3,3.689,3.689,0,0,0,1.146-.8,3.531,3.531,0,0,0,.76-1.184,4.015,4.015,0,0,0,0-2.913,3.546,3.546,0,0,0-.76-1.184,3.784,3.784,0,0,0-1.146-.8,3.589,3.589,0,0,0-2.865,0,3.759,3.759,0,0,0-1.143.8,3.518,3.518,0,0,0-.761,1.184,4,4,0,0,0,0,2.913,3.5,3.5,0,0,0,.761,1.184,3.665,3.665,0,0,0,1.143.8A3.421,3.421,0,0,0,5900.247,3400.641Z" transform="translate(-5847.945 -3385.322)" fill="#fff"/>
      <path id="Path_6" data-name="Path 6" d="M5947.768,3402.757a5.64,5.64,0,0,1-2.278-.461,5.936,5.936,0,0,1-3.113-3.114,5.836,5.836,0,0,1,0-4.558,6.017,6.017,0,0,1,1.255-1.854,5.9,5.9,0,0,1,1.857-1.259,5.856,5.856,0,0,1,4.559,0,5.964,5.964,0,0,1,3.11,3.113,5.836,5.836,0,0,1,0,4.558,5.961,5.961,0,0,1-3.11,3.114A5.663,5.663,0,0,1,5947.768,3402.757Zm0-2.116a3.412,3.412,0,0,0,1.432-.3,3.684,3.684,0,0,0,1.146-.8,3.578,3.578,0,0,0,.76-1.184,4.008,4.008,0,0,0,0-2.913,3.593,3.593,0,0,0-.76-1.184,3.778,3.778,0,0,0-1.146-.8,3.584,3.584,0,0,0-2.863,0,3.772,3.772,0,0,0-1.148.8,3.564,3.564,0,0,0-.758,1.184,3.988,3.988,0,0,0,0,2.913,3.549,3.549,0,0,0,.758,1.184,3.677,3.677,0,0,0,1.148.8A3.4,3.4,0,0,0,5947.768,3400.641Z" transform="translate(-5881.766 -3385.322)" fill="#fff"/>
      <path id="Path_7" data-name="Path 7" d="M5991.916,3403.124a.744.744,0,0,1-.547-.2.735.735,0,0,1-.2-.551v-6.35a4.221,4.221,0,0,1,1.043-2.963,3.755,3.755,0,0,1,2.915-1.147h.9a.689.689,0,0,1,.745.747v.623a.686.686,0,0,1-.745.746h-.751a1.677,1.677,0,0,0-1.4.585,2.409,2.409,0,0,0-.462,1.534v6.225a.688.688,0,0,1-.748.748Z" transform="translate(-5916.823 -3385.94)" fill="#fff"/>
    </g>
    <g id="Group_2" data-name="Group 2" transform="translate(899 52.333)">
      <path id="Path_8" data-name="Path 8" d="M5503.253,3054.132H5500.5a2.536,2.536,0,0,0-2.75,2.745v4.588a2.536,2.536,0,0,0,2.75,2.75h2.752a2.539,2.539,0,0,0,2.751-2.75v-4.588a2.539,2.539,0,0,0-2.751-2.745Z" transform="translate(-5444.795 -3049.803)" fill="#fff"/>
      <path id="Path_9" data-name="Path 9" d="M5503.253,3133.511H5500.5a2.534,2.534,0,0,0-2.75,2.746v35.864a2.534,2.534,0,0,0,2.75,2.749h2.752a2.537,2.537,0,0,0,2.751-2.749v-35.864a2.538,2.538,0,0,0-2.751-2.746Z" transform="translate(-5444.795 -3112.68)" fill="#fff"/>
      <path id="Path_10" data-name="Path 10" d="M5592.234,3139.352a21.016,21.016,0,0,0-6.564-4.45,20.69,20.69,0,0,0-16.117,0,21.031,21.031,0,0,0-11.017,11.009,20.771,20.771,0,0,0,0,16.126,21.025,21.025,0,0,0,11.017,11.008,20.713,20.713,0,0,0,16.117,0,21.044,21.044,0,0,0,11.015-11.008,20.789,20.789,0,0,0,0-16.126A21.135,21.135,0,0,0,5592.234,3139.352Zm-2.816,19.773a12.552,12.552,0,0,1-2.694,4.179,12.915,12.915,0,0,1-4.045,2.821,12.637,12.637,0,0,1-10.133,0,13.023,13.023,0,0,1-4.053-2.821,12.557,12.557,0,0,1-2.687-4.179,14.178,14.178,0,0,1,0-10.3,12.707,12.707,0,0,1,2.687-4.194,13.26,13.26,0,0,1,4.053-2.813,12.653,12.653,0,0,1,10.133,0,13.148,13.148,0,0,1,4.045,2.813,12.7,12.7,0,0,1,2.694,4.194,14.2,14.2,0,0,1,0,10.3Z" transform="translate(-5491.653 -3112.488)" fill="#fff"/>
      <path id="Path_11" data-name="Path 11" d="M5787.941,3087.7h-.918a3.1,3.1,0,0,1-2.38-.871,3.237,3.237,0,0,1-.831-2.34v-48.432a2.532,2.532,0,0,0-2.748-2.753h-2.749a2.536,2.536,0,0,0-2.75,2.753v47.515q0,5.509,2.609,8.714t8.481,3.208h1.285a2.533,2.533,0,0,0,2.748-2.749v-2.291a2.535,2.535,0,0,0-2.748-2.754Z" transform="translate(-5664.855 -3033.308)" fill="#fff"/>
      <path id="Path_12" data-name="Path 12" d="M5884.455,3134.177a2.689,2.689,0,0,0-1.983-.721H5869.05a17.277,17.277,0,0,0-12.4,4.992,16.132,16.132,0,0,0-3.559,5.442,17.864,17.864,0,0,0-1.252,6.658v8a19.412,19.412,0,0,0,1.077,6.614,15.846,15.846,0,0,0,2.975,5.173,12.925,12.925,0,0,0,4.5,3.327,13.966,13.966,0,0,0,5.767,1.174,14.961,14.961,0,0,0,5.988-1.084,8.951,8.951,0,0,0,3.736-2.787.686.686,0,0,1,.768-.314c.4.124.4,1.211.4,1.566a2.647,2.647,0,0,0,.722,1.8,2.52,2.52,0,0,0,1.983.809h2.7a2.491,2.491,0,0,0,2.7-2.7v-35.979A2.692,2.692,0,0,0,5884.455,3134.177Zm-7.393,23.024a11.346,11.346,0,0,1-.586,3.649,10.124,10.124,0,0,1-1.752,3.192,8.638,8.638,0,0,1-2.927,2.294,9.489,9.489,0,0,1-4.192.853,7.339,7.339,0,0,1-5.63-2.161,7.831,7.831,0,0,1-2.029-5.573v-8.907a9.694,9.694,0,0,1,2.48-6.658,8.833,8.833,0,0,1,6.979-2.787h6.763a.789.789,0,0,1,.894.9Z" transform="translate(-5725.276 -3112.636)" fill="#fff"/>
      <path id="Path_13" data-name="Path 13" d="M5290.1,3054.258h-3.8a2.929,2.929,0,0,0-3.12,2.215l-10.317,27.477q-.278.994-.911,1t-.917-1l-16.488-42.26h11.537a3.031,3.031,0,0,0,3.282-3.284v-1.638a3.03,3.03,0,0,0-3.282-3.279h-20.933c-1.762,0-2.554.885-1.906,2.525l22.789,57.151a3.5,3.5,0,0,0,1.228,1.963,3.738,3.738,0,0,0,2.051.5l5.175-.007a3.767,3.767,0,0,0,2.056-.5,3.531,3.531,0,0,0,1.229-1.963l14.21-36.36C5292.472,3055.1,5291.864,3054.258,5290.1,3054.258Z" transform="translate(-5243.018 -3033.45)" fill="#fff"/>
    </g>
  </g>
</svg>
