<svg xmlns="http://www.w3.org/2000/svg" xmlns:xlink="http://www.w3.org/1999/xlink" width="362.205" height="257.44" viewBox="0 0 362.205 257.44">
  <defs>
    <clipPath id="clip-path">
      <rect id="Rectangle_941" data-name="Rectangle 941" width="362.205" height="257.44" fill="none"/>
    </clipPath>
  </defs>
  <g id="Group_553" data-name="Group 553" transform="translate(0 0)">
    <g id="Group_531" data-name="Group 531" transform="translate(0 0)" clip-path="url(#clip-path)">
      <path id="Path_23" data-name="Path 23" d="M95.864,28.165A28.163,28.163,0,1,1,67.7,0,28.164,28.164,0,0,1,95.864,28.165" transform="translate(161.368 0.002)" fill="#68b984"/>
      <path id="Path_24" data-name="Path 24" d="M116.523,28.165A28.163,28.163,0,1,1,88.358,0a28.164,28.164,0,0,1,28.165,28.165" transform="translate(245.682 0.002)" fill="#68b984"/>
      <path id="Path_25" data-name="Path 25" d="M95.864,47.954A28.163,28.163,0,1,1,67.7,19.789,28.164,28.164,0,0,1,95.864,47.954" transform="translate(161.368 80.765)" fill="#68b984"/>
      <path id="Path_26" data-name="Path 26" d="M116.523,47.954A28.163,28.163,0,1,1,88.358,19.789a28.164,28.164,0,0,1,28.165,28.165" transform="translate(245.682 80.765)" fill="#68b984"/>
      <path id="Path_27" data-name="Path 27" d="M95.864,67.744A28.163,28.163,0,1,1,67.7,39.579,28.164,28.164,0,0,1,95.864,67.744" transform="translate(161.368 161.532)" fill="#68b984"/>
      <path id="Path_28" data-name="Path 28" d="M116.523,67.744A28.163,28.163,0,1,1,88.358,39.579a28.164,28.164,0,0,1,28.165,28.165" transform="translate(245.682 161.532)" fill="#68b984"/>
      <path id="Path_29" data-name="Path 29" d="M56.325,28.165A28.163,28.163,0,1,1,28.16,0,28.164,28.164,0,0,1,56.325,28.165" transform="translate(0 0.002)" fill="#68b984"/>
      <path id="Path_30" data-name="Path 30" d="M76.984,28.165A28.163,28.163,0,1,1,48.819,0,28.164,28.164,0,0,1,76.984,28.165" transform="translate(84.314 0.002)" fill="#68b984"/>
      <path id="Path_31" data-name="Path 31" d="M56.325,47.954A28.163,28.163,0,1,1,28.16,19.789,28.164,28.164,0,0,1,56.325,47.954" transform="translate(0 80.765)" fill="#68b984"/>
      <path id="Path_32" data-name="Path 32" d="M76.984,47.954A28.163,28.163,0,1,1,48.819,19.789,28.164,28.164,0,0,1,76.984,47.954" transform="translate(84.314 80.765)" fill="#68b984"/>
      <path id="Path_33" data-name="Path 33" d="M56.325,67.744A28.163,28.163,0,1,1,28.16,39.579,28.164,28.164,0,0,1,56.325,67.744" transform="translate(0 161.532)" fill="#68b984"/>
      <path id="Path_34" data-name="Path 34" d="M76.984,67.744A28.163,28.163,0,1,1,48.819,39.579,28.164,28.164,0,0,1,76.984,67.744" transform="translate(84.314 161.532)" fill="#68b984"/>
    </g>
  </g>
</svg>
