<svg xmlns="http://www.w3.org/2000/svg" width="41.416" height="36.575" viewBox="0 0 41.416 36.575">
  <g id="Group_564" data-name="Group 564" transform="translate(-4.377 -393.868)">
    <path id="Path_135" data-name="Path 135" d="M45.787,397.514a3.517,3.517,0,0,0-1.5-2.95,4.044,4.044,0,0,0-2.507-.7c-7.55,0-24.585,0-32.319,0-.483-.008-.966-.006-1.448.017a3.574,3.574,0,0,0-3.63,3.823q-.006,15.723-.006,31.446c0,.492.069.947.552,1.177a1.15,1.15,0,0,0,1.322-.283c1.945-1.655,3.913-3.283,5.855-4.942a1.6,1.6,0,0,1,1.139-.408c1.851.02,3.7.008,5.552.008q11.587,0,23.174,0a3.6,3.6,0,0,0,3.813-3.655q.021-11.769,0-23.539M43.74,418.555l-.047,2.05c.132,1.347-.495,2.054-1.775,2.054q-14.605,0-29.209-.009a2.123,2.123,0,0,0-1.531.558c-.611.553-1.254,1.071-1.885,1.6-.916.771-1.834,1.539-2.861,2.4v-.536q0-14.516,0-29.031a1.555,1.555,0,0,1,1.674-1.709c.579-.017,1.159,0,1.737-.013,7.757,0,24.527,0,31.959,0,1.383,0,1.936.562,1.936,1.94v20.689Z" fill="#fff"/>
    <path id="Path_136" data-name="Path 136" d="M26.471,409.156c0-1.482-.005-2.964,0-4.447.005-1.122.357-1.475,1.455-1.481.58,0,1.16,0,1.74,0a5.253,5.253,0,0,1,5.514,5.372,6.187,6.187,0,0,1-1.307,4.639,4.891,4.891,0,0,1-3.394,1.755c-.877.056-1.76.049-2.64.044-.987-.006-1.357-.375-1.366-1.37-.014-1.5,0-3.008,0-4.512m2.2-3.648c0,2.344,0,4.7.012,7.06a.393.393,0,0,0,.278.262,3.926,3.926,0,0,0,2.876-.644,4.719,4.719,0,0,0,.781-5.136c-.713-1.341-2.062-1.883-3.947-1.542" fill="#fff"/>
    <path id="Path_137" data-name="Path 137" d="M23.681,413.778c-.035.7-.272,1.106-.84,1.222a1.029,1.029,0,0,1-1.258-.646,14.6,14.6,0,0,1-.542-1.582.572.572,0,0,0-.669-.5c-.707.035-1.419-.017-2.125.028a.758.758,0,0,0-.531.38c-.216.464-.345.967-.522,1.45-.283.774-.826,1.077-1.482.84a1.135,1.135,0,0,1-.587-1.564c.775-2.317,1.564-4.63,2.348-6.945q.381-1.127.758-2.255c.183-.548.472-.969,1.126-.965s.945.437,1.126.976q1.25,3.72,2.489,7.442c.25.751.5,1.5.709,2.123m-5.1-3.722H20.12c-.247-.727-.477-1.4-.706-2.076l-.142.032-.7,2.044" fill="#fff"/>
  </g>
</svg>
