<svg xmlns="http://www.w3.org/2000/svg" width="40.063" height="40.07" viewBox="0 0 40.063 40.07">
  <g id="Group_566" data-name="Group 566" transform="translate(-1.32 -82.074)">
    <path id="Path_113" data-name="Path 113" d="M20.349,86.029c0-.892-.032-1.842.018-2.789a1.657,1.657,0,0,1,.389-.923.81.81,0,0,1,.982-.144.945.945,0,0,1,.61.9c.011.844.006,1.688.008,2.532,0,.166,0,.332,0,.5a16.254,16.254,0,0,1,15.02,15.016h1.739c.384,0,.768-.007,1.151,0a1.007,1.007,0,1,1,.01,2c-.965.011-1.93,0-2.841,0-1.316,8.759-6.3,13.75-15.079,15.08v1.665c0,.369,0,.737,0,1.105-.011.721-.408,1.179-1.01,1.175s-.99-.46-.995-1.189c-.006-.934,0-1.869,0-2.758C11.6,116.886,6.6,111.9,5.264,103.12H3.288c-.322,0-.645.01-.966-.007a1,1,0,0,1-1-.994.986.986,0,0,1,.994-1c.874-.023,1.75-.008,2.625-.011.121,0,.242-.01.33-.014,1.3-8.73,6.289-13.719,15.08-15.068m1.014,2.064a14.023,14.023,0,1,0,14.014,14.043A14.039,14.039,0,0,0,21.363,88.093" fill="#fff"/>
    <path id="Path_115" data-name="Path 115" d="M29.39,102.109a8.037,8.037,0,1,1-8.038-8.038A8.038,8.038,0,0,1,29.39,102.109Z" fill="none" stroke="#fff" stroke-miterlimit="10" stroke-width="0.985"/>
  </g>
</svg>
