<svg xmlns="http://www.w3.org/2000/svg" width="53.738" height="45.196" viewBox="0 0 53.738 45.196">
  <g id="Group_535" data-name="Group 535" transform="translate(-20406.789 -2432.032)">
    <rect id="Rectangle_944" data-name="Rectangle 944" width="4.067" height="6.926" transform="translate(20433.332 2443.086)" fill="#78b889"/>
    <path id="Path_50" data-name="Path 50" d="M56.47,33.944a21.544,21.544,0,0,1-.249,3,4.666,4.666,0,0,1-4.767,3.671,1.34,1.34,0,0,0-1.519.956,5.945,5.945,0,0,1-5.734,3.61,6.05,6.05,0,0,1-5.562-4.152.506.506,0,0,0-.571-.4q-8.819.012-17.637,0a.5.5,0,0,0-.559.416A6.074,6.074,0,0,1,8.4,41.159a.675.675,0,0,0-.73-.543A4.826,4.826,0,0,1,2.74,35.585c-.007-.985-.014-1.971,0-2.957A4.632,4.632,0,0,1,5.98,28.146c2.545-.787,5.128-1.459,7.7-2.144a2.191,2.191,0,0,0,1.271-.866c1.413-1.892,2.856-3.761,4.29-5.637a6.027,6.027,0,0,1,4.983-2.509q8.046-.024,16.094,0a5.973,5.973,0,0,1,5.312,3.026q1.708,2.744,3.444,5.472a1.577,1.577,0,0,0,.62.551c1.185.565,2.385,1.1,3.583,1.637A4.854,4.854,0,0,1,56.4,32.46c0,.493,0,.986,0,1.479l.069.005M50.52,38.42c.332,0,.618,0,.9,0a2.593,2.593,0,0,0,2.758-2.793c0-1.068-.014-2.136,0-3.2a2.727,2.727,0,0,0-1.8-2.734c-1.35-.6-2.7-1.206-4.025-1.857a2.334,2.334,0,0,1-.9-.789q-1.855-2.87-3.639-5.785a4.111,4.111,0,0,0-3.845-2.08c-5.056.033-10.114.045-15.17-.006a4.74,4.74,0,0,0-4.187,2.111c-1.433,1.979-2.936,3.908-4.448,5.827a2.308,2.308,0,0,1-1.08.73c-1.568.48-3.158.887-4.739,1.324-1.225.339-2.462.643-3.669,1.035A2.318,2.318,0,0,0,4.97,32.381c-.061,1.209-.053,2.424,0,3.634a2.521,2.521,0,0,0,3.046,2.331,6.165,6.165,0,0,1,6.113-5.354A5.937,5.937,0,0,1,17.8,34.224a6.092,6.092,0,0,1,2.385,4.162H38.313a6.147,6.147,0,0,1,12.207.034m-2.226.723a3.894,3.894,0,0,0-7.787-.128,3.894,3.894,0,0,0,7.787.128M10.212,39a3.9,3.9,0,1,0,4-3.808,3.87,3.87,0,0,0-4,3.808" transform="translate(20404.057 2432.046)" fill="#fff"/>
    <path id="Path_51" data-name="Path 51" d="M28.833,7.054a3.815,3.815,0,0,1,4.951.109" transform="translate(20404.057 2432.046)" fill="none" stroke="#78b889" stroke-miterlimit="10" stroke-width="0.985"/>
    <path id="Path_52" data-name="Path 52" d="M23.966,3.137s7.522-6.158,14.685.322" transform="translate(20404.057 2432.046)" fill="none" stroke="#78b889" stroke-miterlimit="10" stroke-width="0.985"/>
  </g>
</svg>
