<svg xmlns="http://www.w3.org/2000/svg" width="47.852" height="39.335" viewBox="0 0 47.852 39.335">
  <g id="Group_562" data-name="Group 562" transform="translate(-1.8 -547.824)">
    <path id="Path_142" data-name="Path 142" d="M26.964,548.356a23.789,23.789,0,0,1,17.329,9.122c-1.046,1.282-2.068,2.543-3.1,3.8q-6.576,8.006-13.153,16.01a3.068,3.068,0,0,1-3.208,1.12,2.932,2.932,0,0,1-2.284-2.194,2.986,2.986,0,0,1,1.019-3.22q6.651-5.028,13.326-10.024l1.92-1.447a15.874,15.874,0,0,0-3.645-3.459,16.6,16.6,0,0,0-7.732-2.849c-.288-.032-.481-.068-.479-.432C26.97,552.686,26.964,550.592,26.964,548.356Z" fill="none" stroke="#fff" stroke-miterlimit="10" stroke-width="0.985"/>
    <path id="Path_143" data-name="Path 143" d="M45.81,559.717a21.722,21.722,0,0,1,2.706,6.6,23.26,23.26,0,0,1-4.063,19.552,1.327,1.327,0,0,1-2.223.29q-1.485-1.223-2.936-2.486a1.288,1.288,0,0,1-.2-1.972,16.339,16.339,0,0,0,2.134-15.925.7.7,0,0,1,.031-.57c1.459-1.816,2.94-3.614,4.418-5.415C45.7,559.763,45.743,559.753,45.81,559.717Z" fill="none" stroke="#fff" stroke-miterlimit="10" stroke-width="0.985"/>
    <path id="Path_144" data-name="Path 144" d="M8.25,556.189,13.041,561a16.644,16.644,0,0,0-3.949,9.452H2.322A23,23,0,0,1,8.25,556.189Z" fill="none" stroke="#fff" stroke-miterlimit="10" stroke-width="0.985"/>
    <path id="Path_145" data-name="Path 145" d="M14.928,559.086,10.159,554.3a23.339,23.339,0,0,1,14.2-5.925,3.62,3.62,0,0,1,.069.477c0,1.924,0,3.848.007,5.772,0,.333-.03.543-.46.587a16.155,16.155,0,0,0-8.485,3.443C15.305,558.8,15.118,558.94,14.928,559.086Z" fill="none" stroke="#fff" stroke-miterlimit="10" stroke-width="0.985"/>
    <path id="Path_146" data-name="Path 146" d="M2.381,573.064H9c.231,1.1.417,2.185.691,3.249a15.822,15.822,0,0,0,2.583,5.326,1.336,1.336,0,0,1-.215,2.116c-.989.848-1.978,1.7-2.99,2.517a1.217,1.217,0,0,1-1.948-.2,23.146,23.146,0,0,1-4.784-12.82A.886.886,0,0,1,2.381,573.064Z" fill="none" stroke="#fff" stroke-miterlimit="10" stroke-width="0.985"/>
  </g>
</svg>
