<svg xmlns="http://www.w3.org/2000/svg" width="40.595" height="31.294" viewBox="0 0 40.595 31.294">
  <g id="Group_563" data-name="Group 563" transform="translate(-3.923 -329.056)">
    <path id="Path_129" data-name="Path 129" d="M9.874,355.258c.674-2.116,2.031-3.406,4.3-3.361,2.154.044,3.438,1.322,4.084,3.361H43.319c.834,0,1.194.259,1.193.85s-.385.859-1.2.859q-12.189,0-24.377-.009c-.488,0-.734.093-.918.606a4.2,4.2,0,0,1-7.929-.069.674.674,0,0,0-.791-.535c-1.418.023-2.838.032-4.256-.009a1.49,1.49,0,0,1-.954-.4.888.888,0,0,1-.037-.845,1.118,1.118,0,0,1,.8-.431c1.456-.041,2.915-.019,4.373-.019h.651m6.706.836a2.517,2.517,0,1,0-2.488,2.545,2.488,2.488,0,0,0,2.488-2.545" fill="#fff"/>
    <path id="Path_131" data-name="Path 131" d="M17.391,343.851q6.127,0,12.254,0c.361,0,.577-.04.717-.461a4.205,4.205,0,0,1,8-.059.639.639,0,0,0,.732.525c1.458-.025,2.917-.011,4.376-.009.453,0,.864.091,1.009.6.179.632-.214,1.088-.973,1.1-1.439.014-2.879.026-4.318-.007a.75.75,0,0,0-.86.6,4.2,4.2,0,0,1-7.91.009c-.181-.51-.419-.609-.911-.608q-12.078.024-24.157.01a5.077,5.077,0,0,1-.641-.014.84.84,0,0,1,.024-1.677,5.388,5.388,0,0,1,.583-.012H17.391m14.465.836a2.517,2.517,0,1,0,2.517-2.515,2.5,2.5,0,0,0-2.517,2.515" fill="#fff"/>
    <g id="Group_560" data-name="Group 560">
      <path id="Path_133" data-name="Path 133" d="M35.314,334.148c-2.683,0-5.366.006-8.049-.007a.651.651,0,0,0-.754.5,4.2,4.2,0,0,1-7.983-.009c-.15-.434-.374-.491-.758-.49q-6.242.014-12.481.005c-.175,0-.35,0-.525,0a.79.79,0,0,1-.837-.792.817.817,0,0,1,.791-.9,4.7,4.7,0,0,1,.582-.016c4.141,0,8.282-.007,12.423.009a.719.719,0,0,0,.833-.554,4.192,4.192,0,0,1,7.941.022.684.684,0,0,0,.791.532q7.932-.023,15.864-.007a3.24,3.24,0,0,1,.751.059.839.839,0,0,1-.076,1.63,3.517,3.517,0,0,1-.582.019H35.314m-12.857,1.671a2.527,2.527,0,0,0,.165-5.052,2.528,2.528,0,1,0-.165,5.052" fill="#fff"/>
    </g>
  </g>
</svg>
