<svg xmlns="http://www.w3.org/2000/svg" width="46.179" height="45.577" viewBox="0 0 46.179 45.577">
  <g id="Group_542" data-name="Group 542" transform="translate(-20412.257 -2980.146)">
    <path id="Path_109" data-name="Path 109" d="M53.881,568.327a15.971,15.971,0,0,1-.6,2.032c-.51,1.159-1.179,2.25-1.656,3.42a5.753,5.753,0,0,0-.443,2.232,29.786,29.786,0,0,0,.393,3.724,4.694,4.694,0,0,1-2.588,4.97c-1.146.539-2.32,1.019-3.486,1.514a4.965,4.965,0,0,0-2.288,2q-.914,1.445-1.877,2.857a4.594,4.594,0,0,1-5.175,1.87q-1.777-.5-3.541-1.039a4.568,4.568,0,0,0-2.762.015q-1.763.543-3.541,1.04a4.593,4.593,0,0,1-5.087-1.846c-.646-.939-1.27-1.894-1.879-2.857a5.055,5.055,0,0,0-2.371-2.062c-1.085-.45-2.166-.912-3.237-1.4a4.681,4.681,0,0,1-2.769-5.122c.168-1.163.275-2.335.393-3.505a4.4,4.4,0,0,0-.475-2.509c-.547-1.061-1.088-2.126-1.607-3.2a4.668,4.668,0,0,1,1.08-5.682c.82-.765,1.632-1.54,2.457-2.3a4.886,4.886,0,0,0,1.461-2.54q.367-1.554.715-3.112a4.765,4.765,0,0,1,4.669-3.932c1.047-.051,2.094-.11,3.142-.145a5.639,5.639,0,0,0,3.346-1.393c.808-.637,1.634-1.254,2.479-1.841a4.526,4.526,0,0,1,5.271,0c1.042.723,2.048,1.5,3.063,2.258a5,5,0,0,0,2.873.976c1.213.052,2.429.088,3.634.218a4.594,4.594,0,0,1,3.979,3.541q.4,1.632.763,3.271a5.058,5.058,0,0,0,1.541,2.738c.815.744,1.612,1.507,2.416,2.263A5.245,5.245,0,0,1,53.881,568.327Zm-37.952,2.6a15.334,15.334,0,1,0,15.316-15.346A15.331,15.331,0,0,0,15.929,570.931Z" transform="translate(20404.057 2432.046)" fill="none" stroke="#fff" stroke-miterlimit="10" stroke-width="0.985"/>
    <path id="Path_110" data-name="Path 110" d="M29.312,572.021c-.826-.83-1.719-1.752-2.641-2.642a3.936,3.936,0,0,0-1.095-.809,1.992,1.992,0,0,0-2.415.795,2.031,2.031,0,0,0,.3,2.62c1.411,1.423,2.833,2.833,4.247,4.252a2.14,2.14,0,0,0,3.475-.01c1.368-1.386,2.745-2.764,4.115-4.148q1.881-1.9,3.752-3.81a2.052,2.052,0,1,0-2.877-2.926c-.121.112-.233.234-.351.349Z" transform="translate(20404.057 2432.046)" fill="none" stroke="#fff" stroke-miterlimit="10" stroke-width="0.985"/>
  </g>
</svg>
