<svg xmlns="http://www.w3.org/2000/svg" width="25.921" height="36.554" viewBox="0 0 25.921 36.554">
  <path id="Path_114" data-name="Path 114" d="M9.093,177.955a12.254,12.254,0,0,1,24.2-2.626c.862,3.665-.127,6.966-1.973,10.08-3.741,6.311-6.257,7.545-8.395,13.208-.231.614-.836,2.311-1.623,2.3-.755-.011-1.285-1.587-1.537-2.277-1.848-5.054-4.826-6.6-8.949-14.132A13.438,13.438,0,0,1,9.093,177.955Zm17.506.177a5.27,5.27,0,1,0-5.33,5.217A5.3,5.3,0,0,0,26.6,178.132Z" transform="translate(-8.387 -165.07)" fill="none" stroke="#fff" stroke-miterlimit="10" stroke-width="1.412"/>
</svg>
