<svg xmlns="http://www.w3.org/2000/svg" width="51.449" height="26.825" viewBox="0 0 51.449 26.825">
  <g id="Group_543" data-name="Group 543" transform="translate(-20413.401 -3074.378)">
    <path id="Path_111" data-name="Path 111" d="M37.222,668.647V642.886a3.933,3.933,0,0,1,.526-.061c3.722.083,7.449.069,11.162.286a11.527,11.527,0,0,1,9.268,5.035,12.687,12.687,0,0,1,2.123,7.311c.027,4.243-1.266,7.9-4.8,10.52a10.791,10.791,0,0,1-5.766,2.2C45.6,668.434,41.461,668.5,37.222,668.647Zm6.926-20.221v14.455c1.571-.177,3.093-.223,4.556-.54a5.168,5.168,0,0,0,4.281-4.642,15.521,15.521,0,0,0,.143-3.106c-.167-2.918-1.634-4.913-4.221-5.538A43.928,43.928,0,0,0,44.148,648.426Z" transform="translate(20404.057 2432.046)" fill="none" stroke="#fff" stroke-miterlimit="10" stroke-width="0.985"/>
    <path id="Path_112" data-name="Path 112" d="M16.8,668.466H9.837V642.887H16.78v9.863H26.1v-9.882h7v25.577H26.145V658.118H16.8Z" transform="translate(20404.057 2432.046)" fill="none" stroke="#fff" stroke-miterlimit="10" stroke-width="0.985"/>
  </g>
</svg>
