<svg xmlns="http://www.w3.org/2000/svg" width="54.43" height="43.966" viewBox="0 0 54.43 43.966">
  <path id="Path_147" data-name="Path 147" d="M51.815,627.686a14.393,14.393,0,0,0,1.81,5.18,10.733,10.733,0,0,1,1.384,4.688,5.812,5.812,0,0,1-1.841,4.421c-.321.3-.632.621-.978.893-.7.554-1.279.384-1.593-.445-.049-.131-.088-.267-.13-.4-.124-.387-.23-.815-.754-.795a1.143,1.143,0,0,0-1.135.748,4.494,4.494,0,0,0-.15,1.3c-.015.96.066,1.926,0,2.881a3.341,3.341,0,0,0,1.811,3.609c.57.289.63.768.094,1.117a3.287,3.287,0,0,1-1.537.557c-1.956.1-2.68.514-3.142,2.409-.683,2.8-1.91,5.4-2.822,8.11a31.406,31.406,0,0,0-1.028,4.433c-.175.967-.473,1.383-1.476,1.324-1.16-.069-2.315-.234-3.468-.388-3.779-.5-7.555-1.025-11.333-1.53q-5.368-.719-10.74-1.417a5.3,5.3,0,0,1-3.462-2.2C8.518,658.693,5.7,655.214,2.9,651.717a1.745,1.745,0,0,1-.328-.913c-.049-.638.013-1.285-.025-1.925-.024-.417.158-.566.522-.64a1.451,1.451,0,0,1,1.789.943c.076.185.134.378.2.568a2.734,2.734,0,0,0,3.794,1.986,14.39,14.39,0,0,0,1.894-.764,16.015,16.015,0,0,1,8.958-1.116c1.31.168,2.606.454,3.907.7a1.523,1.523,0,0,0,1.991-1.07,1.3,1.3,0,0,1,2.133-.522c1.55,1.27,2.975,1.307,4.257.081a6.659,6.659,0,0,0,.889-1.057A39.18,39.18,0,0,1,35.31,644.4a45.138,45.138,0,0,1,4.335-4.422c2.789-2.456,5.556-4.928,8.092-7.651,1.024-1.1,2.122-2.131,3.147-3.23A10.487,10.487,0,0,0,51.815,627.686Z" transform="translate(-1.564 -624.739)" fill="none" stroke="#fff" stroke-miterlimit="10" stroke-width="1.97"/>
</svg>
