<svg xmlns="http://www.w3.org/2000/svg" width="45.912" height="46.994" viewBox="0 0 45.912 46.994">
  <g id="Group_536" data-name="Group 536" transform="translate(-20410.722 -2513.463)">
    <rect id="Rectangle_945" data-name="Rectangle 945" width="7.607" height="12.932" transform="translate(20411.215 2547.032)" fill="none" stroke="#fff" stroke-miterlimit="10" stroke-width="0.985"/>
    <rect id="Rectangle_946" data-name="Rectangle 946" width="7.607" height="20.889" transform="translate(20436.123 2539.074)" fill="none" stroke="#fff" stroke-miterlimit="10" stroke-width="0.985"/>
    <rect id="Rectangle_947" data-name="Rectangle 947" width="7.607" height="25" transform="translate(20423.672 2534.963)" fill="none" stroke="#fff" stroke-miterlimit="10" stroke-width="0.985"/>
    <rect id="Rectangle_948" data-name="Rectangle 948" width="7.607" height="32.677" transform="translate(20448.535 2527.286)" fill="none" stroke="#fff" stroke-miterlimit="10" stroke-width="0.985"/>
    <path id="Path_53" data-name="Path 53" d="M9.824,100.328,24.735,86.262l11.177,7.467L49.33,83.5" transform="translate(20404.057 2432.046)" fill="none" stroke="#fff" stroke-miterlimit="10" stroke-width="0.935"/>
    <path id="Path_54" data-name="Path 54" d="M12.466,99.461a2.084,2.084,0,1,1-2.084-2.084,2.084,2.084,0,0,1,2.084,2.084" transform="translate(20404.057 2432.046)" fill="#fff"/>
    <path id="Path_55" data-name="Path 55" d="M26.777,86.142a2.084,2.084,0,1,1-2.084-2.084,2.084,2.084,0,0,1,2.084,2.084" transform="translate(20404.057 2432.046)" fill="#fff"/>
    <path id="Path_56" data-name="Path 56" d="M37.954,93.623a2.084,2.084,0,1,1-2.084-2.084,2.084,2.084,0,0,1,2.084,2.084" transform="translate(20404.057 2432.046)" fill="#fff"/>
    <path id="Path_57" data-name="Path 57" d="M51.414,83.5a2.084,2.084,0,1,1-2.084-2.084A2.084,2.084,0,0,1,51.414,83.5" transform="translate(20404.057 2432.046)" fill="#fff"/>
  </g>
</svg>
