<svg xmlns="http://www.w3.org/2000/svg" width="37.061" height="37.065" viewBox="0 0 37.061 37.065">
  <g id="Group_539" data-name="Group 539" transform="translate(-20416.8 -2763.827)">
    <path id="Path_98" data-name="Path 98" d="M21.595,335.78a3.317,3.317,0,0,1,2.591,1.157.587.587,0,0,0,.845.147,8.494,8.494,0,0,1,1.373-.571.516.516,0,0,0,.433-.613,3.289,3.289,0,0,1,1.01-2.7,2.92,2.92,0,0,1,1.914-.893,19.238,19.238,0,0,1,3.266.061,3.168,3.168,0,0,1,2.689,3.158c.017.82.02.816.78,1.111a6.692,6.692,0,0,1,.985.427.614.614,0,0,0,.913-.153,3.3,3.3,0,0,1,4.648-.316c.585.526,1.132,1.1,1.687,1.656a3.3,3.3,0,0,1-.035,4.928.66.66,0,0,0-.163.945A4.439,4.439,0,0,1,45,345.267c.128.522.409.641.913.613a3.116,3.116,0,0,1,2.514,1.051,2.858,2.858,0,0,1,.847,1.848,18.708,18.708,0,0,1-.056,3.264A3.165,3.165,0,0,1,46,354.756c-.754.012-.749.014-1.025.721a8.388,8.388,0,0,1-.478,1.1.557.557,0,0,0,.139.811,3.264,3.264,0,0,1,1.119,3.091,3.386,3.386,0,0,1-1.024,1.9c-.461.457-.918.919-1.379,1.378a3.294,3.294,0,0,1-4.927-.012.676.676,0,0,0-.98-.162,4.956,4.956,0,0,1-1.145.473.692.692,0,0,0-.593.841,3.113,3.113,0,0,1-.979,2.5,3.157,3.157,0,0,1-2.274.948,19.908,19.908,0,0,1-2.974-.094,3.178,3.178,0,0,1-2.646-3.157c-.017-.817-.019-.813-.781-1.11a8.813,8.813,0,0,1-1.064-.459.531.531,0,0,0-.775.134,3.269,3.269,0,0,1-2.177,1.159,3.155,3.155,0,0,1-2.531-.792c-.595-.535-1.154-1.112-1.716-1.684a3.309,3.309,0,0,1,0-4.848c.46-.473.451-.469.182-1.065a10.053,10.053,0,0,1-.493-1.228.537.537,0,0,0-.642-.453,3.268,3.268,0,0,1-2.693-1.027,2.89,2.89,0,0,1-.874-1.879,18.513,18.513,0,0,1,.058-3.264,3.161,3.161,0,0,1,3.224-2.71c.75-.011.746-.013,1.024-.723a8.191,8.191,0,0,1,.476-1.1.555.555,0,0,0-.139-.811,3.105,3.105,0,0,1-1.1-3.085,4.049,4.049,0,0,1,.771-1.612,19.525,19.525,0,0,1,1.889-1.917,3.117,3.117,0,0,1,2.119-.842m.068,27.046a5.709,5.709,0,0,0,.88-.494c.353-.288.651-.638.978-.957a1.163,1.163,0,0,1,1.5-.22c1.015.456,2.047.88,3.085,1.283a1.074,1.074,0,0,1,.818,1.1c.008.47,0,.94,0,1.41a1.2,1.2,0,0,0,1.266,1.287q1.077.024,2.156,0a1.2,1.2,0,0,0,1.263-1.289c.009-.5-.006-1,.008-1.493a.982.982,0,0,1,.739-.986,14.42,14.42,0,0,0,3.243-1.339,1.049,1.049,0,0,1,1.393.217c.337.327.66.67,1,.993a1.194,1.194,0,0,0,1.772-.007q.774-.75,1.525-1.524a1.193,1.193,0,0,0,0-1.773c-.312-.332-.644-.646-.963-.972a1.153,1.153,0,0,1-.219-1.5q.678-1.5,1.271-3.047a1.091,1.091,0,0,1,1.155-.858c.456,0,.914.006,1.369,0a1.2,1.2,0,0,0,1.287-1.267q.022-1.077,0-2.156a1.2,1.2,0,0,0-1.29-1.262c-.5-.009-1,.007-1.493-.008a.985.985,0,0,1-.986-.741,14.508,14.508,0,0,0-1.34-3.243,1.046,1.046,0,0,1,.221-1.391c.327-.337.669-.659.992-1a1.194,1.194,0,0,0-.01-1.772q-.75-.775-1.524-1.524a1.193,1.193,0,0,0-1.773,0c-.33.315-.643.647-.969.965a1.161,1.161,0,0,1-1.505.217q-1.5-.678-3.047-1.27a1.092,1.092,0,0,1-.856-1.157c0-.456.006-.913,0-1.368a1.2,1.2,0,0,0-1.268-1.286q-1.077-.023-2.156,0a1.2,1.2,0,0,0-1.262,1.29c-.008.5.006.995-.008,1.492a.982.982,0,0,1-.74.986,14.561,14.561,0,0,0-3.243,1.339,1.051,1.051,0,0,1-1.392-.218c-.337-.327-.66-.67-1-.993a1.191,1.191,0,0,0-1.771.008q-.774.752-1.525,1.525a1.193,1.193,0,0,0,0,1.772c.316.33.646.644.965.97a1.16,1.16,0,0,1,.219,1.5c-.457,1.016-.879,2.048-1.284,3.086a1.072,1.072,0,0,1-1.1.818c-.47.008-.94,0-1.41,0a1.2,1.2,0,0,0-1.287,1.265c-.016.718-.016,1.438,0,2.156a1.2,1.2,0,0,0,1.29,1.264c.5.009.994-.006,1.491.008a.979.979,0,0,1,.988.739,14.408,14.408,0,0,0,1.338,3.243,1.051,1.051,0,0,1-.216,1.392c-.327.338-.67.661-.993,1a1.19,1.19,0,0,0,.005,1.771c.5.516,1,1.038,1.531,1.517a4.824,4.824,0,0,0,.88.5" transform="translate(20404.057 2432.046)" fill="#fff"/>
    <path id="Path_99" data-name="Path 99" d="M21.595,335.78a3.317,3.317,0,0,1,2.591,1.157.587.587,0,0,0,.845.147,8.494,8.494,0,0,1,1.373-.571.516.516,0,0,0,.433-.613,3.289,3.289,0,0,1,1.01-2.7,2.92,2.92,0,0,1,1.914-.893,19.238,19.238,0,0,1,3.266.061,3.168,3.168,0,0,1,2.689,3.158c.017.82.02.816.78,1.111a6.692,6.692,0,0,1,.985.427.614.614,0,0,0,.913-.153,3.3,3.3,0,0,1,4.648-.316c.585.526,1.132,1.1,1.687,1.656a3.3,3.3,0,0,1-.035,4.928.66.66,0,0,0-.163.945A4.439,4.439,0,0,1,45,345.267c.128.522.409.641.913.613a3.116,3.116,0,0,1,2.514,1.051,2.858,2.858,0,0,1,.847,1.848,18.708,18.708,0,0,1-.056,3.264A3.165,3.165,0,0,1,46,354.756c-.754.012-.749.014-1.025.721a8.388,8.388,0,0,1-.478,1.1.557.557,0,0,0,.139.811,3.264,3.264,0,0,1,1.119,3.091,3.386,3.386,0,0,1-1.024,1.9c-.461.457-.918.919-1.379,1.378a3.294,3.294,0,0,1-4.927-.012.676.676,0,0,0-.98-.162,4.956,4.956,0,0,1-1.145.473.692.692,0,0,0-.593.841,3.113,3.113,0,0,1-.979,2.5,3.157,3.157,0,0,1-2.274.948,19.908,19.908,0,0,1-2.974-.094,3.178,3.178,0,0,1-2.646-3.157c-.017-.817-.019-.813-.781-1.11a8.813,8.813,0,0,1-1.064-.459.531.531,0,0,0-.775.134,3.269,3.269,0,0,1-2.177,1.159,3.155,3.155,0,0,1-2.531-.792c-.595-.535-1.154-1.112-1.716-1.684a3.309,3.309,0,0,1,0-4.848c.46-.473.451-.469.182-1.065a10.053,10.053,0,0,1-.493-1.228.537.537,0,0,0-.642-.453,3.268,3.268,0,0,1-2.693-1.027,2.89,2.89,0,0,1-.874-1.879,18.513,18.513,0,0,1,.058-3.264,3.161,3.161,0,0,1,3.224-2.71c.75-.011.746-.013,1.024-.723a8.191,8.191,0,0,1,.476-1.1.555.555,0,0,0-.139-.811,3.105,3.105,0,0,1-1.1-3.085,4.049,4.049,0,0,1,.771-1.612,19.525,19.525,0,0,1,1.889-1.917A3.117,3.117,0,0,1,21.595,335.78Zm.068,27.046a5.709,5.709,0,0,0,.88-.494c.353-.288.651-.638.978-.957a1.163,1.163,0,0,1,1.5-.22c1.015.456,2.047.88,3.085,1.283a1.074,1.074,0,0,1,.818,1.1c.008.47,0,.94,0,1.41a1.2,1.2,0,0,0,1.266,1.287q1.077.024,2.156,0a1.2,1.2,0,0,0,1.263-1.289c.009-.5-.006-1,.008-1.493a.982.982,0,0,1,.739-.986,14.42,14.42,0,0,0,3.243-1.339,1.049,1.049,0,0,1,1.393.217c.337.327.66.67,1,.993a1.194,1.194,0,0,0,1.772-.007q.774-.75,1.525-1.524a1.193,1.193,0,0,0,0-1.773c-.312-.332-.644-.646-.963-.972a1.153,1.153,0,0,1-.219-1.5q.678-1.5,1.271-3.047a1.091,1.091,0,0,1,1.155-.858c.456,0,.914.006,1.369,0a1.2,1.2,0,0,0,1.287-1.267q.022-1.077,0-2.156a1.2,1.2,0,0,0-1.29-1.262c-.5-.009-1,.007-1.493-.008a.985.985,0,0,1-.986-.741,14.508,14.508,0,0,0-1.34-3.243,1.046,1.046,0,0,1,.221-1.391c.327-.337.669-.659.992-1a1.194,1.194,0,0,0-.01-1.772q-.75-.775-1.524-1.524a1.193,1.193,0,0,0-1.773,0c-.33.315-.643.647-.969.965a1.161,1.161,0,0,1-1.505.217q-1.5-.678-3.047-1.27a1.092,1.092,0,0,1-.856-1.157c0-.456.006-.913,0-1.368a1.2,1.2,0,0,0-1.268-1.286q-1.077-.023-2.156,0a1.2,1.2,0,0,0-1.262,1.29c-.008.5.006.995-.008,1.492a.982.982,0,0,1-.74.986,14.561,14.561,0,0,0-3.243,1.339,1.051,1.051,0,0,1-1.392-.218c-.337-.327-.66-.67-1-.993a1.191,1.191,0,0,0-1.771.008q-.774.752-1.525,1.525a1.193,1.193,0,0,0,0,1.772c.316.33.646.644.965.97a1.16,1.16,0,0,1,.219,1.5c-.457,1.016-.879,2.048-1.284,3.086a1.072,1.072,0,0,1-1.1.818c-.47.008-.94,0-1.41,0a1.2,1.2,0,0,0-1.287,1.265c-.016.718-.016,1.438,0,2.156a1.2,1.2,0,0,0,1.29,1.264c.5.009.994-.006,1.491.008a.979.979,0,0,1,.988.739,14.408,14.408,0,0,0,1.338,3.243,1.051,1.051,0,0,1-.216,1.392c-.327.338-.67.661-.993,1a1.19,1.19,0,0,0,.005,1.771c.5.516,1,1.038,1.531,1.517A4.824,4.824,0,0,0,21.663,362.826Z" transform="translate(20404.057 2432.046)" fill="none" stroke="#050605" stroke-miterlimit="10" stroke-width="0.985"/>
    <path id="Path_100" data-name="Path 100" d="M31.29,342.465a7.848,7.848,0,1,1-7.864,7.842,7.85,7.85,0,0,1,7.864-7.842m5.717,7.858a5.733,5.733,0,1,0-5.723,5.723,5.733,5.733,0,0,0,5.723-5.723" transform="translate(20404.057 2432.046)" fill="#fff"/>
    <path id="Path_101" data-name="Path 101" d="M31.29,342.465a7.848,7.848,0,1,1-7.864,7.842A7.85,7.85,0,0,1,31.29,342.465Zm5.717,7.858a5.733,5.733,0,1,0-5.723,5.723A5.733,5.733,0,0,0,37.007,350.323Z" transform="translate(20404.057 2432.046)" fill="none" stroke="#050605" stroke-miterlimit="10" stroke-width="0.985"/>
  </g>
</svg>
