<svg xmlns="http://www.w3.org/2000/svg" width="22.135" height="36.916" viewBox="0 0 22.135 36.916">
  <g id="Group_538" data-name="Group 538" transform="translate(-20423.656 -2683.039)">
    <path id="Path_94" data-name="Path 94" d="M27.954,280.5c-.967-1.553-1.881-3-2.773-4.461a47.678,47.678,0,0,1-4.455-8.753,14.085,14.085,0,0,1-.872-7.924A10.986,10.986,0,0,1,29.36,251.1a11.2,11.2,0,0,1,11.265,5.856,11.034,11.034,0,0,1,.747,7.748,34.517,34.517,0,0,1-4.46,10.224c-1.012,1.7-2.086,3.359-3.131,5.038-.1.161-.178.335-.26.489,1.108.263,2.2.444,3.24.795a8.26,8.26,0,0,1,2.3,1.173,2.027,2.027,0,0,1-.042,3.462A9.126,9.126,0,0,1,35,287.466a21.5,21.5,0,0,1-9.75-.274,9.866,9.866,0,0,1-2.827-1.267c-1.462-.965-1.46-2.476-.08-3.567a9.825,9.825,0,0,1,4.405-1.661c.359-.07.723-.116,1.209-.193m2.713,1.413a4.758,4.758,0,0,0,.3-.381c1.566-2.506,3.17-4.989,4.683-7.527a32.686,32.686,0,0,0,4.154-9.439,9.673,9.673,0,0,0-.669-7.1A9.55,9.55,0,0,0,29.2,252.7a9.088,9.088,0,0,0-7.692,6.557c-.781,2.565-.19,5.081.687,7.526a52.017,52.017,0,0,0,5.137,9.789c1.1,1.769,2.2,3.536,3.33,5.346m.318,4.414c.522-.035,1.415-.055,2.3-.164a11.5,11.5,0,0,0,4.422-1.238c.963-.553,1.012-1.115.011-1.562a19.426,19.426,0,0,0-3.629-1.171c-1.528-.345-1.543-.275-2.349,1.1-.087.149-.171.3-.26.451-.473.8-1.1.791-1.581,0-.357-.585-.624-1.413-1.151-1.652a3.285,3.285,0,0,0-2.029.194,24.575,24.575,0,0,0-3.382,1.272c-.6.286-.573.687-.042,1.111a4.076,4.076,0,0,0,.951.555,17.583,17.583,0,0,0,6.743,1.1" transform="translate(20404.057 2432.046)" fill="#fff"/>
    <path id="Path_95" data-name="Path 95" d="M27.954,280.5c-.967-1.553-1.881-3-2.773-4.461a47.678,47.678,0,0,1-4.455-8.753,14.085,14.085,0,0,1-.872-7.924A10.986,10.986,0,0,1,29.36,251.1a11.2,11.2,0,0,1,11.265,5.856,11.034,11.034,0,0,1,.747,7.748,34.517,34.517,0,0,1-4.46,10.224c-1.012,1.7-2.086,3.359-3.131,5.038-.1.161-.178.335-.26.489,1.108.263,2.2.444,3.24.795a8.26,8.26,0,0,1,2.3,1.173,2.027,2.027,0,0,1-.042,3.462A9.126,9.126,0,0,1,35,287.466a21.5,21.5,0,0,1-9.75-.274,9.866,9.866,0,0,1-2.827-1.267c-1.462-.965-1.46-2.476-.08-3.567a9.825,9.825,0,0,1,4.405-1.661C27.1,280.627,27.468,280.581,27.954,280.5Zm2.713,1.413a4.758,4.758,0,0,0,.3-.381c1.566-2.506,3.17-4.989,4.683-7.527a32.686,32.686,0,0,0,4.154-9.439,9.673,9.673,0,0,0-.669-7.1A9.55,9.55,0,0,0,29.2,252.7a9.088,9.088,0,0,0-7.692,6.557c-.781,2.565-.19,5.081.687,7.526a52.017,52.017,0,0,0,5.137,9.789C28.435,278.34,29.539,280.107,30.667,281.917Zm.318,4.414c.522-.035,1.415-.055,2.3-.164a11.5,11.5,0,0,0,4.422-1.238c.963-.553,1.012-1.115.011-1.562a19.426,19.426,0,0,0-3.629-1.171c-1.528-.345-1.543-.275-2.349,1.1-.087.149-.171.3-.26.451-.473.8-1.1.791-1.581,0-.357-.585-.624-1.413-1.151-1.652a3.285,3.285,0,0,0-2.029.194,24.575,24.575,0,0,0-3.382,1.272c-.6.286-.573.687-.042,1.111a4.076,4.076,0,0,0,.951.555A17.583,17.583,0,0,0,30.985,286.331Z" transform="translate(20404.057 2432.046)" fill="none" stroke="#fff" stroke-miterlimit="10" stroke-width="0.008"/>
    <path id="Path_96" data-name="Path 96" d="M30.669,257.314a4.441,4.441,0,1,1-4.436,4.431,4.424,4.424,0,0,1,4.436-4.431m.016,1.561a2.885,2.885,0,0,0-2.915,2.872,2.9,2.9,0,0,0,5.8.031,2.887,2.887,0,0,0-2.885-2.9" transform="translate(20404.057 2432.046)" fill="#fff"/>
    <path id="Path_97" data-name="Path 97" d="M30.669,257.314a4.441,4.441,0,1,1-4.436,4.431A4.424,4.424,0,0,1,30.669,257.314Zm.016,1.561a2.885,2.885,0,0,0-2.915,2.872,2.9,2.9,0,0,0,5.8.031A2.887,2.887,0,0,0,30.685,258.875Z" transform="translate(20404.057 2432.046)" fill="none" stroke="#fff" stroke-miterlimit="10" stroke-width="0.008"/>
  </g>
</svg>
