<svg xmlns="http://www.w3.org/2000/svg" width="59.01" height="30.072" viewBox="0 0 59.01 30.072">
  <g id="Group_541" data-name="Group 541" transform="translate(-20404.057 -2904.689)">
    <path id="Path_106" data-name="Path 106" d="M30.214,495.49,21.7,499.967l1.626-9.483-6.89-6.716,9.522-1.383,4.258-8.629,4.258,8.629,9.522,1.383-6.89,6.716,1.626,9.483Z" transform="translate(20404.057 2432.046)" fill="none" stroke="#fff" stroke-miterlimit="10" stroke-width="0.985"/>
    <path id="Path_107" data-name="Path 107" d="M52.433,500.578l-4.065,2.137.777-4.526-3.289-3.206,4.545-.66,2.032-4.118,2.032,4.118,4.545.66-3.289,3.206.777,4.526Z" transform="translate(20404.057 2432.046)" fill="#fff"/>
    <path id="Path_108" data-name="Path 108" d="M6.577,500.578l-4.065,2.137.777-4.526L0,494.983l4.545-.66,2.032-4.118,2.032,4.118,4.545.66-3.289,3.206.777,4.526Z" transform="translate(20404.057 2432.046)" fill="#fff"/>
  </g>
</svg>
