<svg xmlns="http://www.w3.org/2000/svg" width="45.259" height="32.605" viewBox="0 0 45.259 32.605">
  <g id="Group_561" data-name="Group 561" transform="translate(-3.178 -470.891)">
    <path id="Path_138" data-name="Path 138" d="M47.919,481.8a1.665,1.665,0,0,1-.97,1.325,1.449,1.449,0,0,1-1.576-.373c-1.287-1.167-2.519-2.415-3.911-3.443a25.83,25.83,0,0,0-13.134-4.994A26.486,26.486,0,0,0,11.1,478.535,25.543,25.543,0,0,0,6.151,482.7a1.408,1.408,0,0,1-1.46.47,1.29,1.29,0,0,1-.974-1,1.432,1.432,0,0,1,.465-1.418,28.8,28.8,0,0,1,11.674-7.636,29.164,29.164,0,0,1,22.61,1.176,28.423,28.423,0,0,1,8.816,6.459A5.942,5.942,0,0,1,47.919,481.8Z" fill="none" stroke="#fff" stroke-miterlimit="10" stroke-width="0.985"/>
    <path id="Path_139" data-name="Path 139" d="M41.632,488.038a1.572,1.572,0,0,1-.922,1.334,1.457,1.457,0,0,1-1.584-.344,28.147,28.147,0,0,0-3.027-2.681,17.494,17.494,0,0,0-16.339-2.283,17.492,17.492,0,0,0-7.211,4.735,2.306,2.306,0,0,1-.892.622,1.279,1.279,0,0,1-1.5-.566,1.3,1.3,0,0,1,.16-1.679,33.248,33.248,0,0,1,3.228-2.913,19.978,19.978,0,0,1,14.02-3.924,20.259,20.259,0,0,1,13.5,6.727A5.216,5.216,0,0,1,41.632,488.038Z" fill="none" stroke="#fff" stroke-miterlimit="10" stroke-width="0.985"/>
    <path id="Path_140" data-name="Path 140" d="M26.748,489.12a11.269,11.269,0,0,1,8.085,4.239,1.433,1.433,0,0,1,.27,1.679,1.246,1.246,0,0,1-1.446.674,2.191,2.191,0,0,1-.978-.648,9.136,9.136,0,0,0-13.826-.054,2.458,2.458,0,0,1-1.005.7,1.227,1.227,0,0,1-1.432-.6,1.381,1.381,0,0,1,.156-1.646,11.61,11.61,0,0,1,3.434-2.88A12.709,12.709,0,0,1,26.748,489.12Z" fill="none" stroke="#fff" stroke-miterlimit="10" stroke-width="0.985"/>
    <path id="Path_141" data-name="Path 141" d="M28.78,500.006a2.986,2.986,0,1,1-3.019-2.97A3,3,0,0,1,28.78,500.006Z" fill="none" stroke="#fff" stroke-miterlimit="10" stroke-width="0.985"/>
  </g>
</svg>
