<svg xmlns="http://www.w3.org/2000/svg" width="39.842" height="39.706" viewBox="0 0 39.842 39.706">
  <g id="Group_565" data-name="Group 565" transform="translate(-3.766 -2.011)">
    <g id="Group_562" data-name="Group 562">
      <path id="Path_116" data-name="Path 116" d="M29.856,12.951c.176,1.725.35,3.4.514,5.071a.964.964,0,0,1-.865,1.189c-.582.03-.965-.4-1.035-1.063-.165-1.566-.36-3.129-.539-4.694-.025-.218-.053-.366-.355-.344a77.775,77.775,0,0,1-10.653-.072c-.23,2.173-.459,4.343-.7,6.6H26.234c.649-.065,1.267.171,1.305.9a1.006,1.006,0,0,1-1.249.964H16.338a36.653,36.653,0,0,0,.647,6.471c2.237,0,4.428-.053,6.658-.073a.928.928,0,0,1,.935.63c.3.691-.336,1.227-.985,1.229-2.074.081-4.11.021-6.187.148.613,1.993,1.264,4.455,2.65,5.915,2.006,1.994,5.877,1.043,6.506.88.9.174,1.47.773,1.039,1.494a1,1,0,0,1-.591.4c-16.2,4.182-29.4-14-20.235-28.042,7.515-12.333,26.52-11.032,32.5,2.07a19.009,19.009,0,0,1,1.532,4.94.987.987,0,0,1-.767,1.227.96.96,0,0,1-1.108-.916,16.719,16.719,0,0,0-2-5.647.563.563,0,0,0-.231-.243.514.514,0,0,0-.322-.027c-.282.056-2.9.449-6.522.991M5.694,19.6h8.642c.232-2.273.459-4.507.689-6.764-2.086-.381-4.2-.671-6.292-1.047A.589.589,0,0,0,8,12.124a16.785,16.785,0,0,0-1.874,4.765c-.193.881-.286,1.784-.429,2.712m.09,1.927a15.377,15.377,0,0,0,2.2,7.428.57.57,0,0,0,.473.19c2.15-.31,4.407-.716,6.542-.966-.221-2.24-.437-4.431-.657-6.652ZM27.47,11.222c-2.722-9.719-7.29-9.853-10.047-.073a67.923,67.923,0,0,0,10.047.073m-.926-6.785a19.836,19.836,0,0,1,2.843,6.677l6.134-.854c-1.5-2.452-6.619-5.744-8.977-5.823M18.26,36.756c-.492-.931-1.036-1.8-1.42-2.725-.486-1.18-.838-2.415-1.263-3.62-.045-.126-.2-.318-.287-.308-1.97.232-3.937.489-6.032.757a16.8,16.8,0,0,0,9,5.9m.064-32.324c-2.47.18-7.95,3.7-8.771,5.644L15.519,11a19.389,19.389,0,0,1,2.8-6.569" fill="#fff"/>
      <path id="Path_117" data-name="Path 117" d="M43.6,27.92a15.624,15.624,0,0,1-3.781,9.68A21.422,21.422,0,0,1,35.7,41.457a.919.919,0,0,1-1.271.009,18.974,18.974,0,0,1-7.308-9.56,9.679,9.679,0,0,1,.166-7.242,8.179,8.179,0,0,1,6.922-4.984,8.178,8.178,0,0,1,7.8,3.557,7.932,7.932,0,0,1,1.6,4.683m-15.167.551a10.591,10.591,0,0,0,.841,3.832A18.306,18.306,0,0,0,34.807,39.4a.323.323,0,0,0,.511-.023c.806-.766,1.666-1.483,2.415-2.3a14.026,14.026,0,0,0,3.891-7.884,6.64,6.64,0,1,0-13.189-.716" fill="#fff"/>
    </g>
    <path id="Path_118" data-name="Path 118" d="M38.508,28.152a3.471,3.471,0,0,1-3.483,3.466,3.479,3.479,0,0,1,.029-6.957,3.462,3.462,0,0,1,3.454,3.491M35.039,29.7a1.588,1.588,0,0,0,1.6-1.575,1.607,1.607,0,0,0-1.57-1.566,1.56,1.56,0,0,0-1.583,1.581,1.542,1.542,0,0,0,1.552,1.56" fill="#fff"/>
  </g>
</svg>
