<svg xmlns="http://www.w3.org/2000/svg" width="43.622" height="39.322" viewBox="0 0 43.622 39.322">
  <g id="Group_559" data-name="Group 559" transform="translate(-0.001 -243.315)">
    <path id="Path_119" data-name="Path 119" d="M35.253,246.934c-.691-.672-1.324-1.234-1.882-1.863a1.04,1.04,0,0,1-.21-.868.947.947,0,0,1,.723-.435c2.874-.168,5.751-.3,8.627-.434.9-.041,1.136.227,1.092,1.136-.136,2.821-.25,5.642-.413,8.461a1.308,1.308,0,0,1-.471.894c-.359.247-.713-.017-1-.319-.671-.7-1.359-1.387-2.086-2.124-.536.58-1.032,1.134-1.546,1.67a45.565,45.565,0,0,1-20.113,12.534A52.81,52.81,0,0,1,.965,267.667c-.487-.017-.9-.1-.946-.679s.339-.728.815-.838a77.56,77.56,0,0,0,17.547-6.089,41.57,41.57,0,0,0,7.794-5.23c2.852-2.361,5.593-4.854,8.382-7.289l.7-.608m.437-1.768-.106.165c.3.267.6.521.883.8.683.686.7.995-.006,1.641-2.389,2.194-4.71,4.473-7.216,6.527a86.775,86.775,0,0,1-7.789,5.725,49.7,49.7,0,0,1-11.407,5.1l-2.356.793a14.026,14.026,0,0,0,1.65-.127,42.359,42.359,0,0,0,18.587-6.375A45.224,45.224,0,0,0,38.8,249.973c.5-.615.879-.629,1.455-.059.474.467.943.939,1.509,1.5.111-2.272.216-4.384.322-6.553l-6.4.3" fill="#fff"/>
    <path id="Path_120" data-name="Path 120" d="M35.253,246.934c-.691-.672-1.324-1.234-1.882-1.863a1.04,1.04,0,0,1-.21-.868.947.947,0,0,1,.723-.435c2.874-.168,5.751-.3,8.627-.434.9-.041,1.136.227,1.092,1.136-.136,2.821-.25,5.642-.413,8.461a1.308,1.308,0,0,1-.471.894c-.359.247-.713-.017-1-.319-.671-.7-1.359-1.387-2.086-2.124-.536.58-1.032,1.134-1.546,1.67a45.565,45.565,0,0,1-20.113,12.534A52.81,52.81,0,0,1,.965,267.667c-.487-.017-.9-.1-.946-.679s.339-.728.815-.838a77.56,77.56,0,0,0,17.547-6.089,41.57,41.57,0,0,0,7.794-5.23c2.852-2.361,5.593-4.854,8.382-7.289Zm.437-1.768-.106.165c.3.267.6.521.883.8.683.686.7.995-.006,1.641-2.389,2.194-4.71,4.473-7.216,6.527a86.775,86.775,0,0,1-7.789,5.725,49.7,49.7,0,0,1-11.407,5.1l-2.356.793a14.026,14.026,0,0,0,1.65-.127,42.359,42.359,0,0,0,18.587-6.375A45.224,45.224,0,0,0,38.8,249.973c.5-.615.879-.629,1.455-.059.474.467.943.939,1.509,1.5.111-2.272.216-4.384.322-6.553Z" fill="none" stroke="#fff" stroke-miterlimit="10" stroke-width="0.031"/>
    <path id="Path_121" data-name="Path 121" d="M42.768,270.327q0,5.584,0,11.167c0,.92-.208,1.125-1.132,1.126-1.559,0-3.118,0-4.677,0-.7,0-.923-.22-.923-.919q0-11.414,0-22.828c0-.679.242-.908.938-.91q2.394-.006,4.787,0c.754,0,1.006.258,1.006,1.035q0,5.666,0,11.331m-5.232,10.8H41.2V259.485H37.536Z" fill="#fff"/>
    <path id="Path_122" data-name="Path 122" d="M42.768,270.327q0,5.584,0,11.167c0,.92-.208,1.125-1.132,1.126-1.559,0-3.118,0-4.677,0-.7,0-.923-.22-.923-.919q0-11.414,0-22.828c0-.679.242-.908.938-.91q2.394-.006,4.787,0c.754,0,1.006.258,1.006,1.035Q42.77,264.662,42.768,270.327Zm-5.232,10.8H41.2V259.485H37.536Z" fill="none" stroke="#fff" stroke-miterlimit="10" stroke-width="0.031"/>
    <path id="Path_123" data-name="Path 123" d="M24.81,273.983q0-3.768,0-7.536c0-.8.206-1,1.008-1q2.367,0,4.732,0c.73,0,.987.258.988.994q0,7.59,0,15.181c0,.745-.249,1-.978,1q-2.394,0-4.787,0c-.759,0-.963-.211-.963-.991q0-3.822,0-7.645m5.159-7.021H26.307v14.162h3.662Z" fill="#fff"/>
    <path id="Path_124" data-name="Path 124" d="M24.81,273.983q0-3.768,0-7.536c0-.8.206-1,1.008-1q2.367,0,4.732,0c.73,0,.987.258.988.994q0,7.59,0,15.181c0,.745-.249,1-.978,1q-2.394,0-4.787,0c-.759,0-.963-.211-.963-.991Q24.808,277.806,24.81,273.983Zm5.159-7.021H26.307v14.162h3.662Z" fill="none" stroke="#fff" stroke-miterlimit="10" stroke-width="0.031"/>
    <path id="Path_125" data-name="Path 125" d="M19.541,276.229c0,1.814,0,3.628,0,5.442,0,.718-.232.947-.955.948q-2.419,0-4.839,0c-.675,0-.918-.248-.918-.932q0-5.415,0-10.83c0-.682.238-.915.93-.917q2.448-.006,4.894,0c.652,0,.886.242.888.9,0,1.8,0,3.592,0,5.388m-5.18,4.892h3.645v-9.694H14.361Z" fill="#fff"/>
    <path id="Path_126" data-name="Path 126" d="M19.541,276.229c0,1.814,0,3.628,0,5.442,0,.718-.232.947-.955.948q-2.419,0-4.839,0c-.675,0-.918-.248-.918-.932q0-5.415,0-10.83c0-.682.238-.915.93-.917q2.448-.006,4.894,0c.652,0,.886.242.888.9C19.544,272.637,19.541,274.433,19.541,276.229Zm-5.18,4.892h3.645v-9.694H14.361Z" fill="none" stroke="#fff" stroke-miterlimit="10" stroke-width="0.031"/>
    <path id="Path_127" data-name="Path 127" d="M7.563,278.139c0,1.173,0,2.346,0,3.519,0,.743-.212.959-.938.961q-2.421,0-4.841,0c-.695,0-.951-.262-.952-.971q-.006-3.492,0-6.984c0-.74.248-.984.99-.985q2.392-.006,4.786,0c.747,0,.952.2.955.941.005,1.173,0,2.346,0,3.519m-5.168,2.984H6.062v-5.954H2.395Z" fill="#fff"/>
    <path id="Path_128" data-name="Path 128" d="M7.563,278.139c0,1.173,0,2.346,0,3.519,0,.743-.212.959-.938.961q-2.421,0-4.841,0c-.695,0-.951-.262-.952-.971q-.006-3.492,0-6.984c0-.74.248-.984.99-.985q2.392-.006,4.786,0c.747,0,.952.2.955.941C7.567,275.793,7.563,276.966,7.563,278.139Zm-5.168,2.984H6.062v-5.954H2.395Z" fill="none" stroke="#fff" stroke-miterlimit="10" stroke-width="0.031"/>
  </g>
</svg>
