<svg xmlns="http://www.w3.org/2000/svg" width="39.832" height="39.813" viewBox="0 0 39.832 39.813">
  <g id="Group_540" data-name="Group 540" transform="translate(-20416.4 -2827.163)">
    <path id="Path_102" data-name="Path 102" d="M13.575,427.069a17.693,17.693,0,0,1,1.441-6.479,32.879,32.879,0,0,1,2.739-5.236.519.519,0,0,0,0-.652,31.5,31.5,0,0,1-3.171-6.4,15.485,15.485,0,0,1-.983-5.413,7.244,7.244,0,0,1,.9-3.581,5.854,5.854,0,0,1,4.622-2.881,14.545,14.545,0,0,1,6.919,1.087,27.811,27.811,0,0,1,5.507,2.766,1.124,1.124,0,0,0,1.431.007,28.8,28.8,0,0,1,6.235-3.021,15.927,15.927,0,0,1,4.57-.9,7.652,7.652,0,0,1,4.145.871,5.83,5.83,0,0,1,2.935,4.679,14.425,14.425,0,0,1-1.382,7.587c-.75,1.71-1.679,3.343-2.577,4.983a.919.919,0,0,0,.015,1.1,29.327,29.327,0,0,1,3.208,6.665,14.438,14.438,0,0,1,.813,4.97,6.435,6.435,0,0,1-2.15,5,6.35,6.35,0,0,1-3.4,1.39,14.067,14.067,0,0,1-6.356-.884,29.3,29.3,0,0,1-6.257-3.077.824.824,0,0,0-1.028.014,27.211,27.211,0,0,1-8.233,3.643,11.343,11.343,0,0,1-5.144.169,5.835,5.835,0,0,1-4.694-5.292c-.044-.441-.077-.882-.1-1.12m28.464-12.036c-.072-.113-.133-.225-.209-.326a46.466,46.466,0,0,0-9.258-9.259.414.414,0,0,0-.593-.007,46.455,46.455,0,0,0-9.293,9.285.418.418,0,0,0-.012.6,46.745,46.745,0,0,0,9.289,9.289.424.424,0,0,0,.6.014,46.687,46.687,0,0,0,9.285-9.292c.068-.09.123-.19.191-.3m-6.462-11.95a48.783,48.783,0,0,1,8.631,8.6.954.954,0,0,0,.128-.14c.765-1.612,1.588-3.2,2.274-4.845a8.1,8.1,0,0,0,.647-3.942,2.592,2.592,0,0,0-1.992-2.455,6.034,6.034,0,0,0-2.2-.145,21.094,21.094,0,0,0-7.487,2.929m-15.271,8.632a48.417,48.417,0,0,1,8.635-8.619,1.612,1.612,0,0,0-.136-.1,23.89,23.89,0,0,0-6.779-2.692,10.571,10.571,0,0,0-2.587-.167,2.023,2.023,0,0,0-1.977,1.718,4.411,4.411,0,0,0-.118,1.652,28.452,28.452,0,0,0,.817,3.62,21.791,21.791,0,0,0,2.145,4.588m23.933,6.616a48.368,48.368,0,0,1-8.631,8.626,2.87,2.87,0,0,0,.239.172,27.438,27.438,0,0,0,5.379,2.32,10.227,10.227,0,0,0,3.412.549,2.328,2.328,0,0,0,2.507-2.093,8.685,8.685,0,0,0-.038-2.173,18.654,18.654,0,0,0-1.912-5.612c-.288-.584-.612-1.15-.956-1.789m-23.909.042a1.059,1.059,0,0,0-.127.14,24.557,24.557,0,0,0-2.326,5.235,9.745,9.745,0,0,0-.519,4.05,2.192,2.192,0,0,0,2.05,2.117,7.429,7.429,0,0,0,2.085-.047,23.71,23.71,0,0,0,7.288-2.789c.043-.024.07-.076.128-.14a48.205,48.205,0,0,1-8.579-8.566" transform="translate(20404.057 2432.046)" fill="#fff"/>
    <path id="Path_103" data-name="Path 103" d="M13.575,427.069a17.693,17.693,0,0,1,1.441-6.479,32.879,32.879,0,0,1,2.739-5.236.519.519,0,0,0,0-.652,31.5,31.5,0,0,1-3.171-6.4,15.485,15.485,0,0,1-.983-5.413,7.244,7.244,0,0,1,.9-3.581,5.854,5.854,0,0,1,4.622-2.881,14.545,14.545,0,0,1,6.919,1.087,27.811,27.811,0,0,1,5.507,2.766,1.124,1.124,0,0,0,1.431.007,28.8,28.8,0,0,1,6.235-3.021,15.927,15.927,0,0,1,4.57-.9,7.652,7.652,0,0,1,4.145.871,5.83,5.83,0,0,1,2.935,4.679,14.425,14.425,0,0,1-1.382,7.587c-.75,1.71-1.679,3.343-2.577,4.983a.919.919,0,0,0,.015,1.1,29.327,29.327,0,0,1,3.208,6.665,14.438,14.438,0,0,1,.813,4.97,6.435,6.435,0,0,1-2.15,5,6.35,6.35,0,0,1-3.4,1.39,14.067,14.067,0,0,1-6.356-.884,29.3,29.3,0,0,1-6.257-3.077.824.824,0,0,0-1.028.014,27.211,27.211,0,0,1-8.233,3.643,11.343,11.343,0,0,1-5.144.169,5.835,5.835,0,0,1-4.694-5.292C13.628,427.748,13.6,427.307,13.575,427.069Zm28.464-12.036c-.072-.113-.133-.225-.209-.326a46.466,46.466,0,0,0-9.258-9.259.414.414,0,0,0-.593-.007,46.455,46.455,0,0,0-9.293,9.285.418.418,0,0,0-.012.6,46.745,46.745,0,0,0,9.289,9.289.424.424,0,0,0,.6.014,46.687,46.687,0,0,0,9.285-9.292C41.916,415.243,41.971,415.143,42.039,415.033Zm-6.462-11.95a48.783,48.783,0,0,1,8.631,8.6.954.954,0,0,0,.128-.14c.765-1.612,1.588-3.2,2.274-4.845a8.1,8.1,0,0,0,.647-3.942,2.592,2.592,0,0,0-1.992-2.455,6.034,6.034,0,0,0-2.2-.145A21.094,21.094,0,0,0,35.577,403.083Zm-15.271,8.632a48.417,48.417,0,0,1,8.635-8.619,1.612,1.612,0,0,0-.136-.1,23.89,23.89,0,0,0-6.779-2.692,10.571,10.571,0,0,0-2.587-.167,2.023,2.023,0,0,0-1.977,1.718,4.411,4.411,0,0,0-.118,1.652,28.452,28.452,0,0,0,.817,3.62A21.791,21.791,0,0,0,20.306,411.715Zm23.933,6.616a48.368,48.368,0,0,1-8.631,8.626,2.87,2.87,0,0,0,.239.172,27.438,27.438,0,0,0,5.379,2.32,10.227,10.227,0,0,0,3.412.549,2.328,2.328,0,0,0,2.507-2.093,8.685,8.685,0,0,0-.038-2.173,18.654,18.654,0,0,0-1.912-5.612C44.907,419.536,44.583,418.97,44.239,418.331Zm-23.909.042a1.059,1.059,0,0,0-.127.14,24.557,24.557,0,0,0-2.326,5.235,9.745,9.745,0,0,0-.519,4.05,2.192,2.192,0,0,0,2.05,2.117,7.429,7.429,0,0,0,2.085-.047,23.71,23.71,0,0,0,7.288-2.789c.043-.024.07-.076.128-.14A48.205,48.205,0,0,1,20.33,418.373Z" transform="translate(20404.057 2432.046)" fill="none" stroke="#050605" stroke-miterlimit="10" stroke-width="2.462"/>
    <path id="Path_104" data-name="Path 104" d="M32.257,417.819a2.8,2.8,0,1,1,2.812-2.751,2.81,2.81,0,0,1-2.812,2.751" transform="translate(20404.057 2432.046)" fill="#fff"/>
    <path id="Path_105" data-name="Path 105" d="M32.257,417.819a2.8,2.8,0,1,1,2.812-2.751A2.81,2.81,0,0,1,32.257,417.819Z" transform="translate(20404.057 2432.046)" fill="none" stroke="#fff" stroke-miterlimit="10" stroke-width="0.001"/>
  </g>
</svg>
