<svg xmlns="http://www.w3.org/2000/svg" width="45.28" height="45.33" viewBox="0 0 45.28 45.33">
  <g id="Group_537" data-name="Group 537" transform="translate(-20413.726 -2598.445)">
    <path id="Path_58" data-name="Path 58" d="M30.063,190.818c-.8-1.285-1.556-2.482-2.3-3.691a39.38,39.38,0,0,1-3.685-7.242,11.649,11.649,0,0,1-.723-6.556,9.091,9.091,0,0,1,7.866-6.841,9.266,9.266,0,0,1,9.32,4.845,9.126,9.126,0,0,1,.619,6.411,28.554,28.554,0,0,1-3.69,8.459c-.838,1.4-1.727,2.779-2.591,4.168-.083.133-.148.277-.215.4.917.218,1.823.367,2.681.658a6.8,6.8,0,0,1,1.9.97,1.676,1.676,0,0,1-.034,2.864,7.543,7.543,0,0,1-3.328,1.31,17.8,17.8,0,0,1-8.069-.227,8.146,8.146,0,0,1-2.338-1.048,1.675,1.675,0,0,1-.066-2.951,8.144,8.144,0,0,1,3.644-1.375c.3-.057.6-.1,1-.159m2.244,1.169a3.468,3.468,0,0,0,.25-.316c1.3-2.073,2.623-4.127,3.875-6.227a27.063,27.063,0,0,0,3.437-7.81,8,8,0,0,0-.555-5.87,7.9,7.9,0,0,0-8.217-3.952,7.523,7.523,0,0,0-6.364,5.426,9.741,9.741,0,0,0,.568,6.227,43.238,43.238,0,0,0,4.25,8.1c.91,1.464,1.823,2.926,2.756,4.423m.263,3.652c.433-.029,1.171-.046,1.9-.136a9.509,9.509,0,0,0,3.658-1.024c.8-.457.837-.923.009-1.292a16.041,16.041,0,0,0-3-.969c-1.263-.285-1.276-.227-1.943.91-.073.124-.142.251-.215.374-.392.66-.91.654-1.309,0-.3-.484-.516-1.169-.951-1.367a2.713,2.713,0,0,0-1.679.161,20.257,20.257,0,0,0-2.8,1.052c-.5.237-.475.569-.036.92a3.441,3.441,0,0,0,.787.459,14.558,14.558,0,0,0,5.579.913" transform="translate(20404.057 2432.046)" fill="#fff"/>
    <path id="Path_59" data-name="Path 59" d="M30.063,190.818c-.8-1.285-1.556-2.482-2.3-3.691a39.38,39.38,0,0,1-3.685-7.242,11.649,11.649,0,0,1-.723-6.556,9.091,9.091,0,0,1,7.866-6.841,9.266,9.266,0,0,1,9.32,4.845,9.126,9.126,0,0,1,.619,6.411,28.554,28.554,0,0,1-3.69,8.459c-.838,1.4-1.727,2.779-2.591,4.168-.083.133-.148.277-.215.4.917.218,1.823.367,2.681.658a6.8,6.8,0,0,1,1.9.97,1.676,1.676,0,0,1-.034,2.864,7.543,7.543,0,0,1-3.328,1.31,17.8,17.8,0,0,1-8.069-.227,8.146,8.146,0,0,1-2.338-1.048,1.675,1.675,0,0,1-.066-2.951,8.144,8.144,0,0,1,3.644-1.375C29.359,190.92,29.66,190.881,30.063,190.818Zm2.244,1.169a3.468,3.468,0,0,0,.25-.316c1.3-2.073,2.623-4.127,3.875-6.227a27.063,27.063,0,0,0,3.437-7.81,8,8,0,0,0-.555-5.87,7.9,7.9,0,0,0-8.217-3.952,7.523,7.523,0,0,0-6.364,5.426,9.741,9.741,0,0,0,.568,6.227,43.238,43.238,0,0,0,4.25,8.1C30.461,189.028,31.374,190.49,32.307,191.987Zm.263,3.652c.433-.029,1.171-.046,1.9-.136a9.509,9.509,0,0,0,3.658-1.024c.8-.457.837-.923.009-1.292a16.041,16.041,0,0,0-3-.969c-1.263-.285-1.276-.227-1.943.91-.073.124-.142.251-.215.374-.392.66-.91.654-1.309,0-.3-.484-.516-1.169-.951-1.367a2.713,2.713,0,0,0-1.679.161,20.257,20.257,0,0,0-2.8,1.052c-.5.237-.475.569-.036.92a3.441,3.441,0,0,0,.787.459A14.558,14.558,0,0,0,32.57,195.639Z" transform="translate(20404.057 2432.046)" fill="none" stroke="#fff" stroke-miterlimit="10" stroke-width="0.007"/>
    <path id="Path_60" data-name="Path 60" d="M51.976,211.726a2.969,2.969,0,0,1-2.985-2.97,3.014,3.014,0,0,1,2.988-2.986,2.972,2.972,0,0,1,2.967,2.99,2.918,2.918,0,0,1-2.97,2.966M52,210.448a1.653,1.653,0,0,0,1.668-1.683,1.684,1.684,0,0,0-1.711-1.7,1.7,1.7,0,0,0-1.674,1.746A1.679,1.679,0,0,0,52,210.448" transform="translate(20404.057 2432.046)" fill="#fff"/>
    <path id="Path_61" data-name="Path 61" d="M51.976,211.726a2.969,2.969,0,0,1-2.985-2.97,3.014,3.014,0,0,1,2.988-2.986,2.972,2.972,0,0,1,2.967,2.99A2.918,2.918,0,0,1,51.976,211.726ZM52,210.448a1.653,1.653,0,0,0,1.668-1.683,1.684,1.684,0,0,0-1.711-1.7,1.7,1.7,0,0,0-1.674,1.746A1.679,1.679,0,0,0,52,210.448Z" transform="translate(20404.057 2432.046)" fill="none" stroke="#fff" stroke-miterlimit="10" stroke-width="0.007"/>
    <path id="Path_62" data-name="Path 62" d="M12.662,211.726a2.92,2.92,0,0,1-2.989-2.946,2.974,2.974,0,0,1,2.947-3.01,3.013,3.013,0,0,1,3.008,2.966,2.969,2.969,0,0,1-2.966,2.99m-.02-1.278a1.679,1.679,0,0,0,1.693-1.664,1.706,1.706,0,0,0-1.7-1.722,1.684,1.684,0,0,0-1.686,1.727,1.652,1.652,0,0,0,1.691,1.659" transform="translate(20404.057 2432.046)" fill="#fff"/>
    <path id="Path_63" data-name="Path 63" d="M12.662,211.726a2.92,2.92,0,0,1-2.989-2.946,2.974,2.974,0,0,1,2.947-3.01,3.013,3.013,0,0,1,3.008,2.966A2.969,2.969,0,0,1,12.662,211.726Zm-.02-1.278a1.679,1.679,0,0,0,1.693-1.664,1.706,1.706,0,0,0-1.7-1.722,1.684,1.684,0,0,0-1.686,1.727A1.652,1.652,0,0,0,12.642,210.448Z" transform="translate(20404.057 2432.046)" fill="none" stroke="#fff" stroke-miterlimit="10" stroke-width="0.007"/>
    <path id="Path_64" data-name="Path 64" d="M12.623,181.828a2.923,2.923,0,0,1-2.95-2.986,2.985,2.985,0,0,1,2.986-2.977,3.025,3.025,0,0,1,2.969,3.011,2.968,2.968,0,0,1-3.005,2.952m-1.672-2.961a1.664,1.664,0,0,0,1.668,1.687,1.691,1.691,0,0,0,1.717-1.7,1.723,1.723,0,0,0-1.676-1.7,1.7,1.7,0,0,0-1.709,1.711" transform="translate(20404.057 2432.046)" fill="#fff"/>
    <path id="Path_65" data-name="Path 65" d="M12.623,181.828a2.923,2.923,0,0,1-2.95-2.986,2.985,2.985,0,0,1,2.986-2.977,3.025,3.025,0,0,1,2.969,3.011A2.968,2.968,0,0,1,12.623,181.828Zm-1.672-2.961a1.664,1.664,0,0,0,1.668,1.687,1.691,1.691,0,0,0,1.717-1.7,1.723,1.723,0,0,0-1.676-1.7A1.7,1.7,0,0,0,10.951,178.867Z" transform="translate(20404.057 2432.046)" fill="none" stroke="#fff" stroke-miterlimit="10" stroke-width="0.007"/>
    <path id="Path_66" data-name="Path 66" d="M54.946,178.875a2.923,2.923,0,0,1-2.983,2.953,2.97,2.97,0,0,1-2.972-2.985,3.025,3.025,0,0,1,3-2.978,2.985,2.985,0,0,1,2.953,3.01m-1.278-.015a1.7,1.7,0,0,0-1.662-1.7,1.718,1.718,0,0,0-1.723,1.7,1.689,1.689,0,0,0,1.723,1.694,1.667,1.667,0,0,0,1.662-1.694" transform="translate(20404.057 2432.046)" fill="#fff"/>
    <path id="Path_67" data-name="Path 67" d="M54.946,178.875a2.923,2.923,0,0,1-2.983,2.953,2.97,2.97,0,0,1-2.972-2.985,3.025,3.025,0,0,1,3-2.978A2.985,2.985,0,0,1,54.946,178.875Zm-1.278-.015a1.7,1.7,0,0,0-1.662-1.7,1.718,1.718,0,0,0-1.723,1.7,1.689,1.689,0,0,0,1.723,1.694A1.667,1.667,0,0,0,53.668,178.86Z" transform="translate(20404.057 2432.046)" fill="none" stroke="#fff" stroke-miterlimit="10" stroke-width="0.007"/>
    <path id="Path_68" data-name="Path 68" d="M16.781,205.614c-.286-.258-.532-.385-.611-.581a.684.684,0,0,1,.09-.621,7.4,7.4,0,0,1,1.315-.919.674.674,0,0,1,.614.128c.137.129.25.522.172.6-.476.479-1.009.9-1.58,1.393" transform="translate(20404.057 2432.046)" fill="#fff"/>
    <path id="Path_69" data-name="Path 69" d="M16.781,205.614c-.286-.258-.532-.385-.611-.581a.684.684,0,0,1,.09-.621,7.4,7.4,0,0,1,1.315-.919.674.674,0,0,1,.614.128c.137.129.25.522.172.6C17.885,204.7,17.352,205.123,16.781,205.614Z" transform="translate(20404.057 2432.046)" fill="none" stroke="#fff" stroke-miterlimit="10" stroke-width="0.007"/>
    <path id="Path_70" data-name="Path 70" d="M48.043,205.438a3.086,3.086,0,0,1-1.783-1.184.817.817,0,0,1,.158-.622.672.672,0,0,1,.609-.144,7.787,7.787,0,0,1,1.353.954.7.7,0,0,1,.055.626c-.073.181-.309.3-.392.37" transform="translate(20404.057 2432.046)" fill="#fff"/>
    <path id="Path_71" data-name="Path 71" d="M48.043,205.438a3.086,3.086,0,0,1-1.783-1.184.817.817,0,0,1,.158-.622.672.672,0,0,1,.609-.144,7.787,7.787,0,0,1,1.353.954.7.7,0,0,1,.055.626C48.362,205.249,48.126,205.365,48.043,205.438Z" transform="translate(20404.057 2432.046)" fill="none" stroke="#fff" stroke-miterlimit="10" stroke-width="0.007"/>
    <path id="Path_72" data-name="Path 72" d="M22.6,186.459c-.009.528-.477.867-.866.645a6.546,6.546,0,0,1-1.3-.949.736.736,0,0,1-.019-.708.747.747,0,0,1,.674-.246,9.116,9.116,0,0,1,1.367.94c.1.074.113.253.139.318" transform="translate(20404.057 2432.046)" fill="#fff"/>
    <path id="Path_73" data-name="Path 73" d="M22.6,186.459c-.009.528-.477.867-.866.645a6.546,6.546,0,0,1-1.3-.949.736.736,0,0,1-.019-.708.747.747,0,0,1,.674-.246,9.116,9.116,0,0,1,1.367.94C22.561,186.215,22.577,186.394,22.6,186.459Z" transform="translate(20404.057 2432.046)" fill="none" stroke="#fff" stroke-miterlimit="10" stroke-width="0.007"/>
    <path id="Path_74" data-name="Path 74" d="M26.8,198.14c-.009.493-1.411,1.488-1.878,1.333a.616.616,0,0,1-.256-1.038,6.666,6.666,0,0,1,1.229-.86.61.61,0,0,1,.905.565" transform="translate(20404.057 2432.046)" fill="#fff"/>
    <path id="Path_75" data-name="Path 75" d="M26.8,198.14c-.009.493-1.411,1.488-1.878,1.333a.616.616,0,0,1-.256-1.038,6.666,6.666,0,0,1,1.229-.86A.61.61,0,0,1,26.8,198.14Z" transform="translate(20404.057 2432.046)" fill="none" stroke="#fff" stroke-miterlimit="10" stroke-width="0.007"/>
    <path id="Path_76" data-name="Path 76" d="M38.509,197.359c.551.442,1.09.837,1.571,1.293.089.085.014.492-.115.617a.748.748,0,0,1-.658.181,6.237,6.237,0,0,1-1.316-.915.774.774,0,0,1-.086-.682c.061-.175.326-.279.6-.494" transform="translate(20404.057 2432.046)" fill="#fff"/>
    <path id="Path_77" data-name="Path 77" d="M38.509,197.359c.551.442,1.09.837,1.571,1.293.089.085.014.492-.115.617a.748.748,0,0,1-.658.181,6.237,6.237,0,0,1-1.316-.915.774.774,0,0,1-.086-.682C37.966,197.678,38.231,197.574,38.509,197.359Z" transform="translate(20404.057 2432.046)" fill="none" stroke="#fff" stroke-miterlimit="10" stroke-width="0.007"/>
    <path id="Path_78" data-name="Path 78" d="M26.794,189.4a.629.629,0,0,1-.93.641,5.364,5.364,0,0,1-1.164-.856.78.78,0,0,1-.1-.743.768.768,0,0,1,.7-.261,8.979,8.979,0,0,1,1.363.939c.085.065.1.221.124.28" transform="translate(20404.057 2432.046)" fill="#fff"/>
    <path id="Path_79" data-name="Path 79" d="M26.794,189.4a.629.629,0,0,1-.93.641,5.364,5.364,0,0,1-1.164-.856.78.78,0,0,1-.1-.743.768.768,0,0,1,.7-.261,8.979,8.979,0,0,1,1.363.939C26.755,189.187,26.77,189.343,26.794,189.4Z" transform="translate(20404.057 2432.046)" fill="none" stroke="#fff" stroke-miterlimit="10" stroke-width="0.007"/>
    <path id="Path_80" data-name="Path 80" d="M38.513,190.286c-.285-.229-.541-.336-.6-.511a.781.781,0,0,1,.08-.68,6.77,6.77,0,0,1,1.313-.918.686.686,0,0,1,.618.139c.138.13.253.526.176.6-.482.475-1.02.893-1.585,1.369" transform="translate(20404.057 2432.046)" fill="#fff"/>
    <path id="Path_81" data-name="Path 81" d="M38.513,190.286c-.285-.229-.541-.336-.6-.511a.781.781,0,0,1,.08-.68,6.77,6.77,0,0,1,1.313-.918.686.686,0,0,1,.618.139c.138.13.253.526.176.6C39.616,189.392,39.078,189.81,38.513,190.286Z" transform="translate(20404.057 2432.046)" fill="none" stroke="#fff" stroke-miterlimit="10" stroke-width="0.007"/>
    <path id="Path_82" data-name="Path 82" d="M22.6,201.2a1.119,1.119,0,0,1-.227.375,9.918,9.918,0,0,1-1.136.809.589.589,0,0,1-.844-.21.551.551,0,0,1,.121-.811,8.971,8.971,0,0,1,1.141-.8.631.631,0,0,1,.945.638" transform="translate(20404.057 2432.046)" fill="#fff"/>
    <path id="Path_83" data-name="Path 83" d="M22.6,201.2a1.119,1.119,0,0,1-.227.375,9.918,9.918,0,0,1-1.136.809.589.589,0,0,1-.844-.21.551.551,0,0,1,.121-.811,8.971,8.971,0,0,1,1.141-.8A.631.631,0,0,1,22.6,201.2Z" transform="translate(20404.057 2432.046)" fill="none" stroke="#fff" stroke-miterlimit="10" stroke-width="0.007"/>
    <path id="Path_84" data-name="Path 84" d="M42.711,200.316c.566.466,1.1.865,1.57,1.329.083.081-.034.508-.181.638a.735.735,0,0,1-.67.109,5.5,5.5,0,0,1-1.217-.869.762.762,0,0,1-.118-.672c.066-.187.334-.3.616-.535" transform="translate(20404.057 2432.046)" fill="#fff"/>
    <path id="Path_85" data-name="Path 85" d="M42.711,200.316c.566.466,1.1.865,1.57,1.329.083.081-.034.508-.181.638a.735.735,0,0,1-.67.109,5.5,5.5,0,0,1-1.217-.869.762.762,0,0,1-.118-.672C42.161,200.664,42.429,200.548,42.711,200.316Z" transform="translate(20404.057 2432.046)" fill="none" stroke="#fff" stroke-miterlimit="10" stroke-width="0.007"/>
    <path id="Path_86" data-name="Path 86" d="M42.013,186.457c.043-.084.084-.286.207-.385a12.876,12.876,0,0,1,1.186-.838.57.57,0,0,1,.805.19.544.544,0,0,1-.088.815,9.465,9.465,0,0,1-1.18.845c-.416.245-.91-.064-.93-.627" transform="translate(20404.057 2432.046)" fill="#fff"/>
    <path id="Path_87" data-name="Path 87" d="M42.013,186.457c.043-.084.084-.286.207-.385a12.876,12.876,0,0,1,1.186-.838.57.57,0,0,1,.805.19.544.544,0,0,1-.088.815,9.465,9.465,0,0,1-1.18.845C42.527,187.329,42.033,187.02,42.013,186.457Z" transform="translate(20404.057 2432.046)" fill="none" stroke="#fff" stroke-miterlimit="10" stroke-width="0.007"/>
    <path id="Path_88" data-name="Path 88" d="M46.686,184.186c-.089-.083-.346-.215-.4-.406a.775.775,0,0,1,.141-.665,5.214,5.214,0,0,1,1.177-.832.793.793,0,0,1,.683.081.744.744,0,0,1,.213.6,2.888,2.888,0,0,1-1.81,1.225" transform="translate(20404.057 2432.046)" fill="#fff"/>
    <path id="Path_89" data-name="Path 89" d="M46.686,184.186c-.089-.083-.346-.215-.4-.406a.775.775,0,0,1,.141-.665,5.214,5.214,0,0,1,1.177-.832.793.793,0,0,1,.683.081.744.744,0,0,1,.213.6A2.888,2.888,0,0,1,46.686,184.186Z" transform="translate(20404.057 2432.046)" fill="none" stroke="#fff" stroke-miterlimit="10" stroke-width="0.007"/>
    <path id="Path_90" data-name="Path 90" d="M17.933,184.186a2.905,2.905,0,0,1-1.811-1.226.742.742,0,0,1,.214-.6.793.793,0,0,1,.683-.08,5.21,5.21,0,0,1,1.177.831.778.778,0,0,1,.14.666c-.058.191-.314.323-.4.406" transform="translate(20404.057 2432.046)" fill="#fff"/>
    <path id="Path_91" data-name="Path 91" d="M17.933,184.186a2.905,2.905,0,0,1-1.811-1.226.742.742,0,0,1,.214-.6.793.793,0,0,1,.683-.08,5.21,5.21,0,0,1,1.177.831.778.778,0,0,1,.14.666C18.278,183.971,18.022,184.1,17.933,184.186Z" transform="translate(20404.057 2432.046)" fill="none" stroke="#fff" stroke-miterlimit="10" stroke-width="0.007"/>
    <path id="Path_92" data-name="Path 92" d="M32.309,171.631a3.675,3.675,0,1,1-3.67,3.666,3.659,3.659,0,0,1,3.67-3.666m.013,1.291A2.387,2.387,0,0,0,29.91,175.3a2.4,2.4,0,0,0,4.8.026,2.387,2.387,0,0,0-2.387-2.4" transform="translate(20404.057 2432.046)" fill="#fff"/>
    <path id="Path_93" data-name="Path 93" d="M32.309,171.631a3.675,3.675,0,1,1-3.67,3.666A3.659,3.659,0,0,1,32.309,171.631Zm.013,1.291A2.387,2.387,0,0,0,29.91,175.3a2.4,2.4,0,0,0,4.8.026A2.387,2.387,0,0,0,32.322,172.922Z" transform="translate(20404.057 2432.046)" fill="none" stroke="#fff" stroke-miterlimit="10" stroke-width="0.007"/>
  </g>
</svg>
