<svg id="Group_557" data-name="Group 557" xmlns="http://www.w3.org/2000/svg" width="401.806" height="210" viewBox="0 0 401.806 210">
  <g id="Group_1" data-name="Group 1" transform="translate(200.164 166.027)">
    <path id="Path_1" data-name="Path 1" d="M5762.791,3400.7a15.359,15.359,0,0,1-1.1,5.879,13.043,13.043,0,0,1-3.084,4.549,14.2,14.2,0,0,1-4.681,2.953,16.813,16.813,0,0,1-11.8,0,14.233,14.233,0,0,1-4.678-2.953,13.118,13.118,0,0,1-3.087-4.549,15.284,15.284,0,0,1-1.1-5.879v-15.077a15.25,15.25,0,0,1,1.1-5.872,13.054,13.054,0,0,1,3.087-4.55,14.336,14.336,0,0,1,4.678-2.956,16.878,16.878,0,0,1,11.8,0,14.306,14.306,0,0,1,4.681,2.956,12.98,12.98,0,0,1,3.084,4.55,15.325,15.325,0,0,1,1.1,5.872Zm-5.973-15.077a9.04,9.04,0,0,0-2.257-6.277,9.742,9.742,0,0,0-13.069,0,9.011,9.011,0,0,0-2.26,6.277V3400.7a9.025,9.025,0,0,0,2.26,6.285,9.754,9.754,0,0,0,13.069,0,9.055,9.055,0,0,0,2.257-6.285Z" transform="translate(-5733.261 -3371.182)" fill="#68b984"/>
    <path id="Path_2" data-name="Path 2" d="M5801.518,3393.8a1.736,1.736,0,0,1,1.886-1.882h1.879a1.743,1.743,0,0,1,1.88,1.882v15.706a11.925,11.925,0,0,1-.807,4.335,11.034,11.034,0,0,1-2.3,3.613,10.867,10.867,0,0,1-3.581,2.448,12.834,12.834,0,0,1-9.483,0,11.2,11.2,0,0,1-3.611-2.448,10.906,10.906,0,0,1-2.33-3.613,11.754,11.754,0,0,1-.819-4.335V3393.8a1.744,1.744,0,0,1,1.893-1.882h1.882a1.737,1.737,0,0,1,1.879,1.882v15.706a6.5,6.5,0,0,0,1.422,4.172,5.287,5.287,0,0,0,4.423,1.8,5.205,5.205,0,0,0,4.4-1.8,6.61,6.61,0,0,0,1.383-4.172Z" transform="translate(-5747.177 -3376.842)" fill="#68b984"/>
    <path id="Path_3" data-name="Path 3" d="M5836.7,3417.589q-4.723,0-6.949-2.573a10.562,10.562,0,0,1-2.233-7.156v-12.568a.549.549,0,0,0-.625-.626H5825a1.834,1.834,0,0,1-1.375-.507,1.862,1.862,0,0,1-.506-1.381v-1.569a1.883,1.883,0,0,1,.506-1.382,1.837,1.837,0,0,1,1.375-.505h1.885a.548.548,0,0,0,.625-.627v-4.4a1.886,1.886,0,0,1,.508-1.38,1.837,1.837,0,0,1,1.38-.5h1.882a1.734,1.734,0,0,1,1.89,1.879v4.4a.55.55,0,0,0,.623.627h4.712a1.742,1.742,0,0,1,1.889,1.888v1.569a1.744,1.744,0,0,1-1.889,1.888H5833.8a.551.551,0,0,0-.623.626v12.25a6.131,6.131,0,0,0,.842,3.454c.573.839,1.65,1.258,3.238,1.258h1.255a1.735,1.735,0,0,1,1.889,1.884v1.571a1.728,1.728,0,0,1-1.889,1.882Z" transform="translate(-5757.79 -3374.25)" fill="#68b984"/>
    <path id="Path_4" data-name="Path 4" d="M5864.778,3414.759a12,12,0,0,1-4.489-.816,10.556,10.556,0,0,1-3.483-2.23,9.545,9.545,0,0,1-2.231-3.393,11.329,11.329,0,0,1-.786-4.237v-6.909a10.98,10.98,0,0,1,.819-4.245,10.054,10.054,0,0,1,5.62-5.619,11.184,11.184,0,0,1,4.3-.818h6.226a.557.557,0,0,0,.625-.631v-11.93a1.733,1.733,0,0,1,1.884-1.882h1.884a1.846,1.846,0,0,1,1.38.5,1.884,1.884,0,0,1,.5,1.381v38.945a1.9,1.9,0,0,1-.5,1.386,1.88,1.88,0,0,1-1.38.5Zm6.6-22.3a.559.559,0,0,0-.625-.63h-5.977a5.068,5.068,0,0,0-5.333,5.343v6.909a5.047,5.047,0,0,0,1.566,3.863,5.317,5.317,0,0,0,3.767,1.479h5.977a.559.559,0,0,0,.625-.63Z" transform="translate(-5766.159 -3371.419)" fill="#68b984"/>
    <path id="Path_5" data-name="Path 5" d="M5909.153,3420.578a14.255,14.255,0,0,1-5.746-1.164,15.036,15.036,0,0,1-7.852-7.854,14.8,14.8,0,0,1,0-11.494,15.165,15.165,0,0,1,3.174-4.676,14.955,14.955,0,0,1,4.678-3.176,14.786,14.786,0,0,1,11.5,0,14.862,14.862,0,0,1,4.674,3.176,15.012,15.012,0,0,1,3.173,4.676,14.735,14.735,0,0,1,0,11.494,15.043,15.043,0,0,1-7.848,7.854A14.268,14.268,0,0,1,5909.153,3420.578Zm0-5.337a8.578,8.578,0,0,0,3.615-.763,9.277,9.277,0,0,0,2.887-2.006,8.852,8.852,0,0,0,1.917-2.986,10.132,10.132,0,0,0,0-7.345,8.882,8.882,0,0,0-1.917-2.985,9.47,9.47,0,0,0-2.887-2.009,9.057,9.057,0,0,0-7.227,0,9.432,9.432,0,0,0-2.881,2.009,8.832,8.832,0,0,0-1.918,2.985,10.052,10.052,0,0,0,0,7.345,8.8,8.8,0,0,0,1.918,2.986,9.24,9.24,0,0,0,2.881,2.006A8.615,8.615,0,0,0,5909.153,3415.241Z" transform="translate(-5777.247 -3376.605)" fill="#68b984"/>
    <path id="Path_6" data-name="Path 6" d="M5956.675,3420.578a14.216,14.216,0,0,1-5.744-1.164,14.984,14.984,0,0,1-7.853-7.854,14.741,14.741,0,0,1,0-11.494,15.167,15.167,0,0,1,3.168-4.676,14.855,14.855,0,0,1,4.684-3.176,14.777,14.777,0,0,1,11.5,0,15.034,15.034,0,0,1,7.846,7.852,14.73,14.73,0,0,1,0,11.494,14.88,14.88,0,0,1-3.171,4.678,15.048,15.048,0,0,1-4.675,3.176A14.275,14.275,0,0,1,5956.675,3420.578Zm0-5.337a8.591,8.591,0,0,0,3.614-.763,9.3,9.3,0,0,0,2.89-2.006,9.028,9.028,0,0,0,1.917-2.986,10.105,10.105,0,0,0,0-7.345,9.059,9.059,0,0,0-1.917-2.985,9.493,9.493,0,0,0-2.89-2.009,9.046,9.046,0,0,0-7.222,0,9.478,9.478,0,0,0-2.894,2.009,8.984,8.984,0,0,0-1.912,2.985,10.059,10.059,0,0,0,0,7.345,8.954,8.954,0,0,0,1.912,2.986,9.285,9.285,0,0,0,2.894,2.006A8.566,8.566,0,0,0,5956.675,3415.241Z" transform="translate(-5790.214 -3376.605)" fill="#68b984"/>
    <path id="Path_7" data-name="Path 7" d="M5993.054,3420.182a1.887,1.887,0,0,1-1.382-.5,1.855,1.855,0,0,1-.5-1.388v-16.014a10.641,10.641,0,0,1,2.632-7.472,9.461,9.461,0,0,1,7.353-2.894h2.268a1.739,1.739,0,0,1,1.88,1.882v1.571a1.733,1.733,0,0,1-1.88,1.883h-1.892a4.227,4.227,0,0,0-3.542,1.476,6.067,6.067,0,0,0-1.165,3.867v15.7a1.735,1.735,0,0,1-1.885,1.885Z" transform="translate(-5803.663 -3376.842)" fill="#68b984"/>
  </g>
  <g id="Group_2" data-name="Group 2">
    <path id="Path_8" data-name="Path 8" d="M5511.627,3054.132h-6.944a6.395,6.395,0,0,0-6.934,6.924v11.57a6.4,6.4,0,0,0,6.934,6.938h6.944a6.4,6.4,0,0,0,6.938-6.938v-11.57a6.4,6.4,0,0,0-6.937-6.924Z" transform="translate(-5364.706 -3043.213)" fill="#68b984"/>
    <path id="Path_9" data-name="Path 9" d="M5511.627,3133.51h-6.944a6.391,6.391,0,0,0-6.934,6.927v90.45a6.389,6.389,0,0,0,6.934,6.933h6.944a6.4,6.4,0,0,0,6.938-6.933v-90.45a6.4,6.4,0,0,0-6.937-6.927Z" transform="translate(-5364.706 -3081.745)" fill="#68b984"/>
    <path id="Path_10" data-name="Path 10" d="M5646,3148.611a53.007,53.007,0,0,0-16.555-11.221,52.175,52.175,0,0,0-40.647,0,53.031,53.031,0,0,0-27.787,27.764,52.381,52.381,0,0,0,0,40.673,53.018,53.018,0,0,0,27.787,27.762,52.244,52.244,0,0,0,40.647,0,53.084,53.084,0,0,0,27.782-27.762,52.45,52.45,0,0,0,0-40.673A53.31,53.31,0,0,0,5646,3148.611Zm-7.1,49.87a31.655,31.655,0,0,1-6.794,10.541,32.59,32.59,0,0,1-10.2,7.114,31.874,31.874,0,0,1-25.557,0,32.861,32.861,0,0,1-10.222-7.114,31.68,31.68,0,0,1-6.776-10.541,35.758,35.758,0,0,1,0-25.982,32.063,32.063,0,0,1,6.776-10.577,33.423,33.423,0,0,1,10.222-7.1,31.922,31.922,0,0,1,25.557,0,33.143,33.143,0,0,1,10.2,7.1,32.036,32.036,0,0,1,6.794,10.577,35.785,35.785,0,0,1,0,25.982Z" transform="translate(-5393.142 -3081.63)" fill="#68b984"/>
    <path id="Path_11" data-name="Path 11" d="M5806.778,3169.823h-2.316a7.856,7.856,0,0,1-6-2.186,8.111,8.111,0,0,1-2.094-5.873V3040.216a6.369,6.369,0,0,0-6.932-6.908H5782.5a6.381,6.381,0,0,0-6.937,6.908v119.247q0,13.825,6.583,21.871t21.388,8.05h3.243a6.951,6.951,0,0,0,5.083-1.837,6.869,6.869,0,0,0,1.85-5.062v-5.748a6.38,6.38,0,0,0-6.933-6.913Z" transform="translate(-5497.471 -3033.307)" fill="#68b984"/>
    <path id="Path_12" data-name="Path 12" d="M5934.09,3135.273a6.781,6.781,0,0,0-5-1.817H5895.24a43.575,43.575,0,0,0-31.264,12.59,40.668,40.668,0,0,0-8.976,13.726,45.049,45.049,0,0,0-3.157,16.793v20.184a48.937,48.937,0,0,0,2.715,16.681,39.984,39.984,0,0,0,7.5,13.047,32.641,32.641,0,0,0,11.361,8.392,35.226,35.226,0,0,0,14.544,2.96,37.735,37.735,0,0,0,15.1-2.734,22.575,22.575,0,0,0,9.426-7.029,1.727,1.727,0,0,1,1.934-.792c1.007.313,1.02,3.054,1.02,3.95a6.669,6.669,0,0,0,1.818,4.546,6.357,6.357,0,0,0,5,2.042h6.821a6.29,6.29,0,0,0,6.823-6.81v-90.743A6.788,6.788,0,0,0,5934.09,3135.273Zm-18.643,58.072a28.6,28.6,0,0,1-1.479,9.2,25.517,25.517,0,0,1-4.419,8.051,21.8,21.8,0,0,1-7.379,5.786,23.939,23.939,0,0,1-10.575,2.15q-9.1,0-14.2-5.449c-3.4-3.629-5.119-8.315-5.119-14.057v-22.464a24.465,24.465,0,0,1,6.255-16.793q6.239-7.039,17.6-7.026h17.055a1.99,1.99,0,0,1,2.256,2.259Z" transform="translate(-5534.105 -3081.718)" fill="#68b984"/>
    <path id="Path_13" data-name="Path 13" d="M5361.764,3085.613h-9.59c-4.148,0-6.794,1.9-7.871,5.559l-26.021,68.956c-.467,1.665-1.236,2.5-2.3,2.5-1.081,0-1.856-.835-2.31-2.5l-41.587-106.058h29.1a8.275,8.275,0,0,0,6.066-2.2,8.136,8.136,0,0,0,2.21-6.045v-4.111a8.07,8.07,0,0,0-2.21-6.032,8.212,8.212,0,0,0-6.066-2.2h-52.8c-4.441,0-6.44,2.221-4.807,6.337l57.476,143.432c.76,2.432,1.807,4.094,3.094,4.927a9.462,9.462,0,0,0,5.173,1.265l13.052-.017a9.53,9.53,0,0,0,5.183-1.261c1.287-.837,2.326-2.492,3.1-4.928l35.84-91.252C5367.742,3087.72,5366.212,3085.613,5361.764,3085.613Z" transform="translate(-5243.018 -3033.393)" fill="#68b984"/>
  </g>
</svg>
