<?xml version="1.0" encoding="UTF-8"?><svg xmlns="http://www.w3.org/2000/svg" viewBox="0 0 487.07 288.42"><g style="isolation:isolate;"><g id="Layer_2"><g id="Layer_1-2"><g><rect width="487.07" height="288.42" style="fill:#fff;"/><text transform="translate(310.68 55.41)" style="fill:#c379b3; font-family:GothamBlack, GothamBlack; font-size:6.5px;"><tspan x="0" y="0"> </tspan></text><text transform="translate(311.89 63.41)" style="fill:#fff; font-family:GothamBlack, GothamBlack; font-size:6.5px;"><tspan x="0" y="0"> </tspan></text><text transform="translate(311.75 71.42)" style="fill:#c379b3; font-family:GothamLight, GothamLight; font-size:6.5px;"><tspan x="0" y="0"> </tspan></text><text transform="translate(312.2 79.42)" style="fill:#00bac8; font-family:GothamBlack, GothamBlack; font-size:6.5px;"><tspan x="0" y="0"> </tspan></text><g><text transform="translate(52.74 156.83)" style="fill:#231f20; font-family:GothamBlack, GothamBlack; font-size:13.05px; mix-blend-mode:multiply;"><tspan x="0" y="0" style="letter-spacing:.02em;">1</tspan><tspan x="6.94" y="0">.</tspan></text><text transform="translate(75.5 156.83)" style="fill:#231f20; font-family:GothamLight, GothamLight; font-size:13.05px; letter-spacing:.02em; mix-blend-mode:multiply;"><tspan x="0" y="0">Viola.Spotlight</tspan></text><text transform="translate(52.74 177.45)" style="fill:#231f20; font-family:GothamBlack, GothamBlack; font-size:13.05px; mix-blend-mode:multiply;"><tspan x="0" y="0" style="letter-spacing:.02em;">2</tspan><tspan x="6.93" y="0">.</tspan></text><text transform="translate(75.5 177.45)" style="fill:#231f20; font-family:GothamLight, GothamLight; font-size:13.05px; letter-spacing:.02em; mix-blend-mode:multiply;"><tspan x="0" y="0">Viola.Skylight</tspan></text><text transform="translate(52.74 198.07)" style="fill:#231f20; font-family:GothamBlack, GothamBlack; font-size:13.05px; mix-blend-mode:multiply;"><tspan x="0" y="0" style="letter-spacing:.02em;">3</tspan><tspan x="6.92" y="0" style="letter-spacing:0em;">.</tspan></text><text transform="translate(75.5 198.07)" style="fill:#231f20; font-family:GothamLight, GothamLight; font-size:13.05px; letter-spacing:.02em; mix-blend-mode:multiply;"><tspan x="0" y="0">Viola.Hoarding</tspan></text><text transform="translate(52.74 218.7)" style="fill:#231f20; font-family:GothamBlack, GothamBlack; font-size:13.05px; mix-blend-mode:multiply;"><tspan x="0" y="0" style="letter-spacing:.02em;">4</tspan><tspan x="6.92" y="0" style="letter-spacing:0em;">.</tspan></text><text transform="translate(75.52 218.7)" style="fill:#231f20; font-family:GothamLight, GothamLight; font-size:13.05px; letter-spacing:.02em; mix-blend-mode:multiply;"><tspan x="0" y="0">Digital.Skylight</tspan></text><text transform="translate(52.74 239.32)" style="fill:#231f20; font-family:GothamBlack, GothamBlack; font-size:13.05px; mix-blend-mode:multiply;"><tspan x="0" y="0" style="letter-spacing:.02em;">5</tspan><tspan x="6.92" y="0" style="letter-spacing:0em;">.</tspan></text><text transform="translate(75.52 239.32)" style="fill:#231f20; font-family:GothamLight, GothamLight; font-size:13.05px; letter-spacing:.02em; mix-blend-mode:multiply;"><tspan x="0" y="0">Viola.Bussight</tspan></text></g><g><text transform="translate(248.55 83.88)" style="fill:#231f20; font-family:GothamBlack, GothamBlack; font-size:12px; letter-spacing:1.39em;"><tspan x="0" y="0">MEDIUMS</tspan></text><rect x="235.28" y="66.34" width="192.5" height="26.15" style="fill:none; stroke:#231f20; stroke-width:.9px;"/></g><g><g><text transform="translate(349.01 239.28)" style="fill:#231f20; font-family:GothamMedium, GothamMedium; font-size:10.7px;"><tspan x="0" y="0">Viola.Spotlight</tspan></text><g><path d="m380.66,196.55c0-5.32,0-10.64-.01-15.95,0-.5.14-.62.63-.62,5.54.02,11.07.02,16.61,0,.45,0,.57.11.57.56-.01,10.69-.01,21.38,0,32.07,0,.44-.12.54-.54.54-5.57-.01-11.14-.01-16.71,0-.42,0-.54-.1-.54-.54.02-5.35.01-10.71.01-16.06Zm17.17,0c0-5.1,0-10.2,0-15.3,0-.46-.09-.61-.58-.61-5.14.02-10.27.02-15.41,0-.5,0-.58.15-.58.61.01,10.2.01,20.4,0,30.6,0,.46.08.61.58.61,5.14-.02,10.27-.02,15.41,0,.5,0,.59-.15.58-.61-.02-5.1,0-10.2,0-15.3Z" style="fill:#ab4d9d;"/><path d="m392.05,218.09c0,1.28-.01,2.57,0,3.85,0,.35-.05.51-.46.5-1.37-.03-2.75-.02-4.12,0-.33,0-.43-.08-.43-.42.01-2.66.01-5.31,0-7.97,0-.35.11-.42.43-.42,1.37.02,2.75.02,4.12,0,.35,0,.46.08.46.45-.02,1.34,0,2.67,0,4.01Z" style="fill:#ab4d9d;"/><path d="m389.57,175.98c.7,0,1.41.01,2.11,0,.28,0,.38.07.37.36-.02.92-.02,1.84,0,2.76,0,.33-.13.38-.41.38-1.39-.01-2.78-.01-4.17,0-.33,0-.44-.09-.43-.42.02-.88.02-1.77,0-2.65,0-.32.07-.45.41-.43.7.03,1.41,0,2.11,0Z" style="fill:#ab4d9d;"/><path d="m397.54,196.57c0,4.95,0,9.91.01,14.86,0,.49-.14.59-.6.59-4.94-.02-9.87-.02-14.81,0-.47,0-.6-.11-.6-.59.02-9.91.02-19.82,0-29.73,0-.5.14-.62.63-.62,4.94.02,9.87.02,14.81,0,.45,0,.57.12.57.57-.02,4.97-.01,9.95-.01,14.92Z" style="fill:#ab4d9d;"/></g></g><g><text transform="translate(233.59 192.34)" style="fill:#231f20; font-family:GothamMedium, GothamMedium; font-size:10.7px; mix-blend-mode:multiply;"><tspan x="0" y="0">Viola.Hoarding</tspan></text><path d="m273.7,178.07c-6.34,0-12.68,0-19.02,0-.39,0-.49-.11-.47-.49.03-.92.02-1.85,0-2.77,0-.28.08-.37.35-.35.32.02.64,0,.97,0,.22,0,.3-.07.29-.29-.01-.31,0-.62,0-.92,0-2.95,0-5.91.01-8.86,0-.38-.11-.5-.47-.45-.14.02-.28,0-.42,0-.77,0-.76,0-.72-.77,0-.19.05-.29.26-.27.08,0,.17,0,.25,0,12.65,0,25.31,0,37.96,0,.17,0,.43-.11.48.1.06.28.02.58,0,.87,0,.09-.14.06-.22.06-.29,0-.59.03-.88,0-.36-.04-.47.07-.47.45.02,2.8.01,5.6.01,8.4,0,.46,0,.92,0,1.39,0,.22.07.3.29.29.35-.01.7,0,1.05,0,.2,0,.27.07.27.27,0,1.02,0,2.04,0,3.07,0,.19-.05.29-.26.27-.11-.01-.22,0-.34,0-6.3,0-12.6,0-18.9,0Zm.03-3.6c5.47,0,10.94,0,16.42,0,.36,0,.48-.08.47-.46-.02-3.2-.02-6.41,0-9.61,0-.38-.12-.46-.47-.46-10.93,0-21.86,0-32.79,0-.37,0-.5.08-.49.48.02,3.18.02,6.35,0,9.53,0,.44.13.52.54.52,5.44-.01,10.89,0,16.33,0Z" style="fill:#90191c;"/></g><g><text transform="translate(348.04 149.84)" style="fill:#231f20; font-family:GothamMedium, GothamMedium; font-size:10.7px;"><tspan x="0" y="0">Digital.Skylight</tspan></text><path d="m386.67,112.64c7.23,0,14.46,0,21.69,0,.18,0,.46-.11.52.1.09.33.08.69,0,1.03-.03.12-.19.08-.3.08-.4,0-.79.01-1.19,0-.25,0-.33.08-.33.33,0,2.06,0,4.12,0,6.18,0,.28.11.35.37.34.4-.01.79,0,1.19,0,.23,0,.3.08.3.31,0,1.17-.01,2.35,0,3.52,0,.34-.21.29-.41.29-1.32,0-2.63.01-3.95,0-.34,0-.48.07-.46.44.03.46,0,.92.01,1.38,0,.23-.08.32-.3.3-.05,0-.1,0-.14,0-.39.04-.91-.18-1.13.1-.19.23-.07.73-.07,1.1,0,.65.02,1.3,0,1.95-.01.34.07.47.44.46.76-.03,1.52,0,2.28-.02.3,0,.44.06.41.39-.03.33-.02.67,0,1,.01.25-.09.32-.33.32-3.2,0-6.4,0-9.61,0-.22,0-.3-.06-.31-.29-.1-1.41-.1-1.41,1.27-1.41.51,0,1.01,0,1.52,0,.23,0,.34-.05.34-.31-.01-.98-.01-1.97,0-2.95,0-.28-.11-.37-.37-.34-.02,0-.03,0-.05,0-.4-.04-.93.18-1.18-.1-.24-.27-.07-.79-.07-1.2,0-.81,0-.81-.79-.81-6.31,0-12.62,0-18.93,0-.4,0-.57.07-.53.51.04.42,0,.86.01,1.28,0,.25-.09.34-.33.33-.32-.02-.63.01-.95,0-.28-.02-.39.07-.39.37.02.97.02,1.93,0,2.9,0,.29.12.34.37.33.79-.01,1.59.01,2.38-.01.32,0,.42.1.39.4-.05.42.18.96-.1,1.23-.25.25-.78.07-1.19.07-2.82,0-5.64,0-8.47.01-.39,0-.51-.1-.5-.5.02-1.21,0-1.21,1.2-1.21.52,0,1.05-.01,1.57,0,.25,0,.37-.05.36-.34-.02-.98-.01-1.97,0-2.95,0-.25-.09-.33-.33-.32-.33.02-.67,0-1,0-.25.01-.33-.09-.32-.33.02-.41-.03-.83.01-1.24.05-.48-.14-.57-.58-.56-1.27.03-2.54,0-3.8.02-.32,0-.44-.07-.43-.42.02-1.11.02-2.22,0-3.33,0-.29.09-.39.38-.38.38.02.76,0,1.14,0,.24,0,.34-.06.34-.32,0-2.08,0-4.15,0-6.23,0-.23-.08-.31-.31-.3-.4.01-.79,0-1.19,0-.26.01-.36-.06-.37-.34-.02-.88-.04-.88.83-.88h21.4Zm.01,8.06c6.23,0,12.46,0,18.69.01.47,0,.58-.13.57-.58-.03-1.92-.02-3.84,0-5.76,0-.41-.09-.53-.52-.53-2.58.02-5.17.01-7.75.01-9.88,0-19.76,0-29.63-.01-.46,0-.58.12-.57.57.03,1.89.01,3.77.01,5.66q0,.62.6.62c6.2,0,12.4,0,18.6,0Z" style="fill:#f3702a;"/></g><g><text transform="translate(236.66 149.75)" style="fill:#231f20; font-family:GothamMedium, GothamMedium; font-size:10.7px;"><tspan x="0" y="0">Viola.Skylight</tspan></text><path d="m272.67,112.64c7.23,0,14.46,0,21.69,0,.18,0,.46-.11.52.1.09.33.08.69,0,1.03-.03.12-.19.08-.3.08-.4,0-.79.01-1.19,0-.25,0-.33.08-.33.33,0,2.06,0,4.12,0,6.18,0,.28.11.35.37.34.4-.01.79,0,1.19,0,.23,0,.3.08.3.31,0,1.17-.01,2.35,0,3.52,0,.34-.21.29-.41.29-1.32,0-2.63.01-3.95,0-.34,0-.48.07-.46.44.03.46,0,.92.01,1.38,0,.23-.08.32-.3.3-.05,0-.1,0-.14,0-.39.04-.91-.18-1.13.1-.19.23-.07.73-.07,1.1,0,.65.02,1.3,0,1.95-.01.34.07.47.44.46.76-.03,1.52,0,2.28-.02.3,0,.44.06.41.39-.03.33-.02.67,0,1,.01.25-.09.32-.33.32-3.2,0-6.4,0-9.61,0-.22,0-.3-.06-.31-.29-.1-1.41-.1-1.41,1.27-1.41.51,0,1.01,0,1.52,0,.23,0,.34-.05.34-.31-.01-.98-.01-1.97,0-2.95,0-.28-.11-.37-.37-.34-.02,0-.03,0-.05,0-.4-.04-.93.18-1.18-.1-.24-.27-.07-.79-.07-1.2,0-.81,0-.81-.79-.81-6.31,0-12.62,0-18.93,0-.4,0-.57.07-.53.51.04.42,0,.86.01,1.28,0,.25-.09.34-.33.33-.32-.02-.63.01-.95,0-.28-.02-.39.07-.39.37.02.97.02,1.93,0,2.9,0,.29.12.34.37.33.79-.01,1.59.01,2.38-.01.32,0,.42.1.39.4-.05.42.18.96-.1,1.23-.25.25-.78.07-1.19.07-2.82,0-5.64,0-8.47.01-.39,0-.51-.1-.5-.5.02-1.21,0-1.21,1.2-1.21.52,0,1.05-.01,1.57,0,.25,0,.37-.05.36-.34-.02-.98-.01-1.97,0-2.95,0-.25-.09-.33-.33-.32-.33.02-.67,0-1,0-.25.01-.33-.09-.32-.33.02-.41-.03-.83.01-1.24.05-.48-.14-.57-.58-.56-1.27.03-2.54,0-3.8.02-.32,0-.44-.07-.43-.42.02-1.11.02-2.22,0-3.33,0-.29.09-.39.38-.38.38.02.76,0,1.14,0,.24,0,.34-.06.34-.32,0-2.08,0-4.15,0-6.23,0-.23-.08-.31-.31-.3-.4.01-.79,0-1.19,0-.26.01-.36-.06-.37-.34-.02-.88-.04-.88.83-.88h21.4Zm.01,8.06c6.23,0,12.46,0,18.69.01.47,0,.58-.13.57-.58-.03-1.92-.02-3.84,0-5.76,0-.41-.09-.53-.52-.53-2.58.02-5.17.01-7.75.01-9.88,0-19.76,0-29.63-.01-.46,0-.58.12-.57.57.03,1.89.01,3.77.01,5.66q0,.62.6.62c6.2,0,12.4,0,18.6,0Z" style="fill:#005284;"/></g><g><text transform="translate(235.38 239.62)" style="fill:#231f20; font-family:GothamMedium, GothamMedium; font-size:10.7px;"><tspan x="0" y="0">Viola.Bussight</tspan></text><path d="m262.98,218.12c0-2.29,0-4.59,0-6.88,0-.15.14-.42-.19-.42-.27,0-.35.21-.35.44,0,.89,0,1.77,0,2.66,0,.56-.1.66-.65.66q-1.13,0-1.13-1.13c0-.64,0-1.27,0-1.91,0-1.14.64-1.78,1.78-1.8.59,0,.54.09.54-.54,0-1.18,0-2.37,0-3.55,0-1.05.66-1.79,1.71-1.92,1.66-.19,3.32-.32,4.99-.39,2.27-.1,4.54-.08,6.8.03,1.41.07,2.81.19,4.21.36,1.04.13,1.7.88,1.7,1.93,0,1.25,0,2.49,0,3.74,0,.26.07.36.33.34.29-.03.58,0,.85.08.67.19,1.12.78,1.13,1.54.02.89.01,1.77,0,2.66,0,.41-.16.55-.58.56-.22,0-.45,0-.67,0-.37,0-.52-.15-.52-.52,0-.87,0-1.75,0-2.62,0-.09,0-.18,0-.26-.03-.21-.13-.36-.36-.36-.3,0-.18.25-.18.4,0,4.59,0,9.18,0,13.77,0,.56-.14.99-.75,1.12-.16.04-.14.15-.14.26,0,.22,0,.45,0,.67-.02.31-.17.49-.5.49-.62,0-1.25,0-1.87,0-.3,0-.46-.17-.47-.47,0-.01,0-.02,0-.04-.02-.28.12-.66-.05-.83-.21-.2-.59-.07-.9-.07-3.53,0-7.06,0-10.59-.01-.35,0-.44.1-.43.44.02.98,0,.98-.97.98-.44,0-.87,0-1.31,0-.38,0-.54-.16-.56-.54,0-.12,0-.25,0-.37.02-.29,0-.49-.36-.59-.42-.12-.52-.52-.52-.94,0-2.32,0-4.64,0-6.96Zm9.73-9.98c-2.59,0-5.19,0-7.78,0-.69,0-1.02.32-1.02,1,0,2.93,0,5.86,0,8.79,0,.6.25.91.84.99.58.08,1.16.15,1.74.2,3.21.28,6.42.36,9.63.19,1.48-.08,2.96-.18,4.43-.38.69-.09.92-.38.92-1.07,0-2.88,0-5.76,0-8.64,0-.78-.3-1.08-1.09-1.08-2.56,0-5.11,0-7.67,0Zm0-3.52c-1.96,0-3.92,0-5.87,0-.5,0-.67.18-.67.67,0,.41,0,.82,0,1.23,0,.55.16.71.71.71,1.76,0,3.52,0,5.28,0,2.12,0,4.24,0,6.36,0,.52,0,.69-.17.69-.69,0-.4,0-.8,0-1.2,0-.57-.15-.73-.73-.73-1.92,0-3.84,0-5.76,0Zm-.03,20.59c.69,0,1.37,0,2.06,0,.64,0,.63,0,.63-.65,0-.28-.09-.42-.38-.41-1.53,0-3.07,0-4.6,0-.44,0-.38.29-.38.56-.01.29,0,.52.4.51.76-.02,1.52,0,2.28,0Zm-5.5-1.87c.49,0,.86-.34.88-.82.01-.49-.36-.89-.84-.91-.46-.01-.89.41-.89.88,0,.46.38.85.85.85Zm11.01,0c.47,0,.86-.39.86-.85,0-.47-.42-.89-.88-.88-.48,0-.86.41-.85.91.01.48.38.83.87.82Zm-13.42-.22c.47,0,.86-.38.87-.84,0-.46-.41-.89-.87-.89-.46,0-.85.39-.86.86,0,.49.37.88.86.87Zm16.7-.87c0-.47-.38-.86-.85-.86-.46,0-.89.41-.89.88,0,.48.4.86.9.85.48,0,.84-.38.83-.86Z" style="fill:#5ab547;"/></g></g><g><path d="m136.38,110.25c0,.5-.09.97-.26,1.39-.17.42-.42.78-.73,1.08-.31.3-.68.53-1.11.7-.42.17-.89.25-1.4.25s-.97-.08-1.4-.25c-.43-.17-.79-.4-1.11-.7-.31-.3-.55-.66-.73-1.08-.17-.42-.26-.89-.26-1.39v-3.57c0-.5.09-.97.26-1.39.18-.42.42-.78.73-1.07.31-.3.68-.53,1.11-.7.42-.17.89-.25,1.4-.25s.97.08,1.4.25c.43.17.8.4,1.11.7.31.3.56.65.73,1.07.17.42.26.89.26,1.39v3.57Zm-1.41-3.57c0-.59-.18-1.09-.53-1.48-.36-.4-.87-.6-1.55-.6s-1.19.2-1.54.6c-.36.4-.53.89-.53,1.48v3.57c0,.59.18,1.09.53,1.48.36.4.87.59,1.54.59s1.19-.2,1.55-.59c.36-.39.53-.89.53-1.48v-3.57Z" style="fill:#767b7c;"/><path d="m142.25,107.28c0-.14.04-.25.12-.33.08-.08.19-.12.33-.12h.45c.14,0,.25.04.33.12.08.08.12.19.12.33v3.72c0,.35-.06.7-.19,1.02-.13.33-.31.61-.54.86-.23.24-.52.44-.85.58-.34.14-.71.22-1.12.22s-.79-.07-1.12-.22c-.33-.14-.62-.34-.86-.58-.24-.25-.42-.53-.55-.86-.13-.32-.19-.67-.19-1.02v-3.72c0-.14.04-.25.12-.33.08-.08.19-.12.33-.12h.45c.14,0,.25.04.33.12.08.08.12.19.12.33v3.72c0,.37.11.71.34.98.22.28.57.43,1.05.43s.82-.14,1.04-.43c.22-.28.33-.61.33-.98v-3.72Z" style="fill:#767b7c;"/><path d="m148.06,113.52c-.74,0-1.29-.2-1.64-.61-.35-.4-.53-.97-.53-1.69v-2.97c0-.1-.05-.15-.14-.15h-.45c-.14,0-.25-.04-.33-.12-.08-.08-.12-.19-.12-.33v-.37c0-.14.04-.25.12-.33.08-.08.19-.12.33-.12h.45c.1,0,.14-.05.14-.15v-1.04c0-.14.04-.25.12-.33.08-.08.19-.12.33-.12h.45c.14,0,.25.04.33.12.08.08.12.19.12.33v1.04c0,.1.05.15.15.15h1.12c.14,0,.25.04.33.12.08.08.12.19.12.33v.37c0,.14-.04.25-.12.33-.08.08-.19.12-.33.12h-1.12c-.1,0-.15.05-.15.15v2.9c0,.35.07.62.2.82.13.2.39.3.77.3h.3c.14,0,.25.04.33.12.08.08.12.19.12.33v.37c0,.14-.04.25-.12.33s-.19.12-.33.12h-.43Z" style="fill:#767b7c;"/><path d="m152.73,113.52c-.39,0-.74-.07-1.06-.19-.32-.13-.6-.3-.83-.53-.22-.22-.4-.49-.53-.8-.12-.31-.19-.65-.19-1v-1.63c0-.36.06-.69.19-1,.13-.31.31-.58.53-.8.22-.22.49-.4.8-.53.31-.13.65-.19,1.02-.19h1.47c.1,0,.15-.05.15-.15v-2.82c0-.14.04-.25.12-.33.08-.08.19-.12.33-.12h.44c.14,0,.25.04.33.12.08.08.12.19.12.33v9.21c0,.14-.04.25-.12.33s-.19.12-.33.12h-2.45Zm1.56-5.27c0-.1-.05-.15-.15-.15h-1.41c-.38,0-.68.11-.92.35-.23.23-.35.54-.35.91v1.63c0,.38.12.68.37.92.25.23.54.35.89.35h1.41c.1,0,.15-.05.15-.15v-3.86Z" style="fill:#767b7c;"/><path d="m160.6,113.67c-.49,0-.94-.09-1.36-.28-.42-.18-.79-.43-1.11-.75-.32-.31-.57-.69-.75-1.1-.18-.42-.28-.88-.28-1.36s.09-.94.28-1.36c.18-.42.43-.79.75-1.11.32-.32.69-.56,1.11-.75.42-.18.87-.28,1.36-.28s.94.09,1.36.28c.42.19.79.43,1.11.75.31.32.56.69.75,1.11.18.42.28.87.28,1.36s-.09.94-.28,1.36c-.19.42-.43.79-.75,1.1-.32.32-.69.57-1.11.75-.42.19-.87.28-1.36.28m0-1.26c.31,0,.59-.06.85-.18.26-.12.49-.28.68-.47.19-.2.34-.44.45-.7.11-.27.16-.56.16-.87s-.05-.6-.16-.87c-.11-.27-.26-.51-.45-.71-.19-.2-.42-.36-.68-.48-.26-.12-.55-.18-.85-.18s-.59.06-.86.18c-.26.12-.49.28-.68.48-.19.2-.34.43-.45.71-.11.27-.16.56-.16.87s.05.6.16.87c.11.27.26.5.45.7.19.2.42.36.68.47.26.12.55.18.86.18" style="fill:#767b7c;"/><path d="m168.77,113.67c-.48,0-.94-.09-1.36-.28-.42-.18-.79-.43-1.11-.75-.32-.31-.56-.69-.75-1.1-.18-.42-.28-.88-.28-1.36s.09-.94.28-1.36c.18-.42.43-.79.75-1.11.32-.32.69-.56,1.11-.75.42-.18.87-.28,1.36-.28s.94.09,1.36.28c.42.19.79.43,1.11.75.31.32.56.69.75,1.11.18.42.28.87.28,1.36s-.09.94-.28,1.36c-.19.42-.44.79-.75,1.1-.31.32-.69.57-1.11.75-.42.19-.87.28-1.36.28m0-1.26c.31,0,.59-.06.86-.18.26-.12.49-.28.68-.47.19-.2.35-.44.46-.7.11-.27.16-.56.16-.87s-.05-.6-.16-.87c-.11-.27-.26-.51-.46-.71-.19-.2-.42-.36-.68-.48-.26-.12-.55-.18-.86-.18s-.59.06-.86.18c-.26.12-.49.28-.68.48-.19.2-.34.43-.45.71-.11.27-.17.56-.17.87s.06.6.17.87c.11.27.26.5.45.7.19.2.42.36.68.47.26.12.55.18.86.18" style="fill:#767b7c;"/><path d="m174.2,113.52c-.14,0-.25-.04-.33-.12-.08-.08-.12-.19-.12-.33v-3.79c0-.72.21-1.31.63-1.77.42-.46,1-.68,1.74-.68h.54c.14,0,.25.04.33.12.08.08.12.19.12.33v.37c0,.14-.04.25-.12.33-.08.08-.19.12-.33.12h-.45c-.38,0-.66.11-.84.35-.18.23-.28.54-.28.92v3.71c0,.14-.04.25-.12.33-.08.08-.19.12-.33.12h-.44Z" style="fill:#767b7c;"/><path d="m93.44,48.74h-2.28c-.71,0-1.26.2-1.67.61-.4.4-.61.96-.61,1.67v3.79c0,.71.2,1.26.61,1.67.41.41.96.61,1.67.61h2.28c.71,0,1.26-.2,1.67-.61.4-.4.61-.96.61-1.67v-3.79c0-.7-.2-1.26-.61-1.67-.4-.4-.96-.61-1.67-.61" style="fill:#61a60e;"/><path d="m93.44,62.39h-2.28c-.71,0-1.26.2-1.67.61-.4.41-.61.96-.61,1.67v29.67c0,.71.2,1.26.61,1.67.41.4.96.61,1.67.61h2.28c.71,0,1.26-.2,1.67-.61.4-.4.61-.96.61-1.67v-29.67c0-.7-.2-1.26-.61-1.67-.4-.4-.96-.61-1.67-.61" style="fill:#61a60e;"/><path d="m128.29,67.39c-1.55-1.56-3.36-2.78-5.43-3.69-2.06-.9-4.28-1.35-6.67-1.35s-4.6.45-6.67,1.35c-2.07.9-3.88,2.13-5.43,3.69-1.56,1.55-2.78,3.36-3.68,5.43-.9,2.07-1.35,4.29-1.35,6.67s.45,4.6,1.35,6.67c.9,2.06,2.13,3.88,3.68,5.43,1.55,1.56,3.37,2.78,5.43,3.68,2.06.9,4.29,1.35,6.67,1.35s4.6-.45,6.67-1.35c2.07-.9,3.88-2.12,5.43-3.68,1.55-1.55,2.78-3.36,3.68-5.43.9-2.07,1.35-4.29,1.35-6.67s-.45-4.6-1.35-6.67c-.9-2.06-2.13-3.88-3.68-5.43m-2.33,16.36c-.54,1.34-1.28,2.49-2.23,3.46-.94.98-2.06,1.75-3.35,2.33-1.29.59-2.69.88-4.2.88s-2.91-.29-4.19-.88c-1.29-.58-2.4-1.35-3.35-2.33-.95-.97-1.69-2.12-2.22-3.46-.54-1.34-.8-2.76-.8-4.27s.26-2.92.8-4.26c.53-1.34,1.27-2.49,2.22-3.47.95-.97,2.07-1.74,3.35-2.32,1.28-.58,2.69-.88,4.19-.88s2.9.3,4.2.88c1.28.58,2.4,1.35,3.35,2.32.95.98,1.69,2.13,2.23,3.47.53,1.34.8,2.76.8,4.26s-.27,2.93-.8,4.27" style="fill:#61a60e;"/><path d="m146.91,90.16h-.76c-.86,0-1.51-.24-1.97-.72-.46-.48-.68-1.12-.68-1.94v-40.06c0-.71-.2-1.27-.61-1.67-.41-.4-.96-.6-1.67-.6h-2.27c-.71,0-1.27.2-1.67.6-.41.41-.61.96-.61,1.67v39.31c0,3.04.72,5.44,2.16,7.21,1.44,1.77,3.78,2.66,7.02,2.66h1.06c.7,0,1.26-.2,1.66-.61.4-.4.61-.96.61-1.67v-1.9c0-.71-.2-1.27-.61-1.67-.4-.4-.96-.61-1.66-.61" style="fill:#61a60e;"/><path d="m176.77,62.98c-.4-.4-.95-.59-1.64-.59h-11.1c-2.09,0-4,.37-5.74,1.11-1.74.75-3.24,1.75-4.51,3.02-1.26,1.27-2.25,2.77-2.94,4.5-.69,1.74-1.04,3.57-1.04,5.51v6.62c0,1.99.3,3.81.89,5.47.59,1.66,1.41,3.09,2.46,4.28,1.04,1.19,2.29,2.11,3.73,2.75,1.44.65,3.03.97,4.77.97,1.94,0,3.59-.31,4.96-.9,1.36-.59,2.4-1.36,3.09-2.31.2-.25.41-.33.64-.26.33.1.33,1,.33,1.29,0,.54.2,1.04.6,1.49.4.44.94.67,1.64.67h2.24c.69,0,1.24-.2,1.64-.6.39-.39.59-.94.59-1.64v-29.77c0-.69-.2-1.24-.59-1.64m-6.12,19.05c0,1.04-.16,2.05-.48,3.02-.32.96-.81,1.84-1.45,2.64-.65.8-1.45,1.42-2.42,1.9-.98.47-2.13.71-3.47.71-1.99,0-3.54-.6-4.66-1.79-1.11-1.19-1.68-2.73-1.68-4.61v-7.37c0-2.13.69-3.97,2.05-5.51,1.37-1.54,3.29-2.3,5.77-2.3h5.59c.49,0,.74.24.74.74v12.58Z" style="fill:#61a60e;"/><path d="m84.03,62.38h-3.14c-1.36,0-2.23.62-2.58,1.83l-8.54,22.73c-.15.55-.4.82-.75.82s-.61-.28-.76-.82l-13.64-34.96h9.54c.84,0,1.51-.25,1.99-.72.48-.49.72-1.15.72-1.99v-1.36c0-.84-.24-1.51-.72-1.99-.48-.48-1.15-.72-1.99-.72h-17.32c-1.46,0-2.11.73-1.58,2.09l18.85,47.28c.25.8.59,1.35,1.02,1.62.43.28,1,.42,1.69.42h4.28c.7,0,1.27-.14,1.7-.42.42-.28.76-.82,1.02-1.63l11.76-30.08c.41-1.41-.09-2.1-1.55-2.1" style="fill:#61a60e;"/><path d="m136.38,110.25c0,.5-.09.97-.26,1.39-.17.42-.42.78-.73,1.08-.31.3-.68.53-1.11.7-.42.17-.89.25-1.4.25s-.97-.08-1.4-.25c-.43-.17-.79-.4-1.11-.7-.31-.3-.55-.66-.73-1.08-.17-.42-.26-.89-.26-1.39v-3.57c0-.5.09-.97.26-1.39.18-.42.42-.78.73-1.07.31-.3.68-.53,1.11-.7.42-.17.89-.25,1.4-.25s.97.08,1.4.25c.43.17.8.4,1.11.7.31.3.56.65.73,1.07.17.42.26.89.26,1.39v3.57Zm-1.41-3.57c0-.59-.18-1.09-.53-1.48-.36-.4-.87-.6-1.55-.6s-1.19.2-1.54.6c-.36.4-.53.89-.53,1.48v3.57c0,.59.18,1.09.53,1.48.36.4.87.59,1.54.59s1.19-.2,1.55-.59c.36-.39.53-.89.53-1.48v-3.57Z" style="fill:#9ba0a3;"/><path d="m142.25,107.28c0-.14.04-.25.12-.33.08-.08.19-.12.33-.12h.45c.14,0,.25.04.33.12.08.08.12.19.12.33v3.72c0,.35-.06.7-.19,1.02-.13.33-.31.61-.54.86-.23.24-.52.44-.85.58-.34.14-.71.22-1.12.22s-.79-.07-1.12-.22c-.33-.14-.62-.34-.86-.58-.24-.25-.42-.53-.55-.86-.13-.32-.19-.67-.19-1.02v-3.72c0-.14.04-.25.12-.33.08-.08.19-.12.33-.12h.45c.14,0,.25.04.33.12.08.08.12.19.12.33v3.72c0,.37.11.71.34.98.22.28.57.43,1.05.43s.82-.14,1.04-.43c.22-.28.33-.61.33-.98v-3.72Z" style="fill:#9ba0a3;"/><path d="m148.06,113.52c-.74,0-1.29-.2-1.64-.61-.35-.4-.53-.97-.53-1.69v-2.97c0-.1-.05-.15-.14-.15h-.45c-.14,0-.25-.04-.33-.12-.08-.08-.12-.19-.12-.33v-.37c0-.14.04-.25.12-.33.08-.08.19-.12.33-.12h.45c.1,0,.14-.05.14-.15v-1.04c0-.14.04-.25.12-.33.08-.08.19-.12.33-.12h.45c.14,0,.25.04.33.12.08.08.12.19.12.33v1.04c0,.1.05.15.15.15h1.12c.14,0,.25.04.33.12.08.08.12.19.12.33v.37c0,.14-.04.25-.12.33-.08.08-.19.12-.33.12h-1.12c-.1,0-.15.05-.15.15v2.9c0,.35.07.62.2.82.13.2.39.3.77.3h.3c.14,0,.25.04.33.12.08.08.12.19.12.33v.37c0,.14-.04.25-.12.33s-.19.12-.33.12h-.43Z" style="fill:#9ba0a3;"/><path d="m152.73,113.52c-.39,0-.74-.07-1.06-.19-.32-.13-.6-.3-.83-.53-.22-.22-.4-.49-.53-.8-.12-.31-.19-.65-.19-1v-1.63c0-.36.06-.69.19-1,.13-.31.31-.58.53-.8.22-.22.49-.4.8-.53.31-.13.65-.19,1.02-.19h1.47c.1,0,.15-.05.15-.15v-2.82c0-.14.04-.25.12-.33.08-.08.19-.12.33-.12h.44c.14,0,.25.04.33.12.08.08.12.19.12.33v9.21c0,.14-.04.25-.12.33s-.19.12-.33.12h-2.45Zm1.56-5.27c0-.1-.05-.15-.15-.15h-1.41c-.38,0-.68.11-.92.35-.23.23-.35.54-.35.91v1.63c0,.38.12.68.37.92.25.23.54.35.89.35h1.41c.1,0,.15-.05.15-.15v-3.86Z" style="fill:#9ba0a3;"/><path d="m160.6,113.67c-.49,0-.94-.09-1.36-.28-.42-.18-.79-.43-1.11-.75-.32-.31-.57-.69-.75-1.1-.18-.42-.28-.88-.28-1.36s.09-.94.28-1.36c.18-.42.43-.79.75-1.11.32-.32.69-.56,1.11-.75.42-.18.87-.28,1.36-.28s.94.09,1.36.28c.42.19.79.43,1.11.75.31.32.56.69.75,1.11.18.42.28.87.28,1.36s-.09.94-.28,1.36c-.19.42-.43.79-.75,1.1-.32.32-.69.57-1.11.75-.42.19-.87.28-1.36.28m0-1.26c.31,0,.59-.06.85-.18.26-.12.49-.28.68-.47.19-.2.34-.44.45-.7.11-.27.16-.56.16-.87s-.05-.6-.16-.87c-.11-.27-.26-.51-.45-.71-.19-.2-.42-.36-.68-.48-.26-.12-.55-.18-.85-.18s-.59.06-.86.18c-.26.12-.49.28-.68.48-.19.2-.34.43-.45.71-.11.27-.16.56-.16.87s.05.6.16.87c.11.27.26.5.45.7.19.2.42.36.68.47.26.12.55.18.86.18" style="fill:#9ba0a3;"/><path d="m168.77,113.67c-.48,0-.94-.09-1.36-.28-.42-.18-.79-.43-1.11-.75-.32-.31-.56-.69-.75-1.1-.18-.42-.28-.88-.28-1.36s.09-.94.28-1.36c.18-.42.43-.79.75-1.11.32-.32.69-.56,1.11-.75.42-.18.87-.28,1.36-.28s.94.09,1.36.28c.42.19.79.43,1.11.75.31.32.56.69.75,1.11.18.42.28.87.28,1.36s-.09.94-.28,1.36c-.19.42-.44.79-.75,1.1-.31.32-.69.57-1.11.75-.42.19-.87.28-1.36.28m0-1.26c.31,0,.59-.06.86-.18.26-.12.49-.28.68-.47.19-.2.35-.44.46-.7.11-.27.16-.56.16-.87s-.05-.6-.16-.87c-.11-.27-.26-.51-.46-.71-.19-.2-.42-.36-.68-.48-.26-.12-.55-.18-.86-.18s-.59.06-.86.18c-.26.12-.49.28-.68.48-.19.2-.34.43-.45.71-.11.27-.17.56-.17.87s.06.6.17.87c.11.27.26.5.45.7.19.2.42.36.68.47.26.12.55.18.86.18" style="fill:#9ba0a3;"/><path d="m174.2,113.52c-.14,0-.25-.04-.33-.12-.08-.08-.12-.19-.12-.33v-3.79c0-.72.21-1.31.63-1.77.42-.46,1-.68,1.74-.68h.54c.14,0,.25.04.33.12.08.08.12.19.12.33v.37c0,.14-.04.25-.12.33-.08.08-.19.12-.33.12h-.45c-.38,0-.66.11-.84.35-.18.23-.28.54-.28.92v3.71c0,.14-.04.25-.12.33-.08.08-.19.12-.33.12h-.44Z" style="fill:#9ba0a3;"/><path d="m93.44,48.74h-2.28c-.71,0-1.26.2-1.67.61-.4.4-.61.96-.61,1.67v3.79c0,.71.2,1.26.61,1.67.41.41.96.61,1.67.61h2.28c.71,0,1.26-.2,1.67-.61.4-.4.61-.96.61-1.67v-3.79c0-.7-.2-1.26-.61-1.67-.4-.4-.96-.61-1.67-.61" style="fill:#61a60e;"/><path d="m93.44,62.39h-2.28c-.71,0-1.26.2-1.67.61-.4.41-.61.96-.61,1.67v29.67c0,.71.2,1.26.61,1.67.41.4.96.61,1.67.61h2.28c.71,0,1.26-.2,1.67-.61.4-.4.61-.96.61-1.67v-29.67c0-.7-.2-1.26-.61-1.67-.4-.4-.96-.61-1.67-.61" style="fill:#61a60e;"/><path d="m128.29,67.39c-1.55-1.56-3.36-2.78-5.43-3.69-2.06-.9-4.28-1.35-6.67-1.35s-4.6.45-6.67,1.35c-2.07.9-3.88,2.13-5.43,3.69-1.56,1.55-2.78,3.36-3.68,5.43-.9,2.07-1.35,4.29-1.35,6.67s.45,4.6,1.35,6.67c.9,2.06,2.13,3.88,3.68,5.43,1.55,1.56,3.37,2.78,5.43,3.68,2.06.9,4.29,1.35,6.67,1.35s4.6-.45,6.67-1.35c2.07-.9,3.88-2.12,5.43-3.68,1.55-1.55,2.78-3.36,3.68-5.43.9-2.07,1.35-4.29,1.35-6.67s-.45-4.6-1.35-6.67c-.9-2.06-2.13-3.88-3.68-5.43m-2.33,16.36c-.54,1.34-1.28,2.49-2.23,3.46-.94.98-2.06,1.75-3.35,2.33-1.29.59-2.69.88-4.2.88s-2.91-.29-4.19-.88c-1.29-.58-2.4-1.35-3.35-2.33-.95-.97-1.69-2.12-2.22-3.46-.54-1.34-.8-2.76-.8-4.27s.26-2.92.8-4.26c.53-1.34,1.27-2.49,2.22-3.47.95-.97,2.07-1.74,3.35-2.32,1.28-.58,2.69-.88,4.19-.88s2.9.3,4.2.88c1.28.58,2.4,1.35,3.35,2.32.95.98,1.69,2.13,2.23,3.47.53,1.34.8,2.76.8,4.26s-.27,2.93-.8,4.27" style="fill:#61a60e;"/><path d="m146.91,90.16h-.76c-.86,0-1.51-.24-1.97-.72-.46-.48-.68-1.12-.68-1.94v-40.06c0-.71-.2-1.27-.61-1.67-.41-.4-.96-.6-1.67-.6h-2.27c-.71,0-1.27.2-1.67.6-.41.41-.61.96-.61,1.67v39.31c0,3.04.72,5.44,2.16,7.21,1.44,1.77,3.78,2.66,7.02,2.66h1.06c.7,0,1.26-.2,1.66-.61.4-.4.61-.96.61-1.67v-1.9c0-.71-.2-1.27-.61-1.67-.4-.4-.96-.61-1.66-.61" style="fill:#61a60e;"/><path d="m176.77,62.98c-.4-.4-.95-.59-1.64-.59h-11.1c-2.09,0-4,.37-5.74,1.11-1.74.75-3.24,1.75-4.51,3.02-1.26,1.27-2.25,2.77-2.94,4.5-.69,1.74-1.04,3.57-1.04,5.51v6.62c0,1.99.3,3.81.89,5.47.59,1.66,1.41,3.09,2.46,4.28,1.04,1.19,2.29,2.11,3.73,2.75,1.44.65,3.03.97,4.77.97,1.94,0,3.59-.31,4.96-.9,1.36-.59,2.4-1.36,3.09-2.31.2-.25.41-.33.64-.26.33.1.33,1,.33,1.29,0,.54.2,1.04.6,1.49.4.44.94.67,1.64.67h2.24c.69,0,1.24-.2,1.64-.6.39-.39.59-.94.59-1.64v-29.77c0-.69-.2-1.24-.59-1.64m-6.12,19.05c0,1.04-.16,2.05-.48,3.02-.32.96-.81,1.84-1.45,2.64-.65.8-1.45,1.42-2.42,1.9-.98.47-2.13.71-3.47.71-1.99,0-3.54-.6-4.66-1.79-1.11-1.19-1.68-2.73-1.68-4.61v-7.37c0-2.13.69-3.97,2.05-5.51,1.37-1.54,3.29-2.3,5.77-2.3h5.59c.49,0,.74.24.74.74v12.58Z" style="fill:#61a60e;"/><path d="m84.03,62.38h-3.14c-1.36,0-2.23.62-2.58,1.83l-8.54,22.73c-.15.55-.4.82-.75.82s-.61-.28-.76-.82l-13.64-34.96h9.54c.84,0,1.51-.25,1.99-.72.48-.49.72-1.15.72-1.99v-1.36c0-.84-.24-1.51-.72-1.99-.48-.48-1.15-.72-1.99-.72h-17.32c-1.46,0-2.11.73-1.58,2.09l18.85,47.28c.25.8.59,1.35,1.02,1.62.43.28,1,.42,1.69.42h4.28c.7,0,1.27-.14,1.7-.42.42-.28.76-.82,1.02-1.63l11.76-30.08c.41-1.41-.09-2.1-1.55-2.1" style="fill:#61a60e;"/></g></g></g></g></g></svg>