<svg xmlns="http://www.w3.org/2000/svg" width="65.45" height="65.45" viewBox="0 0 65.45 65.45">
  <g id="Icon_ionic-ios-arrow-dropleft-circle" data-name="Icon ionic-ios-arrow-dropleft-circle" transform="translate(0.5 0.5)">
    <path id="Icon_ionic-ios-arrow-dropleft-circle-2" data-name="Icon ionic-ios-arrow-dropleft-circle" d="M35.6,3.375A32.225,32.225,0,1,0,67.825,35.6,32.22,32.22,0,0,0,35.6,3.375Zm6.724,44.79a3,3,0,0,1,0,4.23,2.954,2.954,0,0,1-2.107.868,3.005,3.005,0,0,1-2.123-.883L23.531,37.769a2.987,2.987,0,0,1,.093-4.121L38.4,18.821a2.991,2.991,0,0,1,4.23,4.23L29.945,35.6Z" transform="translate(-3.375 -3.375)" fill="#fff" stroke="#000" stroke-width="1"/>
  </g>
</svg>
