<?xml version="1.0" encoding="UTF-8"?><svg id="Layer_2" xmlns="http://www.w3.org/2000/svg" viewBox="0 0 44.32 17.26"><g id="Layer_1-2"><path d="m22.17,17.24c-7.21,0-14.41,0-21.62.01-.45,0-.55-.13-.54-.55.03-1.05.02-2.1,0-3.15,0-.32.09-.42.4-.4.36.02.73,0,1.1,0,.25.01.34-.08.33-.33-.02-.35,0-.7,0-1.05,0-3.36,0-6.71.01-10.07,0-.44-.12-.57-.53-.51-.16.02-.32,0-.48,0-.87,0-.86,0-.82-.88C.02.11.08,0,.31.03c.09.01.19,0,.29,0,14.38,0,28.76,0,43.14,0,.19,0,.49-.13.55.11.07.31.02.66,0,.99,0,.1-.16.07-.25.07-.33,0-.67.03-1,0-.41-.04-.54.08-.53.51.02,3.18.01,6.36.01,9.54,0,.52.01,1.05,0,1.57,0,.25.08.34.33.33.4-.02.8,0,1.19,0,.23,0,.3.08.3.3,0,1.16,0,2.32,0,3.48,0,.22-.06.33-.29.31-.13-.01-.25,0-.38,0-7.16,0-14.32,0-21.47,0Zm.04-4.09c6.22,0,12.44,0,18.66,0,.41,0,.54-.09.54-.52-.02-3.64-.02-7.28,0-10.93,0-.44-.13-.52-.54-.52-12.42.01-24.84.01-37.27,0-.42,0-.56.09-.56.54.02,3.61.02,7.22,0,10.83,0,.5.15.59.61.59,6.19-.02,12.37-.01,18.56-.01Z" style="fill:#90191c;"/></g></svg>