<?xml version="1.0" encoding="UTF-8"?><svg id="Layer_2" xmlns="http://www.w3.org/2000/svg" viewBox="0 0 31.1 33.7"><g id="Layer_1-2"><path d="m20.52,21.01c-3.46,4.16-6.92,8.32-10.38,12.49-.21.26-.34.26-.58.05-.59-.52-1.2-1.02-1.82-1.51-.19-.15-.2-.25-.04-.42.19-.2.35-.43.53-.63.13-.14.12-.23-.03-.35-.21-.16-.41-.33-.61-.5-1.94-1.61-3.88-3.22-5.81-4.84-.25-.21-.39-.2-.55.06-.06.1-.15.19-.23.28-.42.5-.41.5-.9.05-.12-.11-.16-.19-.03-.32.05-.05.09-.11.14-.16C7.12,16.89,14.03,8.58,20.94.28c.09-.11.16-.34.33-.26.22.11.39.3.57.48.05.05-.04.13-.08.18-.16.19-.31.4-.48.58-.22.22-.21.35.04.55,1.85,1.52,3.68,3.05,5.52,4.58.3.25.61.5.91.76.14.12.23.12.35-.03.18-.24.39-.46.57-.69.11-.13.19-.14.32-.03.67.56,1.34,1.12,2.01,1.67.13.1.16.19.04.32-.07.07-.12.15-.18.22-3.44,4.13-6.88,8.27-10.31,12.4Zm-2.34-1.98c2.99-3.59,5.97-7.19,8.97-10.77.2-.24.21-.35-.04-.56-2.11-1.74-4.22-3.49-6.31-5.25-.25-.21-.36-.17-.56.06-5.96,7.18-11.93,14.36-17.9,21.53-.2.24-.22.37.04.59,2.09,1.72,4.18,3.46,6.26,5.2.29.24.41.2.64-.07,2.96-3.58,5.94-7.15,8.91-10.73Z" style="fill:#90191c;"/></g></svg>