<?xml version="1.0" encoding="UTF-8"?><svg id="Layer_2" xmlns="http://www.w3.org/2000/svg" viewBox="0 0 9.14 23.86"><g id="Layer_1-2"><g><path d="m0,10.57C0,7.84.01,5.11,0,2.38c0-.26.07-.32.32-.32,2.84,0,5.68,0,8.53,0,.23,0,.29.06.29.29,0,5.49,0,10.98,0,16.47,0,.22-.06.28-.28.28-2.86,0-5.72,0-8.58,0-.22,0-.28-.05-.28-.28,0-2.75,0-5.5,0-8.25Zm8.82,0c0-2.62,0-5.24,0-7.86,0-.23-.04-.31-.3-.31-2.64.01-5.28.01-7.91,0-.26,0-.3.08-.3.31,0,5.24,0,10.48,0,15.71,0,.23.04.31.3.31,2.64-.01,5.28-.01,7.91,0,.26,0,.3-.08.3-.31,0-2.62,0-5.24,0-7.86Z" style="fill:#ab4d9d;"/><path d="m5.85,21.63c0,.66,0,1.32,0,1.98,0,.18-.03.26-.24.26-.71-.01-1.41-.01-2.12,0-.17,0-.22-.04-.22-.22,0-1.36,0-2.73,0-4.09,0-.18.06-.22.22-.21.71,0,1.41,0,2.12,0,.18,0,.24.04.23.23-.01.69,0,1.37,0,2.06Z" style="fill:#ab4d9d;"/><path d="m4.58,0c.36,0,.72,0,1.08,0,.14,0,.19.04.19.19,0,.47,0,.94,0,1.42,0,.17-.07.2-.21.2-.71,0-1.43,0-2.14,0-.17,0-.22-.05-.22-.22.01-.45.01-.91,0-1.36,0-.16.03-.23.21-.22.36.01.72,0,1.08,0Z" style="fill:#ab4d9d;"/><path d="m8.68,10.58c0,2.54,0,5.09,0,7.63,0,.25-.07.3-.31.3-2.53,0-5.07,0-7.6,0-.24,0-.31-.06-.31-.3,0-5.09,0-10.18,0-15.26,0-.26.07-.32.32-.32,2.53,0,5.07,0,7.6,0,.23,0,.29.06.29.29,0,2.55,0,5.11,0,7.66Z" style="fill:#ab4d9d;"/></g></g></svg>