<svg xmlns="http://www.w3.org/2000/svg" width="424.28" height="335" viewBox="0 0 424.28 335">
  <g id="Group_487" data-name="Group 487" transform="translate(-540.391 -116)">
    <g id="ae" transform="translate(541.391 117)">
      <path id="ARE344" d="M979.52,261.416l-.169,1.735-.677.339-2.708-.55-.338-1.523-.127-.889,1.058-1.227,1.269,1.608,1.185.465Z" transform="translate(-563.164 -150.007)" fill="#fff" stroke="#8cbfeb" stroke-linecap="round" stroke-linejoin="round" stroke-width="2"/>
      <g id="Group_1290" data-name="Group 1290">
        <path id="ARE338" d="M909.578,75.3l.169,1.566.3.973.508.8-.846,1.016-2.327,1.185-.211,2.412.042.381-1.1.423-2.454.254-.508.339-.085.677.465,2.031.085,1.1-.042,1.058-1.016,6.135-.085,1.185.085.846.254.762.3.635.381,1.354-1.016.592-.085.465.042.635,1.735,2.835,1.142,2.666.381,1.227v.762l-.254.592-.339.931-.127,1.989.466,1.058.719.719.846.339,4.273.55,1.523,1.142.381,1.058-2.877,2.877-1.608.762-3.258.423-1.312.592-5.755.338-4.824-4.4-2.243-1.608-.719-4.274-1.016-2.835-2.37-1.523-.211-.042.042-.931-.508-2.073-1.523-2.962-.3-.973-.127-1.481V98.742l.169-1.269,1.946-4.739.508-.8.042-.423-.339-.677-.465-.677-1.1-1.227-.339-.508-.127-.508v-.423l.8-1.354,1.269-1.016.931-1.354,3.3.212,1.312.381,1.1.042.762-.212.846-.3h.8l2.623.55.931-.127.55-.3.254-.423.211-.254.508-.339.254-.3.169-.381v-.508l-.085-.55.127-.635.381-.719,1.4-.973.635-.55.465-.508.423-.8.042-.127-.042-.085-.085-.042-.085-.042-1.185.042h-.339l-.254-.042-.3-.169-.169-.127L902,75.893l-.338-.127-.465-.042-.592.042-.254-.169.085-.465,1.185-1.269.677-.508.677-.254.381.042,2.793.762.3.169.085.212-.085.254-.127.3-.042.3.127.254.719.339,2.454-.423ZM902.47,41.662l-1.185.846L897.6,43.524l-1.185.042-.762-.085-.55-.212-.381.127-.508.3-1.058.846-2.116,2.327-.973.55-.762.254-.55-.042-.719-.085-.889.127-.719.55-.3.635-.042.762.465,1.989v.762l.719,3.173.212,1.566.085.381.169.254.339.212.846.127.254.127.592.254.339.042,2.666-.254,1.9.085.55-.127.465-.254,1.185-.889.085-.042.169-.085.339-.085.423.042.254.085.085.042.042.042.423.381,1.142,1.566.254.592.212.8-.212.846-.55.846-2.116,2.37-.254.381-.042.212.127.212.085.127.127.212.085.212.085.3.169.3.3.212.508.127h.55l.719-.169.635.254.381.635.169,1.989-.3.762-.381.3h-.508l-.465.169-.635.719-.508.508-.719.381-.762.127-.931-.127L891.6,71.027,891,70.689l-.466-.508-.339-.55-.338-.423-.677-.55-1.862-.846-.592.085-.635.381-.3.931-.423,2.2-1.185,2.581-1.4-2.116-1.862-2.285-2.327-2.2-.085-.8.339-.719.423-.762.042-.973-.592-.889-3.3-3.6-.592-1.227-.254-.931-.042-.339.042-.931-.127-1.523-.381-2.073-2.37-7.828-.465-.762-.635-.339-.889-.254-.677-.085-2.116-1.989-.127-.127,1.185-1.693.973-.719.8-.127,1.1-.339.973-.508.423-.677.423-.212,2.581-.719,3.131-2.581,4.781-6.093,2.37-2.031-.508.889-.55,1.989-.888,1.693.339.592.635.169.339-.339.169-1.439.846-2.75.169-1.862.55-.846,3.723-3.512.762-1.016.677-1.1.508-1.4.381-1.819H892.1l-.339.931-.508.762-.677.55-.846.381,2.327-3.893,1.862-4.1,1.608-6.22.339-.846,2.031-.169L902.343,1l1.016.127,1.4,3.766.423,1.989-.169,1.777-.592,2.92-.381,8.759-.592,1.4-1.693,2.412-.423,1.439.381,1.693,2.073,2.75.381,1.185-.635,1.269-1.1.889-.973,1.016-.042,1.693.423,4.358.465,1.142.169.085Z" transform="translate(-500.458 -1)" fill="#fff" stroke="#8cbfeb" stroke-linecap="round" stroke-linejoin="round" stroke-width="2"/>
        <path id="ARE339" d="M855.22,126.734l-1.608-.042-.254.254-.127.339.381,1.227.212.8.127.846-.085.762-.254.55-.508.381-.635.254-1.269.381-1.016.55-.677.254-1.185.254-1.269.042-1.1-.042-.8-.339-.592-.508-.677-1.016-.931-2.073-.55-2.539-.719-1.142-1.1-1.269-4.062-3.639-1.65-1.142-6.178-2.539-1.058-.719-2.623-2.285-5.755-3.6-.254-.127.423-1.185.381-1.65.973-1.946,1.354-1.566,1.481-.592-.719,1.608-.973,1.312-.55,1.185.508,1.269,1.354.55,1.735-.3,1.9-.592,1.862-.339.55-.762,1.354-3.766.8-1.439,2.285-2.5,1.439-1.1,3-1.185,1.058-1.523.127.127,2.116,1.989.677.085.889.254.635.339.465.762,2.37,7.828.381,2.073.127,1.523-.042.931.042.339.254.931.592,1.227,3.3,3.6.592.889-.042.973-.423.762-.339.719.085.8,2.327,2.2,1.862,2.285Z" transform="translate(-472.883 -55.861)" fill="#fff" stroke="#8cbfeb" stroke-linecap="round" stroke-linejoin="round" stroke-width="2"/>
        <path id="ARE341" d="M939.565,169.37l2.708.55.677-.339-.042.677-.465.931-2.454,1.777-.508.465-.381-1.058-1.523-1.142.55-1.946Zm7.616-14.936-.508-.085-4.654-1.058-.762-.042-.8.212-.042.381.127.381.3.508.3.677.211.8.169,1.354.127.592.3.508.3.381.085.677-.127.846-.338,1.312-.465.719-.508.465-.719,2.666-1.058,1.227-1.439-3.681-6.262-6.728-.55-.423-1.058-.254-.381-1.354-.3-.635-.254-.762-.085-.846.085-1.185,1.016-6.135.042-1.058-.085-1.1-.465-2.031.085-.677.508-.339,2.454-.254,1.1-.423.085.55,1.1.55,1.354.381,1.481-.635,2.581-1.862.973-.846,2.073-.719,2.454-1.312.381-2.666.635-.846,2.242-1.777H949l.042.762-.085,1.058-.381,1.9-.254,2.92-.846,4.231-.3,13.667Zm.212-34.442-.381.169-3.554,3.258-3.258,1.989-.889.762-.508,1.1-.254.931-.3.719-2.369,1.819-2.454.423-.719-.339-.127-.254.042-.3.127-.3.085-.254-.085-.212-.3-.169-2.793-.762-.381-.042-.677.254-.677.508-1.185,1.269-.085.465.254.169.592-.042.465.042.338.127.423.592.169.127.3.169.254.042h.338l1.185-.042.085.042.085.042.042.085-.042.127-.423.8-.465.508-.635.55-1.4.973-.381.719-.127.635.085.55v.508l-.169.381-.254.3-.508.339-.211.254-.254.423-.55.3-.931.127-2.623-.55h-.8l-.846.3-.762.212-1.1-.042-1.312-.381-3.3-.212.254-2.031-.042-.55-.973-2.92,2.2-1.9.381-.973-.042-.381-.127-.338-.169-.3-.254-.169-.254-.169-1.227-.592,1.566-4.781.677.55.339.423.339.55.465.508.592.338,4.273,1.269.931.127.762-.127.719-.381.508-.508.635-.719.465-.169h.508l.381-.3.3-.762-.169-1.989-.381-.635-.635-.254-.719.169h-.55l-.508-.127-.3-.212-.169-.3-.085-.3-.085-.212-.127-.212-.085-.127-.127-.212.042-.212.254-.381,2.116-2.37.55-.846.212-.846-.212-.8-.254-.592-1.142-1.566-.423-.381-.042-.042-.085-.042-.254-.085-.423-.042-.339.085-.169.085-.085.042-1.185.889-.465.254-.55.127-1.9-.085-2.666.254-.339-.042-.592-.254-.254-.127-.846-.127-.339-.212-.169-.254-.085-.381-.212-1.566-.719-3.173v-.762l-.465-1.989.042-.762.3-.635.719-.55.889-.127.719.085.55.042.762-.254.973-.55,2.116-2.327,1.058-.846.508-.3.381-.127.55.212.762.085,1.185-.042,3.681-1.016,1.185-.846.339.212,2.073.381.762.635.889,1.989.592.719,1.4.381,1.4-.254,3.639-1.058,1.862,1.1,2.031.8,1.481.3.677,1.142,1.946,6.558-.55,8.97Z" transform="translate(-526.763 -56.438)" fill="#fff" stroke="#8cbfeb" stroke-linecap="round" stroke-linejoin="round" stroke-width="2"/>
        <path id="ARE346" d="M848.69,160.006l-1.1-2.37.042-.592.127-.677.423-.423.3-.3.719-.465,1.227.592.254.169.254.169.169.3.127.338.042.381-.381.973-2.2,1.9ZM800.2,149.047l1.269-1.777h.55l.381,1.185.508.085.508-.719.381-1.185.592.635,1.185-3.6.55-.973.085.042,1.016.719,1.4.3.889.423,1.354.889.973.381,5.289.973.889.339.381.508-1.142,3.216-.8,1.439-.508.423-.592.127-7.4-.423-3.047-.677-2.666-.973-1.989-1.312Z" transform="translate(-462.038 -82.743)" fill="#fff" stroke="#8cbfeb" stroke-linecap="round" stroke-linejoin="round" stroke-width="2"/>
        <path id="ARE347" d="M916.624,274.639l2.242,1.608,4.824,4.4-2.031,4.739-.592,1.9.127,1.312-.085.8-1.227-.169-2.708-2.158-2.581-6.685-3.258-2.962-.635-1.439.3-1.227,1.523-.465,1.227.3,1.142.592,2.073,1.523Z" transform="translate(-525.783 -158.66)" fill="#fff" stroke="#8cbfeb" stroke-linecap="round" stroke-linejoin="round" stroke-width="2"/>
        <path id="ARE348" d="M862.9,188.58l-1.439-.085-.55,1.946-4.274-.55-.846-.339-.719-.719-.466-1.058.127-1.989.339-.931.254-.592V183.5l-.381-1.227L853.8,179.61l-1.735-2.835-.042-.635.085-.465,1.015-.592,1.058.254.55.423,6.262,6.728,1.439,3.681.127.889Zm3.554-1.523-.508-.042-1.185-.465-1.269-1.608.719-2.666.508-.465.465-.719.339-1.312.127-.846-.085-.677-.3-.381-.3-.508-.127-.592-.169-1.354-.212-.8-.3-.677-.3-.508-.127-.381.042-.381.8-.212.762.042,4.654,1.058.508.085-.042,1.058,1.862,7.659-4.739.55-.846.973Zm-2.919-31.565-1.735.592-.3-2.581.466-.508.762-.042,1.269.931Zm5.8-3.766-3.47-.719-1.65-2.539-2.623-.339.3-.719.254-.931.508-1.1.888-.762,3.258-1.989,3.554-3.258.381-.169.3,2.581-.127.719-.677,1.227.085.889.889,1.566.381.973.423.635.3.762.042.55h-.127l-2.243,1.777-.635.846Zm-36.9-5.2,1.4,2.116,1.185-2.581.423-2.2.3-.931.635-.381.592-.085,1.862.846-1.566,4.781-.719.465-.3.3-.423.423-.127.677-.042.592,1.1,2.37.973,2.92.042.55-.254,2.031-.931,1.354-1.269,1.016-.8,1.354v.423l.127.508.339.508,1.1,1.227.465.677.339.677-.042.423-.508.8-1.946,4.739-.169,1.269v1.142l.127,1.481.3.973,1.523,2.962.508,2.073-.042.931-3.554-.55-3.385.889-3.046,1.946-2.877,2.666-2.666,3.385-.889,3,.719,7.4v1.819l-.381,3.639.169,1.777.465,1.015-.889.212h-3.6l-6.855-1.735.508-1.1.169-.762.169-1.058.085-1.269-.042-1.65-.423-3-1.016-4.062-.3-2.877V190.4l-.127-.719-.3-1.227-1.016-2.75-1.523-3.173-.677-2.2.042-.127.508-1.015.3-.423.423-.465,1.1-.973.508-.55.338-.592.169-.592-.042-.635-2.539-10.62L805.1,162.3l-1.4-1.481-6.262-4.231-.635-.762-.719-.677-.677-.465-2.835-1.65-.719-.677-.973-1.4-.508-.465-.8.169-2.919,1.058-2.5.127-4.485-1.227-.169-.169,1.269-1.4.762-.3,1.354.042-.423-1.227.085-1.142.508-.973,1.016-.635.889.762,1.777-1.523,1.523-2.116.042.042,1.989,1.312,2.666.973,3.046.677,7.4.423.592-.127.508-.423.8-1.439,1.143-3.216-.381-.508-.889-.339-5.289-.973-.973-.381-1.354-.889-.889-.423-1.4-.3-1.016-.719-.085-.042.3-.592.973-.846-1.1-.592.55-1.185,1.143-1.523.169-.465.254.127,5.755,3.6,2.623,2.285,1.058.719,6.178,2.539,1.65,1.142,4.062,3.639,1.1,1.269.719,1.142.55,2.539.931,2.073.677,1.016.592.508.8.339,1.1.042,1.269-.042,1.185-.254.677-.254,1.016-.55,1.269-.381.635-.254.508-.381.254-.55.085-.762-.127-.846-.212-.8-.381-1.227.127-.339.254-.254Z" transform="translate(-450.097 -75.648)" fill="#fff" stroke="#8cbfeb" stroke-linecap="round" stroke-linejoin="round" stroke-width="2"/>
        <path id="ARE349" d="M40.351,290.577l-.889.931-.3-.3-.592-.254-.3-.254.381-.677v-1.058l.55-1.523,1.016-.423.762,1.1-.042.381-.169.3.169.381-.592,1.4ZM202.2,289.223l2.243,1.4.339.212,3,.635.635.254,1.819.719.889,2.75-1.227,2.2-2.666.931-3.131-.127-2.623-1.058.212-.889-.719-1.227-1.016-.3-.931,1.819.677.592-2.412,1.566-2.835.55-2.92-.3-2.623-1.1-1.523-.846-.889-.3-2.37-.169-1.566-.212-.973-.339-.042-.762,1.354-1.354,1.142-.719,2.158-.8.931-.465,1.65-1.481,1.1-.762.381-.085,1.058-.339h.8l1.269.55.677.169.592-.3,2.073-1.692,2.412-1.058.973-.55.762-1.016.465,1.185-.085.3-.381.465.889,1.481.423.465Zm29.45-1.777-.719,2.5-.846-1.735-1.9-.846-2.2-.635-1.9-1.1-.973-2.5,1.227-1.989,1.9-.8.423.381.762.635,2.2,2.5,1.1,1.227Zm4.274-2.92-.719.212-.973-.042-.55-.3-1.481-1.777-1.1-.762-.846-.381-.3-.635.423-1.523.677-.846,1.016-.762,1.269-.381,1.269.042.762,1.608.846,1.354,1.989,2.285-.635.8-.8.677ZM92.141,285.965,90.7,287.4l-1.142-1.227-.973-1.65-1.016-2.285.169-1.9,1.439-1.65,1.1-1.608,2.116-1.227,2.031.635.973,1.523.465,2.5-.169,1.481-1.9,2.5-1.65,1.481Zm151.479-9.224.042,1.312-.931,2.793-1.439.719-2.412-4.189-.212-.677.635-.085.973.254.846.508.381.212.127-.423-.254-.55-1.269-.931-.3-.931,1.142-.127,1.819,1.269.846.846Zm-79.632,3.385-3.427,1.608-1.65,1.058-2.073.3-1.269.931v1.058l-.762,1.439-1.227-1.523-1.269-.127-1.608-.846-.889,1.439-3.343-.508-1.227-.212-1.862.381-.3.127h-.254l-.212-.508.042-.592.3-.677.3-.592.3-.254,3.258.719.889-.212,2.243-1.016.465-.423.465-.339,2.92-1.142,1.608-.762h.762l.846,1.523.889.465.762-.381.169-1.058-.085-1.016-.55-.973,3.3-4.866,1.566-1.1.085.55.381.973.127.508,2.031,1.142-.55,3.724-1.142,1.185Zm91.48-9.267-1.185.423-2.327-.423-4.189-1.4-4.189-1.312v-1.523l3.554-3.343,1.227-1.862h.592l-.592,2.031.635,1.777,1.566,1.227,3.258,1.693,1.566,1.608.085,1.1ZM67.388,265.486l-1.058.508-1.269-.719-.465-.592-.423-.254-.55-.508-.085-1.312.762-1.058.677-1.142.973-.592,1.989,1.354.592,2.327ZM15.555,254.019l.381.846-.169.592-.042.3-.381.846-.212.719-.465-.338-.085-1.312.212-.592-.339.169-.042-.338v-.423l-.085.127h-.254l.042.169h-.085l.085.381-.55-.465-.085-.931.719-.55.381.042Zm118.221-26.53-.339,1.989-.55-.55-.127-.465-.719-.931-.465-1.227.254-.719,1.608.254Zm226.965,15.952,6.855,1.735h3.6l.889-.212,1.312,2.962.3,1.862-2.454,2.285-.55,3.216-1.227,1.354L368.569,258l.127,2.031,1.1,4.062-.212,5.2.254,1.481.592.677,1.735,1.185.677.846.212.846-.339,4.654-.55,1.4-3.385,6.093-.719,1.692.127,1.439,1.058.55,5.5,1.227,1.481.085,4.908-2.031,2.623,1.1,1.4,3.47,1.016,4.062,3.258,5.924-.973,1.523-5.543,1.354-10.2,4.189-1.65-.169-2.285-1.819-1.566.3-1.439.55-1.354.042-2.877-.508-2.877-.085-2.5.465-2.412,1.015-2.581,1.4-1.692.931-3.724,1.439L342,315.33l-.381,1.4.8,1.735,1.439,1.354,3.173,1.9,1.439,2.116.381,2.75.3,7.278-.381,1.269-4.1,6.093-.8,1.65-2.877,11.89-1.227,1.819-3.258,3.639h-.042l-1.608,2.454-1.016,3.216-1.819,9.52-1.946,5.881-8.336,14.682-2.708,9.182-.339,2.835.55,13.921-.931,13.879-5.839,7.616-1.312.254-11.974-1.608-12.228-1.608-12.186-1.65-12.186-1.608-12.186-1.65-12.228-1.608-12.186-1.65-12.186-1.608-12.228-1.65-12.186-1.608-12.186-1.65L165,424.158l-12.228-1.65L140.589,420.9l-12.186-1.65-12.186-1.608-12.186-1.65L89.9,414.13l-2.158-.719-1.735-1.523-4.7-6.093-4.57-5.924-4.57-5.924-4.612-5.924-4.57-5.924-4.57-5.924-4.57-5.924-4.57-5.966-4.57-5.924-4.57-5.924-4.57-5.966L31,340.548l-4.57-5.966-4.612-5.924-4.57-5.966-4.57-5.966-4.57-5.966-4.993-6.516L1.8,302l-.465-2.5.169-6.178.042-2.5L1,287.15l1.862-2.75.085-4.231L1.423,276.7l1.735-1.989.719,1.65,1.9,2.75.339,1.9v5.543l.592,3.385,1.227.8,1.269-1.354.846-4.358.592,1.185.889,3,.55.973.423.254.8.085.762-.212.465-.465.085-.465-.339-.169,1.693-4.147,1.65-1.269,1.819,2.75.212,2.116-.889,6.135.127,2.243,1.058,4.739.127,1.058-.127,3.216.212,1.058.8,1.946.169.931.931,1.735,2.073.55,4.274.085,1.016.338.8.465,1.481,1.481.8.508H33.2l.254-.423-.508-.762-.169-1.016,1.862-.3,5.035.3.592-.169.592.169,1.1,1.016,2.708,1.312.762-.042,3.681-.677,1.566.423.846-.508.889.508,1.354-.635,1.523-.085,1.566.085,1.608-.085,1.439-.55,3.343-2.073,1.481-.212,2.793-.042,1.185-.339,1.016-.846,1.058-1.1,1.185-.973,1.227-.423,1.439-.3,1.692-.677,1.439-.973.592-1.016.465-1.1,2.666-1.142,1.312-1.058,1.142-1.185,1.566-1.142,1.523-.889,1.185-.381.973-.677.254-1.65.042-1.777.254-1.142,1.692-.973,1.608.55,1.354,1.354,3.173,4.316.973.381.381-.254.254-.508.8-.339,1.946.085,3.6,1.058,1.9.254,1.142-.212,1.862-.889.931-.3,1.016.042.762.212.635.3.635.169,7.447.677.846-.169,3.131-1.227.381-.339.127-.55.127-.381.55-.042.465.3.3.423.254.381.169.212,2.581,2.158,1.608.762,3.512-1.523,1.777.677,1.65.889,1.523-.3-1.227-.719-.339-.931-.042-1.1-.254-1.227,1.989-.423,2.327,1.058,2.116,1.692,1.4,1.65,1.227,1.989.719.508,4.824.3,11.255-2.327h.762l.762.508,1.185,1.354.931.635,1.269.3,1.269-.085,1.016-.508,1.608,1.227.931.508.8.254.381.339,1.1,1.777.635.55.719.127h1.016l.973-.169,1.481-.762.889.212.846.423.719.169,2.708-1.312.592-.423.719-.381.846.169.846.338.846.254,10.705.042,2.2-.254.931-.8,5.416-2.962,5.5-.889,1.777-.931,1.819-.339,2.327-1.1,2.666-.381.931-.3,1.1-.677,1.608-1.269,1.439-1.523.635-1.481.846-.719,5.8-1.65,4.654-3.47.8-.127.677-1.185,1.692.085,3.554,1.439.677-1.058,3.216-2.539,1.65-2.327,3.47-6.939L256.314,272l.254-1.142,1.439-.719-.8-.55-.423-.127v-.719l1.4.127,2.158,1.016,1.269.254-.55-1.227-1.523-1.65-.3-1.142,1.312.592,1.4.423,1.269.592.8,1.015h.55l-.254-2.539-1.65-.8-2.327-.127-2.327-.465-5.162-3.47-2.031-.508v-.592l1.058-.3,1.058-.719.931-1.058.127.635.3.762.719.677-.254-.973.3-.889,1.142-1.481h.592l.719,2.666,1.692,2.581,2.158,1.65,2.073-.338-.508-.254-1.312-1.1,1.016.042,1.862.635.762.042.3-.339.762-1.354.423-.3,3.3-6.643-1.439-.635-.677-.846.3-.762,1.523-.339.931-.592.254-1.312.508-1.354,1.608-.762v-.592l-.762-.592-.381-.973-.254-1.227-.381-1.227.465-.719-.635-.381-.719-.719.254-1.566.8-.889,3.47-2.327.423-.677.423-.889.465-.55,2.708,1.269.169.127,1.269-.3,1.269-.846.423-1.312-1.185-1.523,9.563-5.628,4.274-3.131,2.666-2.454,1.777-1.185,2.158-.719.169-.042.762-.254.212-.085.762,1.015,10.79,31.227.931,1.862,1.058,1.4,1.735.55,1.777.212,18.618-.762,2.412-.508,2.666-.973,5.881-3.427,9.69-3.977,1.989-1.354ZM116.386,200.663l.169,1.566-.508-.338-.55-.339-.085-1.777.973.889Zm118.094-9.013.762,3.385-1.142-.55H233l-1.439-1.693L232.7,191.1Z" transform="translate(-1 -110.664)" fill="#fff" stroke="#8cbfeb" stroke-linecap="round" stroke-linejoin="round" stroke-width="2"/>
        <path id="ARE350" d="M801.465,233.737l.085-.8-.127-1.312.592-1.9,2.031-4.739,5.754-.339-1.439,3.6-1.9,2.327-.508,1.65-.8,1.016-1.693.465-1.862.085Zm-88.9-30.253.254.762-1.693,1.1-.381-.592.8-.592-.719.55.3.3,1.523-1.227-.127-.254-.846.55.889-.592Zm7.278-4.443-.042-.085-.042-.042-.042-.042v-.127l.127-.085.169-.169.085-.085.042-.085.042.042-.042.127-.127.127-.127.169-.042.085v.169Zm-1.65-.55.254.042h.465l.339-.085.085.042.085.127.085-.042.042-.127v.127l-.042.042-.042.042-.3.085h-.339l-.3.042-.3-.042-.212-.042-.127-.085-.169-.085-.127-.127v-.212l.085.085h.127l.254.169.127.042Zm3.089-1.4v.042l-.085-.042v.042l-.042.169-.042-.042h-.042l-.042.042v.042l-.085.042-.042-.042.212-.254.085-.127.042-.127.169-.042.085.085h.085v.042h-.085l-.085.085h-.085l-.042.085Zm-.465,1.142-.085.042h-.042l-.085-.042h-.042l-.55-.508-.212-.127h-.338l-.042-.042v-.042l.127-.212-.042-.042-.042-.127-.042-.085-.042-.042.042-.042v-.085h-.042l-.042.042-.042.169v.719l.085.169v.042l-.042.042h-.085l-.042-.212-.042-.212.042-.465v-.169l.042-.127v-.042l-.042.042-.085.127-.085.338-.042.212v.55l-.042.042h-.042l-.085-.085v-.212l.042-.339.127-.423.127-.169.042-.085-.042-.042-.212.254-.169.3-.085.254-.042.212-.042.212v.127l-.085.042v-.381l.085-.212.042-.169.127-.254.169-.3.085-.127.085-.042-.085-.042-.339.381-.212.254-.085.169-.085.212-.042.127v.212l-.042.085h-.042l-.042-.042V197.9l.042-.254.085-.212.127-.254.169-.212.381-.3.042-.042v-.042h-.085l-.169.085-.254.169-.211.254-.169.212-.127.212-.085.169-.085.042-.042-.042h-.042V197.6l.042-.127.169-.212.212-.254.254-.212.3-.212.169-.042V196.5h-.042l-.169.042-.211.085-.254.127-.212.169-.169.169-.042.042-.085-.042v-.085l.085-.085.339-.254.3-.127.254-.085.085-.042-.042-.042h-.254l-.212.042-.169.042-.169.085h-.085v-.085l.085-.042.254-.085.212-.042h.212v-.042l-.042-.042h-.465l-.042-.042v-.085h.169l.042-.042-.042-.085v-.085l.042-.085h.042l.042.042h.085v-.212l.042-.042h.085v.212l.042.169.042.085.042.042h.042V195.4l.042-.042h.042l.042.042-.042.339v.508l.042.042h.042v-.338l.085-.254.085-.254.212-.339h.042l.085.042v.085l-.042.085-.169.212-.127.3-.042.169-.042.3v.085h.042l.042-.085v-.127l.127-.212.085-.169.169-.254.212-.254.127-.127.085-.042.085.042v.042l-.042.042-.169.127-.169.169-.127.212-.212.254-.085.3-.042.169h.042l.212-.381.169-.169.254-.254.423-.254.127-.042h.085v.127l-.3.127-.3.169-.254.212-.338.508v.042h.042l.211-.212.212-.254.254-.127.212-.127.339-.127.042.042v.085l-.042.042-.3.085-.212.085-.212.127-.254.212-.169.212v.085l.042-.042.169-.169.254-.127.3-.085.3-.085.085-.042h.085l.042.042v.085l-.042.042h-.169l-.254.042-.3.127-.3.127-.085.085-.042.085.212-.127.254-.127h.635l.042.042v.042l-.042.042H719.8l-.212.127-.085.042v.042l.085.085h.042l.085-.042.085.085v.042h.085l.042-.042v-.042l.127-.169.042.042.042.212-.085.085.212.169.085.042.042-.042.042-.042v-.042h.085l.042-.085.085.085v.042l-.085-.042v.085l-.085.042v.127l.212.169.211.169.085.169v.042l-.042.085-.127.169Zm.254-1.566-.042.042h-.085l-.042-.042.042-.042.042.042.085-.042v-.042l-.127-.042v-.677l-.042-.212-.085-.212-.169-.254-.085-.085v-.042l.127-.127.042.042.212.338.169.339.042.381v.3l-.042.3-.042.042Zm-.889-2.031.3.127.085.042v.042l-.127.127-.169-.085-.212-.085-.254-.085h-.592l-.127.042-.127.085-.127.127-.085.042h-.169l-.085.042-.127.127-.3.212-.211.3-.254.3-.127.212-.085.3-.127.254v.3l.042.3.042.3.085.212v.042l.042.085.042.042-.042.127-.042.085-.127-.127-.127-.169-.042-.212-.085-.3v-.8l.085-.3.169-.3.381-.592.169-.212.169-.127.254-.212.212-.127.339-.169.169-.085h.846l.169.042.169.085Zm.381-4.4h.3l.55-.042.254.042.212-.042.169-.085.085-.085.042-.127v-.3h.085v.127l-.042.212-.085.169-.042.042-.169.085-.254.042h-1.1l-.212-.042-.169-.085-.381-.127-.085-.042-.127-.127-.127-.254-.127-.212.042-.042.085.212.169.3.085.085h.085l.423.169.127.085.212.042Zm2.242-1.058-.042.042-.127-.042V189.1h.085l.042.042Zm.042.677-.212.085-.127.042h-.127v-.042l.212-.127h.211l.212-.127.254-.169.127-.085h.127l.042-.042.169-.085.042-.085.042-.085.085-.042h.042l.042.085-.042.042-.085.042-.085.042-.169.127-.127.085-.169.042-.465.3Zm.508-.592-.042.042-.085-.042.042-.127.127-.042.042.042.042.042-.042.085Zm-.508-.212-.042.042-.085-.042h-.042l.042-.042h.042Zm-.3.042v.042l-.085-.042-.042-.042.042-.042h.085v.085Zm-.127-.127h-.042l-.042-.042-.042-.042.042-.042.042.042.042.042Zm.677.465h-.127v-.212l.042-.085.085-.127-.042-.085.042-.085.085-.042.169.085.085.085v.042l-.169.042-.127.042-.042.169Zm-.465-.508-.042.042h-.042l-.042-.085v-.042l.085-.042.042.042v.085Zm.254-.042-.042.042h-.085v-.042l.042-.085h.127Zm-.635-.042-.085-.042-.042-.042v-.085l.127.042.042.042Zm-1.4-.127h-.127v-.085h.042l.085-.042h.042v.042Zm1.65.085h-.042l-.085-.085-.127-.085.042-.042h.042l.127.085.042.085Zm-1.354-.169h-.169v-.042l.127-.042.042.042v.042Zm-.592.085h-.085l-.212-.127.042-.085h.042l.127.085h.085v.127Zm1.4-.042h-.085l-.042-.042.042-.042.042-.085h.042l.042.042v.042l-.042.085Zm.55-.085h-.085l-.042-.085.042-.042.085.042Zm-2.243-.042-.042.042-.169-.042-.042-.042v-.085h.042l.085.042h.085Zm1.481,0-.042.042h-.085v-.085l.042-.085h.127v.085Zm.423-.042-.085-.042v-.042l.042-.085h.127l.042.042.042.042-.042.042Zm-1.65-.127.042.042.042.042v.085l-.085-.042v-.042l-.042-.042h-.085v-.042l.042-.042h.042l.042.042Zm-.254,0v-.042h.042v.042Zm.592,0-.085.085-.085-.085-.042-.042v-.042l.085-.042.085.042.042.085Zm1.142.042h-.085l-.085-.085v-.085l.042-.042.127.042v.085l.042.042Zm-1.989-.169-.042.042h-.085l-.042-.042v-.042l.085-.042h.042Zm2.116,0-.042.042-.042-.042.042-.085h.085l.042.042-.085.042Zm.338.085-.042.042h-.042v-.127l-.042-.042.042-.042.042.042Zm-2.285,0H720.1v-.085l.085-.127h.085l-.042.085h-.042v.127Zm1.4,0-.042.042-.042-.042-.042-.085.127-.085.042-.042.042.085v.042Zm-1.058-.169-.042.042h-.127l-.042-.085.042-.042h.127l.042.042Zm.846.042h-.085l.042-.042.085-.085h.042v.042Zm.423,0h-.042l-.042-.042v-.127h.085l.085.042v.042l-.042.042-.042.042Zm-.931-.042-.042.042-.042-.042-.085-.042h-.042l-.042-.042V188h.127l.085.085.042.042Zm-.762-.085-.042.042-.085-.042v-.042l.042-.042h.042Zm1.481-.042h-.042V188l.042-.042h.042V188Zm.423.042h-.042V188l.085-.042h.085v.085l-.042.042ZM720.31,188l-.042.042-.085-.085.042-.085h.042l.042.042V188Zm1.989.042h-.042l-.085-.085-.042-.085h.042l.042-.042.085.085.042.085Zm-1.819-.085h-.042l-.042-.042v-.042l.042-.042.042.042h.042l-.042.085Zm.465.127H720.9v-.127l.042-.042-.042-.042v-.085h.042l.042.042.042.042-.042.042.042.042v.085l-.085.042Zm-.3-.212h-.085v-.085h.042l.085.042v.042h-.042Zm-.762.085h-.042v-.169l.042-.042h.085l.042.085-.042.085Zm.254-.085-.042.042-.042-.085.085-.085.042-.042.085.042-.042.085-.085.042Zm.846-.127-.127-.042v-.042h.042v-.042h.085l.042.042v.042Zm-.254.042h-.042l-.042-.042v-.127h.085v.169Zm-.719-.127h-.085l-.085-.042-.042-.085v-.042h.127l.085.085Zm.55-.042-.042.042-.042-.042-.042-.042v-.085h.127l.042.042Zm-.381-.127v.042l.085-.042.042.042-.042.085h-.085l-.042-.042-.085-.085v-.042h.085Zm.889,0-.042.042-.085-.085-.042-.042h.169l.042.042-.042.042Zm1.4.042-.085.042h-.042v-.127l.085-.042h.042v.127Zm-1.65-.169.042.042-.042.085-.085-.042V187.4l-.127-.042.042-.042h.127l.042.042Zm2.369.085.085.042h.127l-.042.085h-.085l-.085-.042-.085-.042h-.042l-.042-.042V187.4l.085-.127.085.042v.127Zm-2.877-.042h-.042l.042-.085.085-.042h.042l.042.085h-.127Zm2.666-.042h-.212v-.085l.212.042Zm.55.085H723.4l-.042-.042v-.042l.042-.085h.042l.085.127Zm0,0,.042-.042v-.042l-.042-.042.042-.042h.042v.169l.085.042v.042l-.085.085h-.042l-.042-.085Zm-3.639-.042-.042.042-.042-.042-.085-.085.042-.042.042-.042.085.085Zm2.37-.042h-.042l-.085-.085.042-.042h.169l.042.085-.085.042Zm.381,0h-.085l-.085-.042.042-.042.169-.042.042.042-.085.085Zm-2.243-.169-.042.042h-.042v-.042l.042-.085.042.042h.042l-.042.042Zm3.173,0-.085.042-.085-.042v-.042l.042-.042h.085l.042.085Zm-3.427.085h-.085l-.042-.042v-.127h.212v.042l-.042.042-.042.085Zm3.131,0h-.042l-.042-.085v-.042l.085-.085.042.042v.127Zm-3.343-.127-.042.042H719.8v-.085l.085-.042.042.042Zm2.158.169H722l-.042-.085v-.085l.042-.085h.042v.085l.042.085v.085Zm1.058-.169h-.127l-.042-.085.042-.042h.085l.085.042Zm-.762-.169.042.042h.127v.127l-.042.042h-.085v-.085h-.169v-.085Zm.508.085-.042.042-.042-.042.042-.127.042-.042.085.042v.085Zm.423-.169-.042.127v-.042l-.085-.042V186.9l.042-.042h.042l.042.042Zm.212.127h-.085l-.042-.042v-.127h.042l.085.085Zm-1.4,0h-.042l-.042-.085V186.9l.085-.042h.085l.042.127Zm2.412.254H724.5v-.042l.127-.212.085-.127.085-.042.042.042v.085l-.127.085-.085.127Zm-1.819-.3-.042.042h-.042l-.042-.085-.042-.085.042-.042h.042l.085.085Zm-1.819,0h-.169v-.169l.042-.042.085.042Zm-.254-.042h-.085l-.085-.085v-.042l.042-.042h.042l.042.042.042.085v.042Zm1.227-.042-.085.042-.085-.042v-.127l.127-.042.085.085-.042.085Zm1.862.085h-.042l-.085-.127v-.127h.085l.127.212-.042.042Zm-1.227-.169-.042.042-.042-.085v-.042h.042Zm.55.042-.042.042-.085-.042-.042-.085v-.042l.042-.042.085.042Zm-3.216,0v-.169h.085v.042l-.042.085Zm3.343-.127-.042.042h-.085v-.085h.085l.042.042Zm-.55-.085.085.042v.127h-.042l-.042-.042v-.127Zm-2.327.169-.042-.085v-.085h.042l.042.042v.085l-.042.042Zm1.185-.127-.042.085-.042-.042-.085-.085.042-.042h.085Zm-1.777.085h-.042v-.127l.042-.042h.085v.169Zm.719-.085v.042l-.085-.085-.042-.042v-.085h.042l.085.085.042.085Zm.338.042h-.042l-.085-.042-.042-.127.042-.042h.085l.042.127Zm2.243-.085h-.169v-.085l.042-.042h.127l.042.085v.042Zm-2.877.042h-.127V186.6l.085-.085h.085v.085Zm2.285-.042h-.042v-.085l.042-.042h.042l.042.042-.042.085Zm-.55.042h-.127l-.042-.042v-.127h.127l.042.042.042.085Zm.169,0-.042.042-.042-.085v-.127h.085v.169Zm.592-.042-.042.042h-.042l-.042-.042.085-.127h.042l.042.042Zm1.9-.169.042.085h.127l.085.042.042.042-.042.042h-.085l-.042.042-.085.127-.042.169-.085.169-.254.169-.042.085v.127l-.085.212v.338l.085.085-.042.042-.042.042-.042-.042-.085-.085v-.3l.042-.085.042-.127v-.169l.042-.127.339-.3.042-.085v-.127l.085-.212V186.6l-.085.085h-.042V186.6l.042-.127Zm-4.02.085-.085-.042.042-.042h.042l.042.042Zm1.058.042h-.042l-.127-.042-.042-.085v-.042h.212v.169Zm.592-.085h-.042v-.085h.042v.085Zm-2.285,0-.042.042-.042-.042v-.085l.042-.042h.127v.085Zm3.343.042-.085-.042-.042-.042v-.042l.085-.042h.042v.169Zm.381-.085h-.085l-.085-.042v-.042l.085-.042.127.042v.042Zm-1.523,0-.127-.042.042-.042.042-.042h.042l.042.042-.042.085Zm-1.9-.042h-.042l-.042-.042v-.042l.085-.042h.085v.127h-.085Zm1.566.042h-.042v-.127l.042-.042.042.042v.127Zm-2.073,1.439.042.042v.085h.085v.042l-.085.042v.085l-.127.127-.042.085.042.085.042.042-.042.042h-.127l-.042.127.042.042v.042l.085.042.085-.042.085-.042.085-.042.042.085-.042.127-.085.042h-.254l-.042.042h-.042l-.042-.127V188.8l-.085-.042h-.127v-.085h.127v-.042l-.127-.042.042-.042.085.042h.042l.042-.085v-.127l-.042-.042-.042-.042v-.085h.042l.085.085.127-.127v-.127l-.042-.085h-.127l.085.127-.042.042-.085-.085-.042.042-.042.042h-.085l.042-.169v-.169l.042-.212.042-.085-.127-.212v-.085l.042-.085.042-.127-.042-.127-.042-.085.042-.127.042-.085.042-.085V186.3h.085l.127.042.042.042-.042.085-.085.042.042.127-.085.042-.042.127.085.085.169.085.085.042-.042.085h-.127l-.042.042.042.127.085.085-.042.127-.085.085v.085l.042.127.127.127h.085Zm.719-1.481h-.042v-.085l.042-.042h.085v.085Zm.381.042h-.042l-.127-.085V186.3l.127-.042.042.042.085.085Zm3-.085-.042.042-.042-.042v-.127h.127v.042Zm-1.058-.085.042-.042.085.042v.042h-.127Zm-.762.042-.042.042-.042-.042.042-.085h.042l.042.042Zm.592,0h-.085v-.127h.085v.127Zm1.058-.042h-.042l-.042-.042v-.042l.127.042Zm-.592.042-.042.042-.085-.042V186.3h.085l.042-.085h.042l.042.042-.042.042Zm-.3-.042-.042.042-.042.042-.042-.042.042-.085.042-.042h.042v.085Zm-.339,0v.042l-.042-.042v-.127h.042l.042.042Zm-2.031-.042v.042l-.085-.042-.042-.085h.085l.042.042v.042Zm-.381,0h-.085v-.085h.085l.042.085Zm1.693.042h-.042v-.169l.042-.042.042.042v.127Zm2.835,2.2-.3.212.254-.254.085-.169.085-.085.169-.3.212-.3.042-.169v-.169l.042-.127.042-.085.169-.381.085-.169.042-.3v-.127h.042v.127l-.042.3-.085.169-.211.423-.042.169v.169l-.042.212-.212.3-.169.3-.169.254Zm-4.654-2.285-.042.042-.042-.042.042-.127h.042l.042.042Zm.254,0h-.085v-.169h.085l.042.042v.085l-.042.042Zm-.381-.042-.085.042-.042-.085.042-.085h.127v.042Zm2.2.042h-.042l-.127-.127v-.042h.085l.085.085v.085Zm.381.085h-.042l-.085-.085-.085-.042v-.127l.085-.042v.127l.127.085v.085Zm.338-.169h-.127l-.042-.085.085-.042h.042l.042.042Zm-.212-.042-.042.042-.085-.042v-.042l.085-.042.042.042Zm.635-.042v.127h-.042l-.042-.085-.042.042-.042.042-.042-.042h-.085l-.085-.042.042-.085h.042l.042.042v.042h.042v-.085h.042l.042.042h.042v-.042h.085Zm-2.5.169-.042.042-.042-.042-.169-.127-.042-.042.042-.042.042-.042.127.085.127.042.042.042.042.042h-.085Zm1.481-.339.042.042v.042H722l-.127-.042h-.085l-.042-.042.042-.042h.169Zm-1.735.042-.085.127-.127-.085h-.042l-.127.085-.085-.042.042-.042h.127l.042-.042.042-.085h.085l.085.042.042.042Zm1.1.212h-.085l-.042-.169v-.127h.042l.042.042v.085l.085.042v.085Zm.846-.127h-.042l-.042-.042.042-.127h.042l.042.042v.042Zm1.312,0h-.042l-.085-.085v-.042l.042-.042.085.042v.127Zm-3.6-.127h-.085l-.042-.042.042-.085h.085l.042.042v.085Zm2.75,0-.085.042h-.085l-.042-.042.127-.085.127-.042.042.042v.085h-.085Zm1.185,0h-.085v-.042l.042-.085.042-.042.042.042Zm-4.274.042h-.042l-.042-.042V185.8l.042-.085h.127v.042h-.042v.127l-.042.042Zm2.835-.085h-.085v-.127l.042-.042h.085v.127Zm.973.127v.085l-.127-.042-.042-.042-.085-.042h-.042l-.042-.127-.042-.085.085-.042.042.127.042.042.169.085.042.042Zm-.381-.169-.042.085h-.085l-.042-.042v-.169h.085l.042.042Zm.719-.085-.085.042h-.085l-.042-.042.042-.042h.127l.042.042Zm-.423.085v.042h-.042l-.085-.085.085-.085h.042v.127Zm-1.227,0-.042.042L722,185.8l-.085-.085v-.085H722l.127.085v.085Zm2.158-.169v.042h.085l-.085.212.085.085-.042.042-.085-.042-.127.042v-.085l.085-.085v-.212Zm-2.708.042h-.085l-.042-.042.042-.042h.085Zm-1.481.042-.085-.042-.042-.042.042-.042h.127l.042.042Zm1.566.339h-.085l-.042-.085-.042-.085.042-.085.085-.085v-.127l.085-.042.085.042.042.042v.042l-.042.042-.042.042-.042.042v.212l-.042.042Zm1.058-.423-.042.042h-.042l-.042-.042v-.085l.042-.042.085.042v.085Zm1.016-.042h-.169l-.042-.042.042-.042h.127Zm-2.412.042-.042.042h-.042v-.127l.042-.042h.085Zm.973.085h-.042l-.085-.127-.042-.042V185.5h.042l.042.042.085.085Zm.592-.127-.042.042-.042-.042v-.127h.085v.127Zm-.465,0h-.085v-.127h.085l.042.042Zm.677,0h-.085v-.127l.127-.042h.042l.042.085-.042.085Zm.3-.085h-.085l-.042-.042v-.042h.254v.085Zm-1.354-.042-.085.042-.042-.042-.042-.042v-.085H722l.085.085Zm.931-.085v.042h-.085l-.042-.085v-.042h.085l.042.042Zm1.4,0,.042.042.042-.042h.042l.085.085.085.042h.085l.127-.085h.042l.042.042.042.042h.169v.085l-.042.085-.085.042-.042-.042.127-.085v-.042h-.127l-.085.085-.127.042-.085.042-.085-.042v.339l-.085.127H724.5l-.042-.042h-.042l.042-.127V185.8l.042-.085h.085v-.127l-.085-.042-.169-.042-.085.042-.042-.042v-.085h-.085l.042-.042h.085l.042-.085h.085v.085Zm-2.073,0-.085.042h-.085v-.085l.085-.042.042-.042h.085v.085Zm1.227-.085-.042.042-.085-.042-.042-.085h.169Zm-.889.042-.085.042-.042-.042v-.085l.085-.042h.085l.042.042-.085.085Zm.635-.042-.127.042-.042-.085V185.2l.085-.042h.127l-.042.127Zm-1.142,0h-.085l-.042-.042V185.2l.042-.042h.085l.042.042Zm.762-.042h-.085v-.085h.212v.042Zm.889.042-.042.042-.085-.042-.042-.042v-.127h.085l.042.085Zm-2.031.169h-.127v-.042l.042-.127.042-.127.042-.042h.127l.042.042v.085l-.085.042-.042.042v.127Zm-.169-.254h-.085l-.042-.085v-.042h.042l.085.042Zm1.989-.127v.042H723.4v-.042l.085-.042Zm-1.354-.042.085.042h.169l-.042.085-.042.042-.042-.085h-.085l-.085-.042v-.042Zm1.608.042h-.169v-.085l.127.042Zm.719-.085.085.042h.169l.085.042.127.085.042.085v.127h-.042l-.085-.085-.169-.085-.338.042-.042-.169v-.042l-.042-.042-.127.169h-.169l-.042.042.042.085v.127l-.085-.042h-.042V185.2l.042-.042.085-.042h.085l.085-.042.042-.042v-.042h-.085l-.127.042h-.042l.042-.042.127-.042h.339Zm-.973-.042.042.042h-.127l-.085-.042Zm-.508.127-.085-.042v-.042l.042-.085.042.042v.127Zm.8-.127h-.042l-.085-.042v-.042h.127v.085Zm-1.481-.085h.127l.042.042.042.042.085.042h.127l.085-.169h.042v.085l-.042.127-.127.042h-.085l-.3-.169-.127-.042h-.042l.042-.085.085.042Zm-.339.127H722v-.212h.042l.042.042.042.042v.085l-.085.042Zm1.227.042h-.085l-.042-.127v-.127h.127l.042.085v.127Zm1.608-.3.127.085h.042l.085.127v.085l.042.042.085.127-.042.042h-.042l-.042-.085-.042-.042v-.127l-.085-.085-.085-.085-.085-.042-.254.042-.127.042.042-.042.085-.042.212-.042h.085Zm-2.116.085h-.085v-.042l.127-.085.042.042v.085Zm-.846.212h-.127v-.3l.085-.042h.042l.042.085-.042.212v.042Zm-.508,0h-.085l-.042-.127.042-.169.042-.085.042.042.042.085-.042.042v.212Zm2.031-.254H723.4l-.085-.042v-.085h.042l.085.042Zm-.254-.127-.127.085h-.085v-.085l.085-.042h.085Zm-.635.042h-.127v-.127l.042-.042h.127v.085l-.042.085Zm.254-.085v.042l-.085-.042h-.042v-.085h.042l.085.042v.042Zm-.55.042-.127-.042v-.042l.042-.042.127-.042.042.042h.042v.085h-.042l-.085.042Zm-.3-.085h-.127v-.085h.085l.042.042Zm.508-.085h-.085l-.042-.042.042-.042.042-.042.042.042v.085Zm.381-.042h-.042l-.042-.042v-.042h.127v.085Zm.465-.042.085.085-.042.042h-.042l-.042-.042-.042-.042h-.042l-.042.085h-.212v-.085h.085l.127-.042.042-.085h.085l.042.085Zm-.592,0h-.042l-.127-.042v-.042l.042-.042.085.042.042.042Zm.973.169h-.085V184.4l-.042-.042v-.085h.085l.042.085.042.042v.085Zm-1.989-.042-.085.042h-.127l-.042-.127.042-.169h.042l.169.042.042.042v.085Zm1.269-.254-.042.042-.085-.042v-.085l.085.042Zm.508-.042v.042H723.4l-.042-.042-.085-.085h.127Zm1.142-.042.085.042v.042l-.042.042-.127-.085h-.085v.085l.042.042.127.085-.042.042h-.042l-.127-.127-.127-.127-.042-.085V184.1h.3l.085.085Zm-2.708.085h-.085l-.085-.042-.042-.042V184.1l.042-.042.085.042.085.127Zm1.142-.085h-.042l-.085-.042v-.085l.042.042.042.042.042.042Zm-.719.085-.042.042-.042-.042h-.085l-.085.042L722,184.4l-.085.042v-.085l.085-.127.085-.169h.127Zm.423-.127-.042.042h-.085l-.042-.042v-.085h.042l.127-.042v.127Zm.762-.042h-.085l-.042-.042v-.042h.085Zm-.3,0h-.085l-.085-.042v-.042l.042-.085h.169v.085Zm-.719.169h-.042l-.169-.212v-.042l.127-.127h.085l.085.042v.042l-.042.042-.127.127Zm-.169-.339-.085.042-.042-.042.042-.042h.085Zm.381-.085h.127v.127l-.042.042-.085-.042-.042-.042v-.042l.042-.042Zm.677.127h-.042l-.042-.042v-.127h.085l.042.042v.085Zm-4.274,5.628v.042h-.042l-.127-.085-.085-.169-.3-.592-.169-.508-.042-.339v-.339l.085-.381.085-.3.042-.254.085-.423.127-.3.085-.254.042-.254.042-.212.127-.169.3-.423.085-.465.085-.3.127-.127.042-.085.169-.085h.042v.042l-.085.042-.127.085-.042.085-.169.465-.042.169-.042.212-.169.212-.127.212-.085.169-.042.169-.085.254-.127.3-.127.3-.042.381-.042.254-.127.719-.042.339.085.3.169.508.127.3.212.338.127.169Zm6.3-3.681-.042-.042.085-.339v-.169l-.042-.339-.085-.254-.085-.3-.085-.3-.085-.169-.212-.212-.169-.169-.254-.169.042-.042.423.339.212.254.085.169.085.3.085.254.085.3.042.381-.042.254-.042.254Zm-2.708-2.073h-.085l-.085-.042.042-.085.085-.042.127-.085.212-.042.212-.169h.085l.085.042.085.127-.042.042-.3.212-.085-.042-.085-.085h-.042v.042l.085.127h-.085l-.085-.085-.085.042Zm-.3-.127-.169.042-.042-.042-.042-.042.042-.127.127-.212h.085l.042-.085h.212v.085l-.085.042-.085.042-.042.127Zm.508-1.1.339.085.338.042.254.085.254.085.212.085.211.085.169.085v.042h-.042l-.423-.169-.381-.169-.254-.042-.719-.169-.169-.042h-.169l-.169.042-.169.042-.3.085-.254.127-.339.127-.212.085-.169.169-.211.169-.254.254-.212.169-.212.127h-.042v-.042l.212-.085.254-.212.254-.254.169-.169.212-.169.169-.085.339-.127.3-.127.254-.127.212-.042h.169l.381.042Zm42.947,53.145-1.989,1.354L754.2,241.1l-5.881,3.427-2.666.973-2.412.508-18.618.762-1.777-.212-1.735-.55-1.058-1.4-.931-1.862-10.79-31.227-.762-1.015-.212.085-.762.254-.169.042v-.127l-.042-.085-.085-.127-.127-.085-.169-.042h-.381l-.169-.042-.212-.042-.042.085-.042.085.127.042.212.042.169.042h-.212l-.212-.042-.212-.042-.423-.169-.169-.085-.465-.3-.169-.169h-.085v-.042l.085-.042.042.042.169.169.423.3.212.085.423.169h.042v-.169l-.3-.127-.254-.127-.254-.127-.212-.212-.254-.254-.127-.169-.085-.127-.085.042-.085.042v.846h-.042l-.042-.042.042-.8.042-.042.212-.085.042-.085-.085-.169-.085.042h-.042l-.169-.508v-.3l-.042-.339.085-.381.085-.339.085-.254.212-.381.254-.339.212-.3.042-.127.127-.254.169-.169.254-.3.3-.127.3-.127h.635l.212.042.042.042v.169l-.085.042-.169.042-.085.042-.042.085-.127.085-.169.042-.3.085-.169.169-.127.127-.127.042-.338.127-.169.127-.212.212-.042.042v.042l.042.042v.085l-.042.085-.212.3-.169.339-.085.3v.212l-.042.169.042.254.042.465v.085l.085.169h.085l-.169.085v.042l.085.169h.042l.169-.085v.042l-.085.042.127.169.169.169.127.127.381.3.169.085.339.085.381.085h.3v.169h.042l.042.042.212.085.042.042h.042l.085-.085.042-.042.211.212.085.169h.127l.211-.042.127-.042.3-.127.254-.127v-.169l-.042-.042h-.212V210l-.169-.3-.719-1.354v-.042l.127-.085-.085-.127-.127.085-.127.212-.085.254-.042.212v.465l.042.169-.042.042h-.085l-.042-.042-.042-.338.042-.339.085-.339.212-.3.042-.085v-.085h-.085l-.212.212-.211.381-.085.338-.042.254-.042.254-.085.042h-.042l-.042-.127.085-.423.169-.381.212-.339.169-.212.085-.085v-.042l-.042-.042-.169.085-.339.3-.211.254-.169.339-.085.423-.042.085-.085-.042v-.042l.085-.465.169-.254.212-.3.423-.381.169-.127v-.085h-.127l-.3.169-.212.169-.169.127-.254.3-.127.254-.042.254-.085.127h-.127V208.9l.169-.423.169-.3.338-.3.169-.127.169-.085.3-.085.042-.042v-.085l-.042-.042h-.085l-.254.085-.381.127-.212.127-.169.169-.212.169-.169.3-.085.085h-.085l-.042-.042v-.042l.085-.169.169-.212.3-.254.339-.212.211-.127.339-.042.169-.042v-.085l-.042-.042h-.169l-.212.042-.339.085-.508.254-.254.212-.085.085h-.085v-.127l.085-.127.3-.212.423-.169.3-.085.3-.042h.212v-.042l-.042-.085-.085-.042-.211-.042h-.339l-.339.042-.254.085-.085.085h-.042l-.042-.085.042-.085.508-.127.254-.042h.3l.254.085v-.085l-.042-.042-.508-.169-.254-.042-.169.042-.042-.085.042-.042h.423l.254.042.127.042h.085l-.042-.085-.169-.127-.3-.085-.085-.085.042-.085.085.042.3.169.169.085h.042l.042-.635.042-.042.042.042-.042.635v.042h.042v-.042l.127-.254.127-.212.169-.3h.127v.085l-.085.085-.127.212-.169.465v.169h.042l.212-.423.127-.169.3-.3.212-.127h.042l.042.042v.085l-.127.085-.169.127-.169.212-.169.212-.127.254-.042.127v.085l.042.042h.042l.212-.339.254-.254.423-.254.254-.127h.339v.127l-.127.042-.3.042-.339.169-.212.169-.211.169-.212.339-.085.085.042.085.042-.042.3-.254.339-.254.338-.169.423-.085.254-.042h.127l.042.042v.085l-.042.042h-.423l-.254.042-.381.169-.338.254-.339.254v.085l.042.042h.042l.339-.212.3-.169.212-.042.381-.042h.381l.254.085.085.042.042.042-.042.085h-.085l-.127-.042-.169-.042-.338-.042h-.339l-.254.085-.254.127-.3.212-.042.042.042.042h.042l.212-.085.3-.085.3-.042h.592l.212.042.127.042.085.085.042.042-.042.042-.085.042-.212-.085-.381-.085-.212-.042h-.127l-.3.042-.3.127-.169.085-.042.042.042.042.339-.042.465-.042.339.042.211.085.3.169.042.042v.085h-.169l-.212-.127-.212-.085-.3-.085-.465.042H706.9l-.085.042v.042l.127.042.212-.042.169.042.254.042.3.169.254.127.127.127v.127l-.085.042-.085-.042-.254-.254-.254-.127-.169-.085-.211-.042h-.339l-.042.042-.042.042.042.085h.042l.085-.042h.085l.127.3.719,1.312.042.085.127.042.042.042-.042.042-.127.127h-.042l.042.042.085.085.085-.042.381-.212.169-.127.042-.085-.042-.042-.042-.212.042-.381v-.085l.127-.042.169-.338-.127-.127v-.042l.085.042.127-.3.127-.3.127-.381v-.8l-.127-.212-.085-.212v-.042l.085-.042-.127-.212-.127.085v-.127l-.465-.465-.212-.127-.169-.127-.3-.085-.3-.085h-.889v.042h-.042l.085-.381h.465l.423.042.381.085.465.212.254.169.423.339.169.254.042.042-.085.042.127.212.211-.169.085.042h-.085l-.127.127.085.169.085.212.085.381v.635l-.042.254-.042.127.169.085h.042l.042-.254.042-.254v-.339l-.042-.508-.085-.042v-.042l.085-.042h.042v.127l.042.508-.042.381-.042.254-.042.3-.254.55v.042h-.085V208.6h.042l.212-.508v-.042l-.127-.042h-.042l-.127.3-.169.339-.169.042-.169.254v.635l.042.085-.085.127.212-.127,2.412-1.439-.465-1.989,2.92-.592.381.339,6.558-7.743,8.97-11.509.423-1.566-.042-1.312,1.65-1.523,1.4.212,1.312,1.9.465,1.312-.381,1.269-1.142,1.777,2.412-.719.508-1.735-.677-2.158-1.777-3.258-.254-.8.508-.846,1.354-1.481.169.169L740.2,179.2l2.5-.127,2.92-1.058.8-.169.508.465.973,1.4.719.677,2.835,1.65.677.465.719.677.635.762,6.262,4.231,1.4,1.481,1.058,2.031,2.539,10.62.042.635-.169.592-.339.592-.508.55-1.1.973-.423.465-.3.423-.508,1.015-.042.127.677,2.2,1.523,3.173,1.016,2.75.3,1.227.127.719v2.243l.3,2.877,1.015,4.062.423,3,.042,1.65-.085,1.269-.169,1.058-.169.762-.508,1.1ZM709.562,205.98l.339.212.169.127.169.169H710.2l-.169-.127-.169-.127Zm-3.893,4.654.042-.042v.042l-.042.042Z" transform="translate(-406.139 -102.991)" fill="#fff" stroke="#8cbfeb" stroke-linecap="round" stroke-linejoin="round" stroke-width="2"/>
      </g>
      <circle id="_0" data-name="0" transform="translate(420.418 78.363)" fill="#fff" stroke="#8cbfeb" stroke-linecap="round" stroke-linejoin="round" stroke-width="2"/>
      <circle id="_1" data-name="1" transform="translate(245.371 156.176)" fill="#fff" stroke="#8cbfeb" stroke-linecap="round" stroke-linejoin="round" stroke-width="2"/>
      <circle id="_2" data-name="2" transform="translate(221.21 268.219)" fill="#fff" stroke="#8cbfeb" stroke-linecap="round" stroke-linejoin="round" stroke-width="2"/>
    </g>
    <circle id="Ellipse_115" data-name="Ellipse 115" cx="4.5" cy="4.5" r="4.5" transform="translate(788.754 428)" fill="#0a305c"/>
    <circle id="Ellipse_108" data-name="Ellipse 108" cx="4.5" cy="4.5" r="4.5" transform="translate(712.754 308)" fill="#0a305c"/>
    <ellipse id="Ellipse_113" data-name="Ellipse 113" cx="4.5" cy="5" rx="4.5" ry="5" transform="translate(842.754 301)" fill="#0a305c"/>
    <circle id="Ellipse_109" data-name="Ellipse 109" cx="7" cy="7" r="7" transform="translate(721.754 313)" fill="#ffdd92"/>
    <ellipse id="Ellipse_112" data-name="Ellipse 112" cx="7" cy="6.5" rx="7" ry="6.5" transform="translate(846.754 291)" fill="#ffdd92"/>
    <circle id="Ellipse_114" data-name="Ellipse 114" cx="7" cy="7" r="7" transform="translate(794.754 430)" fill="#ffdd92"/>
    <ellipse id="Ellipse_107" data-name="Ellipse 107" cx="6.5" cy="7" rx="6.5" ry="7" transform="translate(695.754 301)" fill="#ffdd92"/>
    <circle id="Ellipse_105" data-name="Ellipse 105" cx="10.5" cy="10.5" r="10.5" transform="translate(752.754 351)" fill="#ee6c4d"/>
    <ellipse id="Ellipse_111" data-name="Ellipse 111" cx="10.5" cy="11" rx="10.5" ry="11" transform="translate(808.754 237)" fill="#ee6c4d"/>
    <ellipse id="Ellipse_106" data-name="Ellipse 106" cx="10.5" cy="11" rx="10.5" ry="11" transform="translate(767.754 340)" fill="#1b2e56"/>
    <ellipse id="Ellipse_110" data-name="Ellipse 110" cx="10.5" cy="11" rx="10.5" ry="11" transform="translate(816.754 231)" fill="#1b2e56"/>
  </g>
</svg>
